<?xml version="1.0" encoding="UTF-8" standalone="no"?><!DOCTYPE svg PUBLIC "-//W3C//DTD SVG 1.1//EN" "http://www.w3.org/Graphics/SVG/1.1/DTD/svg11.dtd"><svg width="100%" height="100%" viewBox="0 0 4267 4267" version="1.1" xmlns="http://www.w3.org/2000/svg" xmlns:xlink="http://www.w3.org/1999/xlink" xml:space="preserve" xmlns:serif="http://www.serif.com/" style="fill-rule:evenodd;clip-rule:evenodd;stroke-linejoin:round;stroke-miterlimit:2;"><path d="M3495.83,705.738c0,-0.63 10.78,4.858 23.959,12.187c13.179,7.329 38.171,27.387 55.546,44.575c63.125,62.45 80.016,123.1 97.487,350c11.8,153.229 15.2,260.858 17.508,554.167c4.192,532.416 -9.104,972.95 -40.366,1337.5c-28.167,328.496 -49.225,418.779 -112.404,481.941c-22.73,22.725 -80.721,59.621 -85.771,54.571c-0.971,-0.966 3.896,-13.446 10.816,-27.729c30.338,-62.629 45.417,-143.338 64.313,-344.2c43.058,-457.713 58.212,-931.821 48.7,-1523.52c-9.358,-582.092 -24.096,-774.608 -69.504,-908.121c-5.654,-16.629 -10.284,-30.746 -10.284,-31.371Z" style="fill:#6b757c;"/><path d="M1995.83,565.329c263.713,-5.2 518.721,2.192 772.917,22.4c342.454,27.229 499.358,59.904 567.208,118.129c50.984,43.75 74.025,123.192 84.717,292.059c19.733,311.716 23.925,1050.21 8.537,1504.17c-10.804,318.725 -42.224,751.059 -64.524,887.875c-16.596,101.821 -56.242,163.9 -127.634,199.85c-66.991,33.738 -195.429,53.846 -449.554,70.384c-506.688,32.979 -878.2,30.279 -1429.17,-10.379c-444.083,-32.775 -525.808,-49.584 -594.937,-122.359c-67.859,-71.437 -76.663,-103.875 -100.717,-371.204c-55.542,-617.183 -66.196,-1160.74 -35.562,-1814.58c16.991,-362.709 32.804,-478.121 74.408,-543.159c45.063,-70.441 146.729,-111.725 380.438,-154.479c211.899,-38.762 604.912,-72.608 913.87,-78.7Zm-848.648,1989.4c-81.082,19.798 -147.496,57.402 -214.818,121.646c-64.888,61.919 -97.97,118.364 -125.702,214.483c-18.171,62.987 -18.129,191.075 0.077,253.177c71.337,243.281 307.129,380.042 554.435,321.566c30.921,-7.306 70.678,-20.058 88.35,-28.333c168.641,-78.955 272.633,-241.471 272.633,-426.071c-0,-225.652 -156.73,-415.764 -378.946,-459.662c-56.331,-11.13 -143.167,-9.713 -196.029,3.194Zm229.898,-1332.08c-171.958,34.187 -311.779,188.187 -359.633,396.108c-25.871,112.396 -22.071,248.533 10.033,359.308c26.617,91.859 65.534,162.78 122.325,222.925c71.142,75.35 150.738,116.559 247.43,128.104c64.475,7.696 132.225,-4.304 196.262,-34.762c200.517,-95.371 299.379,-335.854 258.025,-627.658c-19.987,-141.059 -77.704,-261.317 -165.396,-344.613c-36.979,-35.129 -59.975,-51.304 -99.696,-70.121c-62.229,-29.483 -148.012,-41.483 -209.35,-29.291Zm1093.74,-433.388c-90.008,18.846 -152.225,70.796 -166.937,139.392c-6.384,29.767 0.687,52.371 23.12,73.95c24.171,23.242 48.192,29.042 94.467,22.817c47.658,-6.417 123.675,-5.671 168.825,1.654c76.767,12.45 155.213,45.25 220.842,92.337c40.633,29.15 51.95,34.763 70.108,34.763c59.042,-0 72.979,-67.338 31.104,-150.288c-16.179,-32.054 -57.712,-86.425 -84.291,-110.354c-48.85,-43.979 -113.642,-80.375 -174.175,-97.846c-39.834,-11.496 -141.759,-15.071 -183.063,-6.425Zm66.675,425.854c-208.217,24.638 -354.7,200.55 -389.896,468.225c-8.283,63 -6.137,181.771 4.334,239.538c13.641,75.279 48.737,162.258 90.554,224.417c23.591,35.062 82.396,92.787 119.141,116.945c107.292,70.534 238.88,80.788 353.446,27.542c142.263,-66.121 244.154,-209.962 277.513,-391.775c11.612,-63.292 12.525,-194.546 1.754,-253.067c-27.558,-149.75 -93.242,-270.67 -187.633,-345.425c-40.23,-31.862 -104.992,-65.02 -148.621,-76.095c-32.017,-8.13 -94.134,-13.438 -120.592,-10.305Zm-1155.58,-415.195c-108.809,19.804 -209.675,86.629 -273.479,181.183c-70.8,104.921 -71.75,185.571 -2.188,185.571c18.358,-0 29.604,-5.654 71.504,-35.942c42.429,-30.675 105.413,-60.692 157.663,-75.146c40.416,-11.179 44.975,-11.541 152.083,-11.966c103.296,-0.413 111.492,-1 127.083,-9.121c34.08,-17.75 49.571,-44.688 47.171,-82.017c-4.029,-62.683 -55.65,-117.412 -134.346,-142.433c-37.32,-11.867 -108.658,-16.834 -145.491,-10.129Zm1558.35,2143.38c-48.496,20.404 -78.392,50.8 -99.092,100.746l-9.379,22.625l-62.775,0.337c-34.525,0.188 -117.15,1.692 -183.608,3.342l-120.834,3.004l-26.175,11.871c-57.641,26.142 -92.72,85.679 -86.941,147.567c5.421,58.054 43.816,108.029 96.454,125.545c24.187,8.05 35.454,8.905 113.425,8.579c47.612,-0.195 120.321,-2.162 161.571,-4.366c121.058,-6.479 111.358,-7.788 119.875,16.196c22.637,63.733 75.504,100.425 144.708,100.425c86.925,-0 142.658,-50.005 154.121,-138.288c5.054,-38.941 5.246,-231.754 0.271,-279c-5.788,-55.012 -27.784,-89.925 -71.875,-114.087c-19.509,-10.692 -26.988,-12.267 -63.767,-13.421c-36.629,-1.15 -44.608,-0.071 -65.979,8.925Zm-373.604,-534.467c-93.054,33.708 -146.646,50.908 -193.479,62.1c-152.984,36.563 -305.255,45.508 -452.067,26.567c-64.742,-8.354 -113.796,-19.638 -173.204,-39.842c-27.5,-9.354 -56.971,-17.033 -65.488,-17.067c-38.3,-0.141 -63.112,42.484 -42.787,73.5c16.758,25.58 85.558,64.363 148.946,83.967c32.137,9.938 36.779,12.604 38.783,22.242c8.054,38.75 11.942,53.258 25.275,94.287c31.042,95.521 75.25,171.471 134.896,231.742c60.733,61.379 125.25,96.417 202.241,109.842c45.738,7.979 66.492,7.954 112.796,-0.121c151.159,-26.359 290.346,-161.171 352.946,-341.846c38.842,-112.104 49.617,-239.567 24.421,-288.9c-16.279,-31.871 -55.158,-37.525 -113.279,-16.471Z" style="fill:#96a0a6;"/><path d="M2356.7,2729.78c51.363,-5.316 94.834,1.963 135.867,22.759l20.008,10.137l-8.883,17.621c-33.45,66.354 -97.9,125.592 -165.375,151.992c-24.825,9.712 -33.883,10.945 -82.071,11.187c-46.513,0.233 -57.996,-1.096 -81.25,-9.387c-14.896,-5.309 -34.192,-14.292 -42.879,-19.963l-15.796,-10.304l9.546,-17.054c5.25,-9.383 19.925,-29.433 32.608,-44.558c53.683,-64.013 125.825,-104.93 198.225,-112.43Z" style="fill:#f00;"/><path d="M1199.6,2926.08c22.067,-8.203 75.517,-7.311 93.819,1.561c41.8,20.274 62.596,58.377 59.526,109.06c-1.871,30.818 -5.487,41.893 -19.917,60.933c-22.667,29.905 -55.88,46.001 -94.924,46.001c-39.122,-0 -66.052,-14.795 -88.481,-48.613c-38.48,-58.011 -12.541,-145.706 49.977,-168.942Z" style="fill:#969fa4;"/><path d="M1257.66,2996.91l2.263,1.136l7.318,8.689l2.689,8.354c0.459,0.793 0.876,1.573 1.254,2.338l3.716,12.456l-0.47,10.231l-2.135,6.58l-3.547,5.997l-4.557,4.905l-5.046,3.652l-12.197,4.61c-4.676,0.952 -10.486,1.333 -17.442,0.601l-12.081,-3.165l-8.57,-5.659l-5.885,-7.514l-3.166,-8.705l-0.23,-5.492l-1.012,-3.132l-0.438,-9.288l1.903,-8.957l3.77,-7.998l5.113,-6.904l5.856,-5.444l7.656,-4.389l9.184,-2.297l9.313,0.467l7.671,2.552l8.435,5.641l0.635,0.735Z" style="fill:#6b757c;"/><path d="M1176.97,2665.4c79.057,-19.306 157.032,-10.81 230.329,25.089c83.165,40.732 161.575,137.913 187.127,231.924c11.77,43.299 11.776,145.307 0.006,188.629c-39.638,145.961 -186.444,257.151 -339.522,257.151c-88.807,0 -165.844,-30.851 -233.689,-93.578c-49.775,-46.023 -71.616,-77.057 -93.148,-132.345c-54.063,-138.827 -8.35,-305.682 111.42,-406.704c44.24,-37.317 82.12,-56.65 137.477,-70.166Zm53.611,83.521c-16.152,5.568 -35.125,33.348 -43.534,63.74c-6.122,22.123 -7.232,22.948 -34.008,25.361c-60.933,5.485 -96.29,35.916 -108.404,93.313l-6.573,31.139l-31.693,9.31c-30.594,8.988 -62.126,34.2 -62.126,49.67c-0,19.117 38.385,46.471 77.453,55.188c12.82,2.862 16.193,8.214 22.328,35.379c14.774,65.451 54.157,101.195 111.491,101.195l24.668,-0l13.177,33.68c19.056,48.718 37.5,62.461 68.783,51.27c11.752,-4.201 38.255,-54.314 38.338,-72.497c0.053,-10.931 3.141,-12.47 25.297,-12.575c59.104,-0.282 100.339,-36.287 113.071,-98.726l6.823,-33.469l28.391,-6.349c33.973,-7.599 64.009,-31.643 64.009,-51.247c-0,-17.74 -26.93,-39.215 -64.965,-51.807c-28.118,-9.31 -28.819,-10.101 -31.437,-35.473c-5.891,-57.137 -43.641,-91.348 -107.585,-97.503l-31.847,-3.061l-6.829,-27.563c-11.746,-47.434 -35.534,-69.076 -64.828,-58.975Z" style="fill:#969fa4;"/><path d="M2972.76,3050.22c25.809,-7.592 50.971,2.817 61.755,25.542c8.683,18.296 14.745,213.479 7.779,250.366c-7.3,38.642 -24.446,55.35 -55.525,54.109c-32.434,-1.292 -49.696,-21.896 -58.196,-69.463c-3.65,-20.429 -8.254,-32.508 -14.946,-39.196l-9.667,-9.67l-203.071,2.995c-183.9,2.713 -204.325,2.35 -216.312,-3.85c-18.296,-9.462 -26.242,-22.383 -26.242,-42.675c0,-18.3 9.929,-35.041 26.367,-44.45c6.742,-3.862 62.033,-5.716 216.712,-7.266c241.334,-2.421 217.571,3.241 229.18,-54.629c7.633,-38.059 19.237,-55.071 42.166,-61.813Z" style="fill:#959fa4;"/><path d="M1567.09,1681.93c15.729,-15.733 17.075,-16.225 39.275,-14.383c38.479,3.191 59.287,31.475 55.116,74.917c-4.646,48.32 -53.87,75.391 -90.137,49.57c-35.633,-25.375 -37.621,-76.737 -4.254,-110.104Z" style="fill:#fff;"/><path d="M2591.42,1673.76c27.416,-23.071 72.266,-11.234 87.896,23.199c10.287,22.659 10.258,41.988 -0.088,63.18c-29.596,60.616 -112.562,39.375 -112.562,-28.817c-0,-24.742 8.083,-43.533 24.754,-57.563Z" style="fill:#fff;"/><path d="M2531.25,1350.41c37.613,-5.363 59.671,-5.034 89.692,1.329c58.808,12.471 104.925,37.979 148.871,82.358c35.454,35.796 52.654,60.55 76.179,109.65c63.291,132.083 66.895,296.346 9.55,435.417c-42.905,104.046 -134.092,189.029 -230.542,214.854c-41.629,11.15 -102.138,9.65 -142.825,-3.538c-149.008,-48.3 -240.554,-203.47 -240.492,-407.645c0.071,-229.263 119.921,-408.238 289.567,-432.425Zm-5.058,197.054c-99.884,32.616 -163.167,168.991 -147.205,317.221c9.08,84.341 33.509,143.8 77.125,187.695c34.984,35.209 65.042,48.992 107.034,49.084c27.804,0.058 35.55,-1.721 60.416,-13.892c58.384,-28.575 102.58,-90.742 122.988,-172.992c13.012,-52.441 12.967,-146.945 -0.096,-195.833c-20.687,-77.433 -65.129,-140.108 -115.787,-163.304c-29.163,-13.35 -76.871,-16.996 -104.475,-7.979Z" style="fill:#fff;"/><path d="M1372.39,1357.97c39.554,-10.734 113.779,-8.779 149.591,3.941c118.096,41.938 206.942,163.963 233.809,321.113c8.462,49.513 8.733,143.892 0.558,194.3c-33.192,204.642 -167.996,339.013 -330.979,329.917c-182.709,-10.196 -321.2,-189.484 -321.2,-415.821c-0,-59.263 5.25,-101.167 19.287,-153.921c37.425,-140.65 133.117,-248.1 248.934,-279.529Zm114.983,194.012c-61.333,19.717 -118.192,91.596 -142.213,179.775c-12.162,44.646 -13.216,138.196 -2.104,186.992c17.034,74.804 59.567,138.612 111.113,166.683c20.654,11.25 26.629,12.484 60.504,12.484c34.058,-0 40.196,-1.284 65.354,-13.667c54.125,-26.646 98.092,-86.896 120.771,-165.5c8.425,-29.196 9.612,-42.383 9.567,-106.25c-0.067,-82.546 -4.446,-105.375 -30.355,-158.242c-19.066,-38.9 -55.833,-77.333 -89.704,-93.77c-29.516,-14.321 -73.525,-17.959 -102.933,-8.505Z" style="fill:#fff;"/><g><path d="M2566.67,2408.83c58.12,-21.054 97,-15.4 113.279,16.471c25.196,49.333 14.421,176.796 -24.421,288.9c-62.6,180.675 -201.787,315.487 -352.946,341.846c-46.304,8.075 -67.058,8.1 -112.796,0.121c-76.991,-13.425 -141.508,-48.463 -202.241,-109.842c-59.646,-60.271 -103.855,-136.221 -134.896,-231.742c-13.334,-41.029 -17.221,-55.537 -25.275,-94.287c-2.004,-9.638 -6.646,-12.304 -38.784,-22.242c-63.387,-19.604 -132.187,-58.387 -148.945,-83.967c-20.325,-31.016 4.487,-73.641 42.787,-73.499c8.517,0.033 37.988,7.712 65.488,17.066c59.408,20.204 108.462,31.488 173.204,39.842c146.812,18.942 299.083,9.996 452.067,-26.567c46.833,-11.191 100.425,-28.392 193.479,-62.1Zm-209.963,320.954c-72.4,7.5 -144.541,48.417 -198.225,112.429c-12.683,15.125 -27.358,35.175 -32.608,44.559l-9.546,17.054l15.796,10.304c8.687,5.671 27.983,14.654 42.879,19.963c23.254,8.291 34.738,9.62 81.25,9.387c48.188,-0.242 57.246,-1.475 82.071,-11.187c67.475,-26.4 131.925,-85.638 165.375,-151.992l8.883,-17.621l-20.008,-10.137c-41.033,-20.796 -84.504,-28.075 -135.867,-22.759Z"/><path d="M2940.27,2943.3c21.371,-8.996 29.35,-10.075 65.979,-8.925c36.779,1.154 44.258,2.729 63.767,13.421c44.091,24.162 66.087,59.075 71.875,114.087c4.975,47.246 4.783,240.059 -0.271,279c-11.463,88.284 -67.196,138.288 -154.121,138.288c-69.204,-0 -122.071,-36.692 -144.708,-100.425c-8.517,-23.984 1.183,-22.675 -119.875,-16.196c-41.25,2.204 -113.959,4.171 -161.571,4.367c-77.971,0.325 -89.238,-0.53 -113.425,-8.58c-52.638,-17.516 -91.033,-67.491 -96.454,-125.545c-5.779,-61.888 29.3,-121.425 86.941,-147.567l26.175,-11.871l120.834,-3.004c66.458,-1.65 149.083,-3.154 183.608,-3.342l62.775,-0.337l9.379,-22.625c20.7,-49.946 50.596,-80.342 99.092,-100.746Zm32.487,106.929c-22.929,6.742 -34.533,23.754 -42.166,61.813c-11.609,57.87 12.154,52.208 -229.179,54.629c-154.68,1.55 -209.971,3.404 -216.713,7.266c-16.437,9.409 -26.367,26.15 -26.367,44.45c0,20.292 7.946,33.213 26.242,42.675c11.988,6.2 32.413,6.563 216.313,3.85l203.07,-2.995l9.667,9.67c6.692,6.688 11.296,18.767 14.946,39.196c8.5,47.567 25.762,68.171 58.196,69.463c31.079,1.241 48.225,-15.467 55.525,-54.109c6.966,-36.887 0.904,-232.07 -7.779,-250.366c-10.784,-22.725 -35.946,-33.134 -61.755,-25.542Z"/><path d="M1381.92,799.913c36.833,-6.705 108.171,-1.738 145.491,10.129c78.696,25.02 130.317,79.75 134.346,142.433c2.4,37.329 -13.091,64.267 -47.171,82.017c-15.591,8.121 -23.787,8.708 -127.083,9.121c-107.108,0.425 -111.667,0.787 -152.083,11.966c-52.25,14.454 -115.234,44.471 -157.663,75.146c-41.9,30.288 -53.146,35.942 -71.504,35.942c-69.562,-0 -68.612,-80.65 2.188,-185.571c63.804,-94.554 164.67,-161.379 273.479,-181.183Z"/><path d="M2526.19,1547.47c27.604,-9.017 75.312,-5.371 104.475,7.979c50.658,23.196 95.1,85.871 115.787,163.304c13.063,48.887 13.109,143.392 0.096,195.833c-20.408,82.25 -64.604,144.417 -122.987,172.992c-24.867,12.171 -32.613,13.95 -60.417,13.892c-41.992,-0.092 -72.05,-13.875 -107.033,-49.084c-43.617,-43.896 -68.046,-103.354 -77.125,-187.696c-15.963,-148.229 47.32,-284.604 147.204,-317.22Zm65.229,126.295c-16.671,14.03 -24.754,32.821 -24.754,57.563c-0,68.192 82.966,89.433 112.562,28.817c10.346,-21.192 10.375,-40.521 0.088,-63.18c-15.63,-34.433 -60.479,-46.27 -87.896,-23.2Z"/><path d="M2537.5,1215.11c26.458,-3.133 88.575,2.175 120.592,10.305c43.629,11.075 108.391,44.233 148.621,76.095c94.391,74.755 160.075,195.675 187.633,345.425c10.771,58.521 9.858,189.775 -1.754,253.067c-33.359,181.813 -135.25,325.654 -277.513,391.775c-114.566,53.246 -246.154,42.992 -353.446,-27.542c-36.746,-24.158 -95.55,-81.883 -119.141,-116.945c-41.817,-62.159 -76.913,-149.138 -90.554,-224.417c-10.471,-57.767 -12.617,-176.538 -4.334,-239.538c35.196,-267.675 181.679,-443.587 389.896,-468.225Zm-6.25,135.304c-169.646,24.188 -289.496,203.163 -289.567,432.425c-0.062,204.175 91.484,359.346 240.492,407.646c40.687,13.188 101.196,14.688 142.825,3.538c96.45,-25.825 187.637,-110.809 230.542,-214.854c57.345,-139.071 53.741,-303.334 -9.55,-435.417c-23.525,-49.1 -40.725,-73.854 -76.18,-109.65c-43.945,-44.379 -90.062,-69.887 -148.87,-82.358c-30.021,-6.363 -52.08,-6.692 -89.692,-1.329Z"/><path d="M2470.83,789.254c41.304,-8.646 143.229,-5.071 183.063,6.425c60.533,17.471 125.324,53.867 174.175,97.846c26.579,23.929 68.112,78.3 84.291,110.354c41.875,82.95 27.938,150.288 -31.104,150.288c-18.158,-0 -29.475,-5.613 -70.108,-34.763c-65.63,-47.087 -144.075,-79.887 -220.842,-92.337c-45.15,-7.325 -121.167,-8.071 -168.825,-1.654c-46.275,6.225 -70.296,0.425 -94.467,-22.817c-22.433,-21.579 -29.504,-44.183 -23.121,-73.95c14.713,-68.596 76.93,-120.546 166.938,-139.392Z"/><path d="M1487.37,1551.98c29.408,-9.454 73.417,-5.816 102.933,8.505c33.871,16.437 70.638,54.87 89.704,93.77c25.909,52.867 30.288,75.696 30.355,158.242c0.045,63.867 -1.142,77.054 -9.567,106.25c-22.679,78.604 -66.646,138.854 -120.771,165.5c-25.158,12.383 -31.296,13.667 -65.354,13.667c-33.875,-0 -39.85,-1.234 -60.504,-12.484c-51.546,-28.07 -94.08,-91.879 -111.113,-166.683c-11.112,-48.796 -10.058,-142.346 2.104,-186.992c24.021,-88.179 80.88,-160.058 142.213,-179.775Zm79.721,129.946c-33.367,33.367 -31.379,84.729 4.254,110.104c36.267,25.821 85.492,-1.25 90.137,-49.57c4.171,-43.442 -16.637,-71.726 -55.116,-74.917c-22.2,-1.842 -23.546,-1.35 -39.275,14.383Z"/><path d="M1377.08,1222.64c61.338,-12.192 147.121,-0.192 209.35,29.291c39.721,18.817 62.717,34.992 99.696,70.121c87.692,83.296 145.409,203.554 165.396,344.613c41.354,291.804 -57.508,532.287 -258.025,627.658c-64.037,30.458 -131.787,42.458 -196.263,34.762c-96.691,-11.545 -176.287,-52.754 -247.429,-128.104c-56.791,-60.146 -95.708,-131.066 -122.325,-222.925c-32.104,-110.775 -35.904,-246.912 -10.033,-359.308c47.854,-207.921 187.675,-361.921 359.633,-396.108Zm-4.695,135.329c-115.817,31.429 -211.509,138.879 -248.934,279.529c-14.037,52.754 -19.287,94.658 -19.287,153.921c-0,226.337 138.491,405.625 321.2,415.821c162.983,9.095 297.787,-125.275 330.979,-329.917c8.175,-50.408 7.904,-144.788 -0.558,-194.3c-26.867,-157.15 -115.713,-279.175 -233.809,-321.113c-35.812,-12.72 -110.037,-14.675 -149.592,-3.941Z"/><path d="M1975,398.358c105.463,-2.366 473.996,1.434 556.25,5.734c496.45,25.95 865.654,86.008 1028.95,167.375c129.217,64.379 201.259,154.787 231.217,290.162c36.887,166.688 54.858,522.767 53.979,1069.62c-0.683,425.542 -8.204,623.208 -37.267,979.167c-25.025,306.496 -52.387,480.741 -88.67,564.662c-91.067,210.638 -280.405,290.913 -800.713,339.492c-365.483,34.121 -991.475,40.658 -1385.42,14.462c-442.733,-29.437 -653.991,-64.045 -781.25,-127.979c-119.058,-59.812 -187.941,-162.05 -218.421,-324.162c-19.808,-105.359 -42.412,-362.238 -56.504,-642.025c-25.433,-505.13 -21.525,-1255.01 8.421,-1614.03c20.871,-250.245 39.817,-330.379 98.009,-414.558c69.429,-100.433 178.391,-157.396 390.008,-203.892c244.858,-53.8 653.175,-96.216 1001.4,-104.025Zm1520.83,307.38c0,0.625 4.63,14.741 10.284,31.37c45.408,133.513 60.146,326.03 69.504,908.121c9.512,591.7 -5.642,1065.81 -48.7,1523.52c-18.896,200.863 -33.975,281.571 -64.313,344.2c-6.92,14.283 -11.787,26.763 -10.816,27.729c5.05,5.05 63.041,-31.846 85.77,-54.571c63.18,-63.162 84.238,-153.445 112.405,-481.941c31.262,-364.55 44.558,-805.084 40.366,-1337.5c-2.308,-293.309 -5.708,-400.938 -17.508,-554.167c-17.471,-226.9 -34.363,-287.55 -97.488,-350c-17.375,-17.187 -42.366,-37.246 -55.545,-44.575c-13.18,-7.329 -23.959,-12.817 -23.959,-12.187Zm-1500,-140.409c-308.958,6.092 -701.971,39.938 -913.871,78.7c-233.708,42.754 -335.375,84.038 -380.437,154.479c-41.604,65.038 -57.417,180.45 -74.408,543.159c-30.634,653.841 -19.98,1197.4 35.562,1814.58c24.054,267.329 32.858,299.767 100.717,371.204c69.129,72.775 150.854,89.584 594.937,122.359c550.967,40.658 922.479,43.358 1429.17,10.379c254.125,-16.538 382.562,-36.646 449.554,-70.384c71.392,-35.95 111.038,-98.029 127.633,-199.85c22.3,-136.816 53.721,-569.15 64.525,-887.875c15.388,-453.958 11.196,-1192.45 -8.537,-1504.17c-10.692,-168.867 -33.733,-248.309 -84.717,-292.059c-67.85,-58.225 -224.754,-90.9 -567.208,-118.129c-254.196,-20.208 -509.204,-27.6 -772.917,-22.4Z"/><g><path d="M1230.58,2748.92c29.294,-10.101 53.082,11.541 64.828,58.975l6.829,27.563l31.847,3.061c63.944,6.155 101.694,40.366 107.585,97.503c2.618,25.372 3.319,26.163 31.437,35.473c38.035,12.592 64.965,34.067 64.965,51.807c-0,19.604 -30.036,43.648 -64.009,51.247l-28.391,6.349l-6.823,33.469c-12.732,62.439 -53.967,98.444 -113.071,98.726c-22.156,0.105 -25.244,1.644 -25.297,12.575c-0.083,18.183 -26.586,68.296 -38.338,72.497c-31.283,11.191 -49.727,-2.552 -68.783,-51.27l-13.177,-33.68l-24.668,-0c-57.334,-0 -96.717,-35.744 -111.491,-101.195c-6.135,-27.165 -9.508,-32.517 -22.328,-35.379c-39.068,-8.717 -77.453,-36.071 -77.453,-55.188c-0,-15.47 31.532,-40.682 62.126,-49.67l31.693,-9.31l6.573,-31.139c12.114,-57.397 47.471,-87.828 108.404,-93.313c26.776,-2.413 27.886,-3.238 34.008,-25.361c8.409,-30.392 27.382,-58.172 43.534,-63.74Zm-30.986,177.161c-62.518,23.236 -88.457,110.931 -49.977,168.942c22.429,33.818 49.359,48.613 88.481,48.613c39.044,-0 72.257,-16.096 94.924,-46.001c14.43,-19.04 18.046,-30.115 19.917,-60.933c3.07,-50.683 -17.726,-88.786 -59.526,-109.06c-18.302,-8.872 -71.752,-9.764 -93.819,-1.561Z"/><path d="M1147.18,2554.73c52.862,-12.907 139.698,-14.324 196.029,-3.194c222.216,43.898 378.946,234.01 378.946,459.662c-0,184.6 -103.992,347.116 -272.633,426.071c-17.672,8.275 -57.429,21.027 -88.35,28.333c-247.306,58.476 -483.098,-78.285 -554.435,-321.566c-18.206,-62.102 -18.248,-190.19 -0.077,-253.177c27.732,-96.119 60.814,-152.564 125.702,-214.483c67.322,-64.244 133.736,-101.848 214.818,-121.646Zm29.786,110.676c-55.357,13.516 -93.237,32.849 -137.477,70.166c-119.77,101.022 -165.483,267.877 -111.42,406.704c21.532,55.288 43.373,86.322 93.148,132.345c67.845,62.727 144.882,93.578 233.689,93.578c153.078,0 299.884,-111.19 339.522,-257.151c11.77,-43.322 11.764,-145.33 -0.006,-188.629c-25.552,-94.011 -103.962,-191.192 -187.127,-231.924c-73.297,-35.899 -151.272,-44.395 -230.329,-25.089Z"/></g></g></svg>