<?xml version="1.0" encoding="UTF-8" standalone="no"?><!DOCTYPE svg PUBLIC "-//W3C//DTD SVG 1.1//EN" "http://www.w3.org/Graphics/SVG/1.1/DTD/svg11.dtd"><svg width="100%" height="100%" viewBox="0 0 4267 4267" version="1.1" xmlns="http://www.w3.org/2000/svg" xmlns:xlink="http://www.w3.org/1999/xlink" xml:space="preserve" xmlns:serif="http://www.serif.com/" style="fill-rule:evenodd;clip-rule:evenodd;stroke-linejoin:round;stroke-miterlimit:2;"><path d="M1623.48,1327.44c71.796,-17.375 140.892,1.479 196.696,53.679c65.671,61.425 97.558,140.483 97.521,241.796c-0.029,81.841 -19.171,150.075 -59.213,211.062c-60.454,92.092 -152.387,127.904 -249.546,97.213c-113.425,-35.834 -184.612,-151.638 -184.379,-299.942c0.038,-25.208 2.954,-59.483 6.479,-76.171c24.321,-115.154 100.625,-205.412 192.442,-227.637Zm73.212,138.512c-29.316,10.488 -49.229,27 -70.549,58.496c-57.376,84.762 -49.034,225.504 17.416,293.875c34.734,35.737 78.067,47.637 124.413,34.167c33.616,-9.775 72.987,-47.092 92.279,-87.471c42.725,-89.421 33.192,-198.4 -22.938,-262.167c-33.533,-38.096 -93.375,-53.8 -140.621,-36.9Z" style="fill:#fefefe;"/><path d="M1772.08,1559.38c10.604,-11.642 21.2,-11.929 32.254,-0.875c17.105,17.104 21.68,50.208 10.605,76.717c-11.73,28.066 -35.759,28.675 -52.434,1.325c-14.483,-23.755 -10.604,-55.009 9.575,-77.167Z" style="fill:#fefefe;"/><path d="M2473.85,1561.47c22.729,-25.117 56.659,18.358 47.196,60.47c-5.858,26.071 -15.313,37.088 -30.55,35.601c-33.125,-3.242 -43.979,-65.871 -16.646,-96.071Z" style="fill:#fefefe;"/><path d="M2375.95,1326.86c12.083,-2.926 34.533,-5.48 49.892,-5.676c66.116,-0.837 122.879,23.684 170.708,73.746c17.333,18.142 38.2,44.984 46.375,59.65c34.05,61.104 48.9,138.884 40.292,211.042c-19.713,165.217 -122.488,275.942 -256.13,275.942c-65.454,-0 -109.837,-19.163 -158.333,-68.363c-58.783,-59.637 -84.529,-124.696 -88.45,-223.508c-2.467,-62.146 1.717,-96.342 17.563,-143.446c30.608,-91.013 99.437,-160.342 178.083,-179.388Zm38.204,141.296c-23.092,7.567 -52.183,28.142 -67.962,48.063c-57.196,72.216 -60.675,201.358 -7.55,280.321c21.512,31.979 46.075,51.204 76.854,60.15c29.571,8.6 53.516,5.579 87.412,-11.021c59.817,-29.288 96.829,-103.204 97.025,-193.754c0.171,-79.955 -36.937,-149.913 -93.679,-176.605c-25.329,-11.912 -67.562,-15.195 -92.1,-7.154Z" style="fill:#fefefe;"/><path d="M2306.25,2308.75c13.75,-1.958 26.875,-3.779 29.167,-4.042c5.979,-0.683 57.125,7.846 60.85,10.146c5.291,3.271 -23,69.525 -41.03,96.071c-21.274,31.329 -41.987,49.716 -71.712,63.658c-20.917,9.809 -27.85,10.829 -73.108,10.746c-43.621,-0.079 -52.838,-1.363 -72.259,-10.054c-20.966,-9.383 -22.116,-10.679 -19.8,-22.267c4.013,-20.062 30.23,-59.212 54.525,-81.416c37.017,-33.83 83.5,-55.734 133.367,-62.842Z" style="fill:#ec3737;"/><path d="M3325,2501.8c184.938,-38.771 168.079,-40.262 167.833,14.867c-0.17,39.045 -15.362,88.462 -37.891,123.241c-26.209,40.471 -55.725,63.796 -126.625,100.063c-97.167,49.704 -118.546,77.237 -123.104,158.533c-2.463,43.971 6.883,83.063 27.033,113.067c10.554,15.716 32.587,35.479 44.412,39.837c10.175,3.75 -68.175,73.175 -102.125,90.496l-16.2,8.267l0.575,-153.213c0.321,-84.262 1.725,-222.579 3.125,-307.366l2.55,-154.163l160.417,-33.629Z" style="fill:#f0972f;"/><path d="M3410.42,2361.22c6.875,-0.904 13.608,-1.925 14.962,-2.267c2.784,-0.708 26.246,41.021 23.992,42.671c-0.8,0.588 -65.204,13.825 -143.121,29.417c-77.917,15.592 -166.042,33.904 -195.833,40.696c-51.434,11.725 -57.442,12.225 -119.021,9.904c-72.688,-2.738 -82.388,-0.292 -77.413,19.537c6.159,24.521 91.855,51.963 146.08,46.771l28.808,-2.762l-2.763,222.196c-1.52,122.208 -2.766,264.72 -2.77,316.691l-0.005,94.496l-23.958,4.988c-34.954,7.279 -105.429,2.954 -135.092,-8.292c-26.487,-10.042 -49.766,-32.496 -56.958,-54.933c-3.254,-10.159 -3.05,-100.125 0.733,-322.421c4.725,-277.592 5.963,-309.679 12.43,-321.838c3.954,-7.425 11.366,-16.116 16.475,-19.312c5.108,-3.196 49.6,-13.488 98.87,-22.875c82.813,-15.771 385.984,-68.913 414.584,-72.667Z" style="fill:#f0972f;"/><path d="M2509.53,2751.04c12.575,-13.725 47.904,-13.342 64.196,0.696l11.692,10.07l-0.009,80.555c-0.008,68.137 -1.187,83.612 -7.654,100.391c-8.754,22.717 -16.316,28.079 -39.608,28.079c-20.558,0 -35.6,-15.733 -39.729,-41.562c-1.592,-9.942 -7.096,-21.663 -12.904,-27.471c-10.117,-10.117 -10.292,-10.133 -101.325,-10.133c-50.155,-0 -122.884,-1.25 -161.621,-2.78c-69.692,-2.745 -70.55,-2.895 -81.917,-14.262c-15.313,-15.312 -16.071,-41.25 -1.625,-55.696c13.063,-13.062 25.587,-14.121 192.225,-16.262c75.625,-0.975 140.863,-3.142 144.971,-4.817c4.108,-1.675 11.35,-10.783 16.091,-20.237c4.746,-9.459 12.492,-21.417 17.217,-26.571Z" style="fill:#9e9e9e;"/><path d="M1525,2579.68c15.483,-6.175 52.988,-5.504 65.829,1.175c29.33,15.263 43.921,43.946 41.767,82.1c-1.313,23.2 -3.85,31.538 -13.975,45.871c-15.904,22.512 -39.208,34.629 -66.604,34.629c-27.45,0 -46.346,-11.137 -62.084,-36.596c-26.999,-43.671 -8.799,-109.687 35.067,-127.179Z" style="fill:#9e9e9e;"/><path d="M1519.89,2654.14l0.208,-2.316l3.062,-7.347l5.28,-6.346l5.232,-3.76l6.553,-2.676l1.3,-0.172l5.346,-1.195l6.978,0.005l2.328,0.608l1.193,0.05l6.139,1.791l5.484,3.07l7.519,8.018l0.542,1.193l0.973,1.06l4.254,9.964l0.89,6.554l-0.666,7.581l-2.941,7.895l-5.143,6.772l-7.477,5.293l-7.197,2.504l-9.255,0.646l-7.991,-1.481l-7.568,-3.32l-0.889,-0.72l-3.661,-2.011l-5.738,-5.42l-4.12,-6.975l-1.926,-7.287l0.044,-7.75l1.247,-4.228Z" style="fill:#6c767c;"/><path d="M1509.13,2383.44c55.471,-14.534 110.183,-8.138 161.613,18.887c58.354,30.662 113.37,103.821 131.3,174.592c8.258,32.595 8.262,109.387 0.004,142c-27.813,109.879 -130.821,193.583 -238.229,193.583c-62.313,-0 -116.367,-23.225 -163.971,-70.446c-34.925,-34.646 -50.25,-58.008 -65.359,-99.629c-37.933,-104.508 -5.858,-230.117 78.18,-306.167c31.041,-28.091 57.62,-42.646 96.462,-52.821Zm37.617,62.875c-11.333,4.192 -24.646,25.105 -30.546,47.984c-4.296,16.654 -5.075,17.275 -23.862,19.091c-42.755,4.13 -67.563,27.038 -76.063,70.246l-4.612,23.442l-22.238,7.008c-21.467,6.767 -43.592,25.746 -43.592,37.392c0,14.392 26.934,34.983 54.346,41.546c8.996,2.154 11.363,6.183 15.667,26.633c10.367,49.271 38,76.179 78.229,76.179l17.308,0l9.246,25.355c13.371,36.675 26.313,47.02 48.263,38.595c8.246,-3.162 26.841,-40.887 26.9,-54.575c0.037,-8.229 2.204,-9.387 17.75,-9.466c41.471,-0.213 70.404,-27.317 79.337,-74.321l4.788,-25.196l19.921,-4.779c23.837,-5.721 44.912,-23.821 44.912,-38.579c0,-13.355 -18.896,-29.521 -45.583,-39c-19.729,-7.009 -20.221,-7.604 -22.059,-26.705c-4.133,-43.012 -30.62,-68.766 -75.487,-73.399l-22.346,-2.305l-4.792,-20.75c-8.241,-35.708 -24.933,-52 -45.487,-44.396Z" style="fill:#9e9e9e;"/><path d="M1692.1,3356.39l0.483,-73.021l21.421,2.141c23.088,2.313 204.013,14.492 215.225,14.492c5.817,0 7.492,10.038 11.65,69.792c5.771,82.987 9.013,102.054 30.029,176.633c17.321,61.467 37.429,153.892 37.429,172.033c0,20.35 -6.325,26.075 -34.258,31.009c-120.912,21.366 -399.683,27.229 -527.008,11.087c-72.167,-9.15 -78.854,-12.658 -84.663,-44.404c-10.358,-56.646 46.492,-141.942 117.225,-175.887c49.567,-23.788 90.3,-33.33 143.288,-33.563c55.891,-0.246 72.3,4.308 111.312,30.892c31.788,21.658 47.896,25.521 59.225,14.196c13.213,-13.217 4.192,-47.988 -19.408,-74.796c-14.113,-16.034 -47.942,-36.396 -75.117,-45.213c-6.641,-2.154 -7.275,-9.166 -6.833,-75.391Z" style="fill:#428bbe;"/><path d="M2703.12,3292.97c54.429,-2.204 108.425,-4.334 119.992,-4.738l21.037,-0.729l9.734,63.542c15.941,104.058 27.116,131.495 67.695,166.246c66.946,57.325 97.354,97.82 118.146,157.325c13.979,40.008 13.025,66.762 -2.642,74.237c-57.845,27.6 -451.3,24.971 -565.479,-3.779c-21.771,-5.484 -26.879,-15.375 -21.141,-40.917c7.358,-32.75 25.008,-63.033 53.266,-91.408c49.459,-49.659 109.625,-72.429 192.1,-72.713c40.4,-0.137 51.671,1.334 71.854,9.363c29.167,11.6 41.267,10.554 46.371,-4.021c8.705,-24.867 -10.683,-52.896 -45.637,-65.975c-18.738,-7.008 -32.613,-8.567 -76.333,-8.567l-53.438,0l-4.583,-21.875c-13.054,-62.295 -29.9,-146.191 -29.9,-148.9c-0,-1.7 44.533,-4.887 98.958,-7.091Z" style="fill:#428bbe;"/><path d="M3404.17,2003.3c22.225,-12.146 60.354,-8.713 73.546,6.621c5.383,6.262 9.787,15.812 9.787,21.229c0,8.104 3.65,11.062 20.571,16.683c42.5,14.117 94.887,53.704 137.158,103.65c158.3,187.034 195.209,428.279 106.725,697.608c-71.875,218.763 -215.858,355.705 -374.871,356.53c-40.516,0.212 -67.158,-8.075 -82.875,-25.775c-7.858,-8.85 -7.77,-8.971 44.317,-62.734c119.604,-123.45 153.1,-169.65 135.642,-187.108c-11.813,-11.813 -26.534,-5.258 -69.317,30.854c-34.162,28.829 -44.371,35.375 -52.137,33.425c-15.105,-3.787 -48.942,-35.95 -57.388,-54.533c-10.954,-24.125 -10.325,-61.242 1.392,-82.092c10.754,-19.137 22.637,-27.05 67.137,-44.712c49.496,-19.646 89.217,-44.742 119.338,-75.409c80.821,-82.279 110.466,-215.25 74.296,-333.246c-19.871,-64.829 -72.584,-147.495 -144.167,-226.095c-18.225,-20.013 -36.271,-42.984 -40.092,-51.042c-21.287,-44.858 -6.691,-103.292 30.938,-123.854Z" style="fill:#428bbe;"/><path d="M638.567,1062.62c24.025,-9.659 49.641,-1.346 67.037,21.75c19.221,25.512 30.625,72.941 46.734,194.354l10.72,80.804l-22.05,35.863c-39.908,64.891 -81.421,151.529 -89.058,185.845c-12.038,54.117 -0.638,106.655 23.783,109.6c15.6,1.88 20.9,-8.141 26.784,-50.654c9.495,-68.62 24.4,-97.008 100.12,-190.704c50.817,-62.887 65.65,-74.479 95.288,-74.479c40.787,-0 64.575,27.167 64.575,73.746c-0,31.896 -6.338,51.658 -37.325,116.354c-29.779,62.175 -50.167,97.333 -83.058,143.233c-13.959,19.479 -25.396,38.904 -25.417,43.167c-0.05,11.117 21.717,50.258 45.779,82.325c30.775,41.008 91.783,97.033 129.588,118.996l32.933,19.137l-0,130.688c-0,71.879 -0.513,130.687 -1.138,130.687c-6.758,0 -75.479,-29.729 -102.966,-44.546c-75.125,-40.491 -138.059,-87.812 -205.471,-154.5c-57.4,-56.779 -99.246,-117.62 -80.896,-117.62c11.138,-0 27.971,-19.792 27.971,-32.888c-0,-6.85 -1.838,-13.587 -4.083,-14.975c-2.242,-1.387 -22.4,-5.262 -44.792,-8.612c-119.521,-17.875 -183,-68.421 -225.404,-179.471c-7.113,-18.625 -22.288,-66.438 -33.721,-106.25c-40.179,-139.9 -58.392,-226.859 -59.567,-284.45c-0.566,-27.95 0.492,-32.796 9.188,-42.059c16.371,-17.425 58.379,-12.725 58.379,6.534c-0,25.841 69.954,177.375 97.075,210.275c9.312,11.3 14.867,14.55 23.208,13.583c17.234,-1.996 15.796,-16.237 -9.225,-91.367c-29.875,-89.704 -41.058,-143.858 -41.187,-199.487c-0.113,-46.746 3.3,-60.754 18.158,-74.6c13.138,-12.238 41.175,-11.917 55.633,0.642c8.78,7.62 13.859,21.32 27.184,73.3c9.579,37.37 25.75,85.833 38.933,116.666c28.05,65.609 39.208,100.209 33.558,104.054c-58.308,39.717 -106.962,72.305 -123.591,82.788c-27.954,17.621 -38.159,28.254 -35.004,36.479c4.179,10.888 14.825,12.329 37.729,5.108c24.55,-7.737 167.491,-90.608 178.571,-103.525c16.55,-19.295 2.97,-41.233 -20.096,-32.462c-13.721,5.217 -16.367,3.233 -10.45,-7.821c6.937,-12.958 5.441,-37.208 -7.996,-129.796c-15.046,-103.675 -16.313,-158.283 -4.125,-178.271c4.587,-7.525 12.55,-15.375 17.692,-17.441Z" style="fill:#428bbe;"/><path d="M3219.47,852.842c-9.742,-19.896 -16.7,-36.163 -15.463,-36.146c8.95,0.116 81.196,19.5 118.913,31.904c109.6,36.05 174.908,84.163 208.433,153.546c32.6,67.471 37.138,127.721 34.042,452.021c-2.075,217.191 -9.354,478.666 -13.442,482.766c-0.829,0.834 -7.704,-2.287 -15.271,-6.937c-35.412,-21.754 -100.483,-32.742 -138.896,-23.454c-43.22,10.454 -85.704,46.183 -105.295,88.562c-14.296,30.929 -17.755,93.45 -7.425,134.313c8.212,32.504 35.008,89.812 55.016,117.658c8.063,11.225 14.063,20.817 13.334,21.313c-0.734,0.5 -17.267,3.25 -36.746,6.112c-19.479,2.863 -41.063,6.167 -47.959,7.346l-12.541,2.142l0.987,-61.788c8.779,-549.083 9.554,-678.737 5.529,-926.367c-5.595,-343.995 -8.295,-371.662 -43.216,-442.991Z" style="fill:#6c767c;"/><path d="M2068.75,720.838c261.671,-8.73 585.654,7.087 814.583,39.758c130.067,18.562 173.563,33.654 209.784,72.775c40.833,44.108 54.937,87.775 60.97,188.779c10.367,173.517 9.23,727.063 -2.424,1180.88l-2.592,100.938l-13.079,2.162c-52.45,8.675 -207.092,37.754 -236.117,44.396c-61.942,14.179 -93.187,39.3 -109.817,88.292c-10.42,30.695 -14.2,115.187 -19.416,434.104c-2.625,160.416 -6,292.896 -7.5,294.4c-8.584,8.612 -487.034,21.937 -654.809,18.237c-233.958,-5.158 -644.991,-27.85 -725,-40.025c-64.941,-9.883 -115.929,-33.2 -152.433,-69.7c-43.954,-43.958 -50.008,-63.183 -63.875,-202.912c-20.921,-210.834 -28.271,-369.155 -34.2,-736.692c-6.571,-407.15 2.325,-970.329 17.383,-1100.81c10.78,-93.421 35.588,-142.134 93.367,-183.367c61.788,-44.088 151.021,-66.913 364.758,-93.296c193.175,-23.846 298.409,-32.512 460.417,-37.917Zm288.638,181.23c-30.963,7.825 -61.892,23.662 -82.413,42.2c-34.846,31.483 -50.504,90.429 -30.971,116.612c13.738,18.417 27.321,20.663 70.371,11.621c49.633,-10.421 130.542,-10.421 168.958,-0c39.792,10.792 88.992,35.35 129.167,64.471c19.479,14.116 39.9,26.846 45.375,28.283c15.021,3.938 30.325,-3.283 41.288,-19.475c11.904,-17.579 10.32,-35.462 -6.017,-68c-37.583,-74.862 -115.013,-144.125 -189.775,-169.767c-34.142,-11.712 -110.8,-14.833 -145.983,-5.945Zm146.779,1756c-33.938,10.363 -59.6,31.484 -70.646,58.146l-5.446,13.15l-130.296,-2.833c-148,-3.225 -170.441,-0.838 -199.316,21.187c-9.371,7.146 -22.7,22.155 -29.625,33.355c-11.93,19.3 -12.588,22.666 -12.588,64.441c0,40.25 0.963,45.704 11.088,62.825c14.775,24.992 30.429,39.263 55.579,50.671c20.116,9.121 25.825,9.504 166.021,11.084l145.191,1.633l6.263,15.179c20.412,49.492 64.166,70.379 124.208,59.288c38.375,-7.092 59.867,-22.55 76.013,-54.684c11.525,-22.941 14.22,-34.308 18.237,-76.912c6.233,-66.096 2.679,-164.134 -6.929,-191.154c-10.388,-29.196 -36.142,-54.338 -64.138,-62.596c-23.454,-6.917 -65.479,-8.317 -83.616,-2.779Zm-891.15,-1747.32c-75.85,20.4 -160.342,99.783 -195.613,183.779c-14.504,34.55 -10.1,54.254 14.775,66.058c18.792,8.917 25.671,6.746 67.821,-21.421c42.583,-28.454 92.342,-52.516 129.167,-62.462c18.746,-5.063 50.237,-8.054 102.291,-9.713c85.292,-2.72 93.934,-5.495 102.1,-32.754c6.888,-22.996 -0.562,-45.737 -23.262,-70.983c-34.871,-38.783 -83.738,-59.254 -140.371,-58.804c-18.979,0.15 -44.587,2.983 -56.908,6.3Zm748.566,314.437c-68.712,16.892 -127.02,57.354 -173.883,120.654c-50.183,67.788 -74.325,146.225 -78.237,254.167c-5.48,151.154 36.795,274.463 120.745,352.188c119.717,110.841 299.696,98.45 418.759,-28.83c111.729,-119.441 146.587,-286.812 94.387,-453.237c-32.191,-102.642 -96.358,-180.679 -182.937,-222.488c-63.65,-30.737 -133.204,-38.591 -198.834,-22.454Zm-730.333,1.734c-58.854,11.395 -105.5,35.97 -152.6,80.404c-133.233,125.683 -169.075,366.141 -80.304,538.758c34.417,66.921 91.641,124.154 153.737,153.754c176.121,83.95 361.934,-20.658 422.405,-237.812c47.512,-170.629 15.641,-337.992 -84.705,-444.825c-65.208,-69.421 -172.583,-106.917 -258.533,-90.279Zm783.333,873.354c-134.033,58.862 -294.429,79.091 -443.75,55.966c-25.65,-3.97 -69.895,-15.57 -106.954,-28.037c-61.679,-20.746 -63.471,-21.088 -74.146,-14.096c-23.304,15.271 -23.821,48.308 -1.05,67.563c20.025,16.937 59.096,33.862 105.104,45.533c22.575,5.729 41.492,10.858 42.038,11.408c0.546,0.546 3.1,16.929 5.671,36.404c13.566,102.709 44.358,173.117 98.741,225.784c75.605,73.221 188.713,89.012 282.65,39.462c51.376,-27.096 106.488,-90.596 137.288,-158.183c29.533,-64.813 48.158,-151.571 48.158,-224.358c0,-44.405 -4.75,-60.146 -21.737,-72.042c-13.371,-9.367 -20.946,-7.833 -72.013,14.596Zm-926.354,199.854c-56.891,14.904 -103.492,43.212 -150.729,91.575c-45.529,46.612 -68.742,89.104 -88.2,161.462c-12.75,47.417 -12.721,143.842 0.054,190.592c50.054,183.142 215.5,286.096 389.025,242.075c21.696,-5.5 49.592,-15.1 61.992,-21.329c118.329,-59.438 191.296,-181.779 191.296,-320.746c-0,-169.871 -109.971,-312.987 -265.892,-346.033c-39.525,-8.379 -100.454,-7.313 -137.546,2.404Z" style="fill:#9e9e9e;"/><path d="M2054.17,596.792c-1.146,1.137 -36.771,3.187 -79.167,4.554c-141.425,4.558 -365.117,27.35 -500,50.95c-70.983,12.417 -176.587,38.296 -220.833,54.112c-107.504,38.434 -166.071,95.909 -193.029,189.425c-16.413,56.942 -24.167,141.863 -30.3,331.863l-2.846,88.112l-19.629,-14.104c-43.996,-31.604 -93.45,-44.837 -133.25,-35.646c-10.25,2.371 -19.171,3.771 -19.821,3.121c-0.654,-0.654 -4.038,-24.454 -7.521,-52.892c-22.858,-186.62 -76.163,-262.5 -185.271,-263.75c-43.462,-0.5 -78.287,11.221 -106.096,35.7c-17.775,15.646 -19.354,16.196 -34.391,12.021c-26.742,-7.429 -77.342,-5.433 -102.68,4.046c-43.212,16.171 -77.216,57.783 -85.141,104.183l-3.163,18.53l-27.771,5.033c-51.225,9.283 -82.595,31.846 -101.558,73.046c-11.262,24.471 -12.008,29.371 -11.608,76.154c1.225,143.221 94.004,453.267 165.696,553.738c39.42,55.245 95.545,94.329 153.587,106.958c14.313,3.112 23.958,7.408 23.958,10.666c0,10.588 39.98,83.33 60.446,109.98c65.213,84.925 159.071,161.771 268.721,220.012c39.892,21.188 116.679,53.954 148.375,63.309l17.129,5.058l2.875,96.387c6.242,209.221 20.842,433.021 34.15,523.475c10.292,69.95 29.596,117.78 65.996,163.509c64.054,80.47 164.013,117.75 372.396,138.875l72.175,7.316l-2.896,60.775c-1.592,33.425 -3.667,61.621 -4.608,62.655c-0.942,1.033 -17.117,5.049 -35.946,8.92c-45.379,9.338 -74.263,20.679 -114.988,45.154c-45.012,27.055 -70.971,49.384 -96.362,82.884c-41.65,54.958 -63.338,114.416 -64.104,175.746c-1.146,91.72 44.025,132.958 164.337,150.029c98.346,13.958 371.833,12.925 512.409,-1.934c94.037,-9.937 127.483,-21.079 158.145,-52.675c41.742,-43.008 38.138,-101.8 -16.712,-272.504c-19.975,-62.166 -27.013,-123.633 -22.454,-196.058l2.633,-41.888l212.058,-0.129c116.634,-0.071 212.059,1.188 212.059,2.8c-0,9.742 14.466,83.15 23.112,117.279c5.621,22.188 10.221,43.1 10.221,46.48c0,3.375 -10.192,11.887 -22.646,18.916c-65.783,37.125 -119.437,110.275 -140.075,190.963c-26.296,102.812 7.834,156.825 112.721,178.404c108.071,22.229 462.083,24.45 572.071,3.583c90.587,-17.183 128.154,-59.137 122.404,-136.679c-7.804,-105.129 -68.004,-210.987 -151.162,-265.796l-25.442,-16.766l-8.779,-46.388c-4.829,-25.512 -10.005,-59.046 -11.504,-74.512l-2.725,-28.125l25.649,-0c62.83,-0 182.976,-21.996 217.409,-39.8c11.904,-6.155 13.05,-5.959 25.366,4.408c17.871,15.037 45.946,28.679 82.65,40.158c26.142,8.175 39.513,9.671 83.23,9.317c62.545,-0.504 100.075,-9.354 156.916,-37.004c161.704,-78.659 292.459,-283.888 334.488,-524.996c49.487,-283.913 -17.963,-525.475 -198.45,-710.721l-26.688,-27.392l4.409,-83.025c2.425,-45.666 6.258,-117.716 8.52,-160.112c14.609,-273.846 13.571,-576.083 -2.358,-687.5c-28.758,-201.142 -137.504,-298.767 -410.171,-368.225c-263.779,-67.192 -599.687,-103.258 -1018.75,-109.379c-100.833,-1.475 -184.271,-1.746 -185.416,-0.604m14.583,124.045c-162.008,5.405 -267.242,14.071 -460.417,37.917c-213.737,26.383 -302.971,49.208 -364.758,93.296c-57.779,41.233 -82.588,89.946 -93.367,183.367c-15.058,130.479 -23.954,693.658 -17.383,1100.81c5.929,367.537 13.279,525.858 34.2,736.692c13.867,139.729 19.921,158.954 63.875,202.912c36.504,36.5 87.492,59.817 152.433,69.7c80.009,12.175 491.042,34.867 725,40.025c167.775,3.7 646.225,-9.625 654.809,-18.237c1.5,-1.505 4.875,-133.984 7.5,-294.4c5.216,-318.917 8.995,-403.409 19.416,-434.104c16.629,-48.992 47.875,-74.113 109.817,-88.292c29.025,-6.642 183.667,-35.721 236.117,-44.396l13.079,-2.162l2.591,-100.938c11.655,-453.813 12.792,-1007.36 2.425,-1180.88c-6.033,-101.004 -20.137,-144.671 -60.97,-188.779c-36.221,-39.121 -79.717,-54.213 -209.784,-72.775c-228.929,-32.671 -552.912,-48.488 -814.583,-39.759m1150.72,132.005c34.92,71.329 37.62,98.995 43.216,442.991c4.025,247.63 3.25,377.284 -5.529,926.367l-0.987,61.787l12.541,-2.141c6.896,-1.179 28.479,-4.483 47.959,-7.346c19.479,-2.862 36.012,-5.612 36.745,-6.112c0.73,-0.496 -5.27,-10.088 -13.333,-21.313c-20.008,-27.846 -46.804,-85.154 -55.017,-117.658c-10.329,-40.863 -6.87,-103.384 7.425,-134.313c19.592,-42.379 62.075,-78.108 105.296,-88.562c38.413,-9.288 103.484,1.7 138.896,23.454c7.567,4.65 14.442,7.771 15.271,6.937c4.087,-4.1 11.367,-265.575 13.442,-482.766c3.095,-324.3 -1.442,-384.55 -34.042,-452.021c-33.525,-69.383 -98.833,-117.496 -208.433,-153.546c-37.717,-12.404 -109.963,-31.787 -118.913,-31.904c-1.237,-0.017 5.721,16.25 15.463,36.146m-862.08,49.225c-30.962,7.825 -61.891,23.662 -82.412,42.2c-34.846,31.483 -50.504,90.429 -30.971,116.612c13.738,18.417 27.321,20.663 70.371,11.621c49.633,-10.421 130.542,-10.421 168.958,0c39.792,10.792 88.992,35.35 129.167,64.471c19.479,14.117 39.9,26.846 45.375,28.283c15.021,3.938 30.325,-3.283 41.287,-19.475c11.905,-17.579 10.321,-35.462 -6.016,-68c-37.584,-74.862 -115.013,-144.125 -189.775,-169.766c-34.142,-11.713 -110.8,-14.834 -145.984,-5.946m-744.37,8.675c-75.85,20.4 -160.342,99.783 -195.613,183.779c-14.504,34.55 -10.1,54.254 14.775,66.058c18.792,8.917 25.671,6.746 67.821,-21.421c42.583,-28.454 92.342,-52.516 129.167,-62.462c18.745,-5.063 50.237,-8.054 102.291,-9.713c85.292,-2.72 93.934,-5.495 102.1,-32.754c6.888,-22.996 -0.562,-45.737 -23.262,-70.983c-34.871,-38.783 -83.738,-59.254 -140.371,-58.804c-18.979,0.15 -44.588,2.983 -56.908,6.3m-974.45,151.879c-5.142,2.067 -13.105,9.917 -17.692,17.442c-12.188,19.987 -10.921,74.595 4.125,178.27c13.437,92.588 14.933,116.838 7.996,129.796c-5.917,11.054 -3.271,13.038 10.45,7.821c23.066,-8.771 36.646,13.167 20.096,32.463c-11.08,12.916 -154.021,95.787 -178.571,103.525c-22.904,7.22 -33.55,5.779 -37.729,-5.109c-3.155,-8.225 7.05,-18.858 35.004,-36.479c16.629,-10.483 65.283,-43.071 123.591,-82.787c5.65,-3.846 -5.508,-38.446 -33.558,-104.055c-13.183,-30.833 -29.354,-79.295 -38.933,-116.666c-13.325,-51.979 -18.404,-65.679 -27.184,-73.3c-14.458,-12.559 -42.495,-12.879 -55.633,-0.642c-14.858,13.846 -18.271,27.854 -18.158,74.6c0.129,55.629 11.312,109.783 41.187,199.488c25.021,75.129 26.459,89.37 9.225,91.366c-8.341,0.967 -13.896,-2.283 -23.208,-13.583c-27.121,-32.9 -97.075,-184.433 -97.075,-210.275c-0,-19.258 -42.008,-23.958 -58.379,-6.533c-8.696,9.262 -9.754,14.108 -9.188,42.058c1.175,57.592 19.388,144.55 59.567,284.45c11.433,39.812 26.608,87.625 33.721,106.25c42.404,111.05 105.883,161.596 225.404,179.471c22.392,3.35 42.55,7.225 44.792,8.612c2.245,1.388 4.083,8.125 4.083,14.975c-0,13.096 -16.833,32.888 -27.971,32.888c-18.35,-0 23.496,60.841 80.896,117.621c67.412,66.687 130.346,114.008 205.471,154.5c27.487,14.816 96.208,44.545 102.966,44.545c0.625,0 1.138,-58.808 1.138,-130.687l-0,-130.688l-32.933,-19.137c-37.805,-21.963 -98.813,-77.988 -129.588,-118.996c-24.062,-32.067 -45.829,-71.208 -45.779,-82.325c0.021,-4.262 11.458,-23.687 25.417,-43.167c32.891,-45.9 53.279,-81.058 83.058,-143.233c30.987,-64.696 37.325,-84.458 37.325,-116.354c-0,-46.579 -23.788,-73.746 -64.575,-73.746c-29.638,0 -44.471,11.592 -95.288,74.479c-75.72,93.696 -90.625,122.084 -100.12,190.704c-5.884,42.513 -11.184,52.534 -26.784,50.655c-24.421,-2.946 -35.821,-55.484 -23.783,-109.6c7.637,-34.317 49.15,-120.955 89.058,-185.846l22.05,-35.863l-10.721,-80.804c-16.108,-121.412 -27.512,-168.842 -46.733,-194.354c-17.396,-23.096 -43.012,-31.408 -67.037,-21.75m1723.02,162.558c-68.712,16.892 -127.021,57.354 -173.883,120.654c-50.183,67.788 -74.325,146.225 -78.238,254.167c-5.479,151.154 36.796,274.463 120.746,352.188c119.717,110.841 299.696,98.45 418.759,-28.83c111.729,-119.441 146.587,-286.812 94.387,-453.237c-32.192,-102.642 -96.358,-180.679 -182.937,-222.488c-63.65,-30.737 -133.205,-38.591 -198.834,-22.454m-730.333,1.734c-58.854,11.395 -105.5,35.97 -152.6,80.404c-133.233,125.683 -169.075,366.141 -80.304,538.758c34.416,66.921 91.641,124.154 153.737,153.754c176.121,83.95 361.934,-20.658 422.404,-237.812c47.513,-170.629 15.642,-337.992 -84.704,-444.825c-65.208,-69.421 -172.583,-106.917 -258.533,-90.279m-7.775,100.529c-91.817,22.225 -168.121,112.483 -192.442,227.637c-3.525,16.688 -6.441,50.963 -6.479,76.171c-0.233,148.304 70.954,264.108 184.379,299.942c97.159,30.691 189.092,-5.121 249.546,-97.213c40.042,-60.987 59.183,-129.221 59.213,-211.062c0.037,-101.313 -31.85,-180.371 -97.521,-241.796c-55.804,-52.2 -124.9,-71.054 -196.696,-53.679m752.471,-0.579c-78.646,19.045 -147.475,88.375 -178.084,179.387c-15.845,47.104 -20.029,81.3 -17.562,143.446c3.921,98.812 29.667,163.871 88.45,223.508c48.496,49.2 92.879,68.363 158.333,68.363c133.642,-0 236.417,-110.725 256.129,-275.942c8.609,-72.158 -6.241,-149.937 -40.291,-211.042c-8.175,-14.666 -29.042,-41.508 -46.375,-59.65c-47.829,-50.062 -104.592,-74.583 -170.709,-73.745c-15.358,0.195 -37.808,2.75 -49.891,5.675m-679.259,139.091c-29.316,10.488 -49.229,27 -70.55,58.496c-57.375,84.763 -49.033,225.504 17.417,293.875c34.733,35.738 78.067,47.638 124.413,34.167c33.616,-9.775 72.987,-47.092 92.279,-87.471c42.725,-89.421 33.191,-198.4 -22.938,-262.167c-33.533,-38.096 -93.375,-53.8 -140.621,-36.9m717.463,2.204c-23.092,7.567 -52.183,28.142 -67.963,48.063c-57.195,72.217 -60.675,201.358 -7.55,280.321c21.513,31.979 46.075,51.204 76.855,60.15c29.57,8.6 53.516,5.579 87.412,-11.021c59.817,-29.288 96.829,-103.204 97.025,-193.754c0.171,-79.954 -36.937,-149.913 -93.679,-176.604c-25.329,-11.913 -67.563,-15.196 -92.1,-7.155m-642.071,91.217c-20.179,22.158 -24.058,53.413 -9.575,77.167c16.675,27.35 40.704,26.741 52.433,-1.325c11.075,-26.509 6.5,-59.613 -10.604,-76.717c-11.054,-11.054 -21.65,-10.767 -32.254,0.875m701.775,2.092c-27.333,30.2 -16.479,92.829 16.646,96.071c15.237,1.487 24.692,-9.53 30.55,-35.6c9.462,-42.113 -24.467,-85.588 -47.196,-60.471m-1470.55,66.762c-10.787,22.288 -30.896,62.084 -44.683,88.438c-13.792,26.354 -25.088,49.791 -25.104,52.083c-0.025,4.304 43.666,42.642 74.15,65.058l17.329,12.746l-0,-129.525c-0,-71.241 -0.471,-129.483 -1.042,-129.425c-0.571,0.059 -9.866,18.342 -20.65,40.625m2400.86,375.067c-37.63,20.562 -52.225,78.996 -30.938,123.854c3.821,8.058 21.867,31.029 40.092,51.042c71.583,78.6 124.296,161.266 144.166,226.096c36.171,117.995 6.525,250.966 -74.295,333.245c-30.121,30.667 -69.842,55.763 -119.338,75.409c-44.5,17.662 -56.383,25.575 -67.137,44.712c-11.717,20.85 -12.346,57.967 -1.392,82.092c8.446,18.583 42.283,50.746 57.387,54.533c7.767,1.95 17.975,-4.596 52.138,-33.425c42.783,-36.112 57.504,-42.666 69.317,-30.854c17.458,17.458 -16.038,63.658 -135.642,187.108c-52.088,53.763 -52.175,53.884 -44.317,62.734c15.717,17.7 42.359,25.987 82.875,25.775c159.013,-0.825 302.996,-137.767 374.871,-356.529c88.483,-269.33 51.575,-510.575 -106.725,-697.609c-42.271,-49.946 -94.658,-89.533 -137.158,-103.65c-16.921,-5.621 -20.571,-8.579 -20.571,-16.683c-0,-5.417 -4.404,-14.967 -9.788,-21.229c-13.191,-15.334 -51.32,-18.767 -73.545,-6.621m-989.584,96.971c-134.033,58.862 -294.429,79.091 -443.75,55.966c-25.65,-3.97 -69.896,-15.57 -106.954,-28.037c-61.679,-20.746 -63.471,-21.088 -74.146,-14.096c-23.304,15.271 -23.821,48.308 -1.05,67.563c20.025,16.937 59.096,33.862 105.104,45.533c22.575,5.729 41.492,10.858 42.038,11.408c0.546,0.546 3.1,16.929 5.671,36.404c13.566,102.709 44.358,173.117 98.741,225.784c75.605,73.221 188.713,89.012 282.65,39.462c51.375,-27.096 106.488,-90.596 137.288,-158.183c29.533,-64.813 48.158,-151.571 48.158,-224.358c0,-44.405 -4.75,-60.146 -21.737,-72.042c-13.371,-9.367 -20.946,-7.833 -72.013,14.596m-926.354,199.854c-56.892,14.904 -103.492,43.212 -150.729,91.575c-45.529,46.612 -68.742,89.104 -88.2,161.462c-12.75,47.417 -12.721,143.842 0.054,190.592c50.054,183.142 215.5,286.096 389.025,242.075c21.696,-5.5 49.592,-15.1 61.992,-21.329c118.329,-59.438 191.296,-181.779 191.296,-320.746c-0,-169.871 -109.971,-312.987 -265.892,-346.033c-39.525,-8.379 -100.454,-7.313 -137.546,2.404m818.021,8.625c-49.867,7.108 -96.35,29.012 -133.367,62.842c-24.296,22.204 -50.512,61.354 -54.525,81.416c-2.316,11.588 -1.166,12.884 19.8,22.267c19.421,8.692 28.638,9.975 72.259,10.054c45.258,0.083 52.191,-0.937 73.108,-10.746c29.725,-13.941 50.437,-32.329 71.712,-63.658c18.03,-26.546 46.321,-92.8 41.03,-96.071c-3.725,-2.3 -54.871,-10.829 -60.85,-10.146c-2.292,0.263 -15.417,2.084 -29.167,4.042m1104.17,52.479c-28.6,3.754 -331.771,56.896 -414.584,72.667c-49.271,9.387 -93.762,19.679 -98.871,22.875c-5.108,3.196 -12.52,11.887 -16.475,19.312c-6.466,12.159 -7.704,44.246 -12.429,321.838c-3.783,222.296 -3.987,312.262 -0.733,322.421c7.192,22.437 30.471,44.891 56.958,54.933c29.663,11.246 100.138,15.571 135.092,8.292l23.958,-4.988l0.004,-94.496c0.005,-51.971 1.25,-194.483 2.771,-316.691l2.763,-222.196l-28.809,2.762c-54.225,5.192 -139.92,-22.25 -146.079,-46.771c-4.975,-19.829 4.725,-22.275 77.413,-19.537c61.579,2.321 67.587,1.821 119.021,-9.904c29.791,-6.792 117.916,-25.104 195.833,-40.696c77.917,-15.592 142.321,-28.829 143.121,-29.417c2.254,-1.65 -21.209,-43.379 -23.992,-42.671c-1.354,0.342 -8.087,1.363 -14.962,2.267m-1901.29,22.213c-38.842,10.175 -65.421,24.729 -96.462,52.82c-84.038,76.05 -116.113,201.659 -78.18,306.167c15.109,41.621 30.434,64.983 65.359,99.629c47.604,47.221 101.658,70.446 163.971,70.446c107.408,0 210.416,-83.704 238.229,-193.583c8.258,-32.613 8.254,-109.404 -0.004,-142c-17.93,-70.771 -72.946,-143.929 -131.3,-174.592c-51.43,-27.025 -106.142,-33.421 -161.613,-18.887m37.617,62.875c-11.334,4.191 -24.646,25.104 -30.546,47.983c-4.296,16.654 -5.075,17.275 -23.863,19.092c-42.754,4.129 -67.562,27.037 -76.062,70.245l-4.613,23.442l-22.237,7.008c-21.467,6.767 -43.592,25.746 -43.592,37.392c0,14.392 26.934,34.983 54.346,41.546c8.996,2.154 11.363,6.183 15.667,26.633c10.366,49.271 38,76.179 78.229,76.179l17.308,0l9.246,25.355c13.371,36.675 26.313,47.02 48.263,38.595c8.245,-3.162 26.841,-40.887 26.9,-54.575c0.037,-8.229 2.204,-9.387 17.75,-9.466c41.47,-0.213 70.404,-27.317 79.337,-74.321l4.788,-25.196l19.92,-4.779c23.838,-5.721 44.913,-23.821 44.913,-38.579c-0,-13.354 -18.896,-29.521 -45.583,-39c-19.73,-7.009 -20.221,-7.604 -22.059,-26.704c-4.133,-43.013 -30.621,-68.767 -75.487,-73.4l-22.346,-2.305l-4.792,-20.75c-8.241,-35.708 -24.933,-52 -45.487,-44.395m1778.25,55.487l-160.417,33.629l-2.55,154.163c-1.4,84.787 -2.804,223.104 -3.125,307.366l-0.575,153.213l16.2,-8.267c33.95,-17.321 112.3,-86.746 102.125,-90.496c-11.825,-4.358 -33.858,-24.12 -44.412,-39.837c-20.15,-30.004 -29.496,-69.096 -27.034,-113.067c4.559,-81.296 25.938,-108.829 123.105,-158.533c70.9,-36.267 100.416,-59.592 126.625,-100.063c22.529,-34.779 37.72,-84.195 37.891,-123.241c0.246,-55.129 17.104,-53.638 -167.833,-14.867m-1800,77.879c-43.867,17.492 -62.067,83.509 -35.067,127.179c15.738,25.459 34.634,36.596 62.084,36.596c27.396,0 50.7,-12.116 66.604,-34.629c10.125,-14.333 12.662,-22.671 13.975,-45.871c2.154,-38.154 -12.438,-66.837 -41.767,-82.1c-12.841,-6.679 -50.346,-7.35 -65.829,-1.175m979.163,78.384c-33.938,10.362 -59.6,31.483 -70.646,58.145l-5.446,13.15l-130.296,-2.833c-148,-3.225 -170.442,-0.837 -199.317,21.188c-9.37,7.145 -22.7,22.154 -29.625,33.354c-11.929,19.3 -12.587,22.666 -12.587,64.441c-0,40.25 0.962,45.705 11.087,62.825c14.775,24.992 30.43,39.263 55.58,50.671c20.116,9.121 25.825,9.504 166.02,11.084l145.192,1.633l6.263,15.179c20.412,49.492 64.166,70.379 124.208,59.288c38.375,-7.092 59.867,-22.55 76.012,-54.684c11.525,-22.941 14.221,-34.308 18.238,-76.912c6.233,-66.096 2.679,-164.134 -6.929,-191.154c-10.388,-29.196 -36.142,-54.338 -64.138,-62.596c-23.454,-6.917 -65.479,-8.317 -83.616,-2.779m5.362,92.979c-4.725,5.154 -12.471,17.112 -17.217,26.571c-4.741,9.454 -11.983,18.562 -16.091,20.237c-4.109,1.675 -69.346,3.842 -144.971,4.817c-166.638,2.141 -179.163,3.2 -192.225,16.262c-14.446,14.446 -13.688,40.384 1.625,55.696c11.367,11.367 12.225,11.517 81.917,14.263c38.737,1.529 111.466,2.779 161.62,2.779c91.034,-0 91.209,0.016 101.325,10.133c5.809,5.808 11.313,17.529 12.905,27.471c4.129,25.829 19.17,41.562 39.729,41.562c23.291,0 30.854,-5.362 39.608,-28.079c6.467,-16.779 7.646,-32.254 7.654,-100.391l0.009,-80.555l-11.692,-10.07c-16.292,-14.038 -51.621,-14.421 -64.196,-0.696m-817.433,605.346c-0.442,66.225 0.191,73.237 6.833,75.391c27.175,8.817 61.004,29.179 75.117,45.213c23.6,26.808 32.621,61.579 19.408,74.796c-11.329,11.325 -27.437,7.462 -59.225,-14.196c-39.012,-26.584 -55.421,-31.138 -111.312,-30.892c-52.988,0.233 -93.721,9.775 -143.288,33.563c-70.733,33.945 -127.583,119.241 -117.225,175.887c5.808,31.746 12.496,35.254 84.663,44.404c127.325,16.142 406.095,10.279 527.008,-11.087c27.933,-4.934 34.258,-10.659 34.258,-31.009c0,-18.141 -20.108,-110.566 -37.429,-172.033c-21.017,-74.579 -24.258,-93.646 -30.029,-176.633c-4.158,-59.754 -5.833,-69.792 -11.65,-69.792c-11.213,0 -192.138,-12.179 -215.225,-14.492l-21.421,-2.141l-0.483,73.021m1011.03,-63.421c-54.425,2.204 -98.958,5.391 -98.958,7.091c-0,2.709 16.845,86.605 29.9,148.9l4.583,21.875l53.437,0c43.721,0 57.596,1.559 76.334,8.567c34.954,13.079 54.341,41.108 45.637,65.975c-5.104,14.575 -17.204,15.621 -46.371,4.021c-20.183,-8.029 -31.454,-9.5 -71.854,-9.363c-82.475,0.284 -142.641,23.055 -192.1,72.713c-28.258,28.375 -45.908,58.658 -53.266,91.408c-5.738,25.542 -0.63,35.434 21.141,40.917c114.179,28.75 507.634,31.379 565.479,3.779c15.667,-7.475 16.621,-34.229 2.642,-74.237c-20.792,-59.505 -51.2,-100 -118.146,-157.325c-40.579,-34.75 -51.754,-62.188 -67.696,-166.246l-9.733,-63.542l-21.037,0.729c-11.567,0.404 -65.563,2.534 -119.992,4.738"/></svg>