<?xml version="1.0" encoding="UTF-8" standalone="no"?><!DOCTYPE svg PUBLIC "-//W3C//DTD SVG 1.1//EN" "http://www.w3.org/Graphics/SVG/1.1/DTD/svg11.dtd"><svg width="100%" height="100%" viewBox="0 0 4267 4267" version="1.1" xmlns="http://www.w3.org/2000/svg" xmlns:xlink="http://www.w3.org/1999/xlink" xml:space="preserve" xmlns:serif="http://www.serif.com/" style="fill-rule:evenodd;clip-rule:evenodd;stroke-linejoin:round;stroke-miterlimit:2;"><path d="M2802.31,430.867l2.604,-33.713l50.666,9.675c67.709,12.933 121.213,25.621 140.413,33.304c14.941,5.979 17.779,9.88 26.85,36.95c2.046,6.1 -59.15,645.317 -62.313,650.888c-0.279,0.487 -10.729,-1.833 -23.229,-5.158c-64.971,-17.292 -107.537,2.112 -128.696,58.662c-12.595,33.667 -19.495,100.537 -13.25,128.446c7.813,34.917 20.213,45.883 77.559,68.612l50,19.813l1.229,20.762c1.025,17.367 -48.267,369.28 -56.271,401.725c-3.754,15.213 -45.446,54.175 -74.496,69.617l-25.146,13.371l-10.77,-21.704c-15.363,-30.95 -36.888,-54.05 -63.205,-67.83l-22.816,-11.945l1.833,-18.88c1.008,-10.383 6.504,-62.004 12.217,-114.712c26.929,-248.492 47.641,-458.95 78.733,-800c24.337,-267.013 29.258,-323.588 38.087,-437.883Z" style="fill:#6b757c;"/><path d="M348.958,446.167c4.009,-2.338 14.571,-4.305 23.467,-4.375c13.554,-0.105 19.033,2.737 33.858,17.583c20.017,20.046 28.225,42.317 64.696,175.525l20.675,75.517l-11.125,8.333c-6.117,4.583 -23.187,17.442 -37.933,28.579c-22.434,16.942 -27.696,19.321 -32.259,14.584c-9.379,-9.746 -75.479,-227.888 -79.454,-262.221c-2.904,-25.05 3.934,-45.288 18.075,-53.525Z" style="fill:#418abe;"/><path d="M3054.17,1793.79c32.525,-8.934 101.625,-5.767 137.471,6.3c38.941,13.112 56.833,23.145 80.137,44.945c31.713,29.663 42.817,51.517 42.763,84.134c-0.08,44.462 -22.296,85.437 -78.596,144.946c-49.838,52.683 -79.55,65.75 -104.634,46.02c-10.995,-8.65 -11.4,-10.275 -9.587,-38.541c1.512,-23.492 5.471,-37.134 19.429,-66.917c9.642,-20.571 22.879,-45.883 29.412,-56.25c18.03,-28.596 19.121,-35.787 7.238,-47.671c-16.358,-16.358 -25.379,-10.471 -56.646,36.967c-32.754,49.696 -52.333,95.662 -60.308,141.575c-6.342,36.521 -12.204,44.037 -34.325,44.037c-31.583,0 -45.388,-30.412 -38.546,-84.925c5.85,-46.637 17.85,-78.487 48.333,-128.283c16.046,-26.208 15.759,-38.296 -1.083,-45.971c-14.937,-6.804 -27.142,3.584 -51.012,43.409c-28.225,47.095 -36.992,68.32 -50.996,123.45c-6.604,25.995 -14.196,49.9 -16.871,53.125c-7.258,8.741 -31.588,7.287 -41.346,-2.471c-6.817,-6.817 -8.321,-13.838 -8.271,-38.542c0.146,-72.892 32.125,-151.796 81.546,-201.217c23.667,-23.666 66.933,-47.416 105.892,-58.12Z" style="fill:#418abe;"/><path d="M2879.63,1193.25c5.125,-5.454 12.625,-9.917 16.667,-9.917c15.608,0 62.221,13 97.246,27.117c136.579,55.063 232.387,157.846 265.066,284.367c10.959,42.437 14.588,113.279 8.492,165.696c-4.542,39.016 -13.941,83.55 -18.633,88.237c-1.129,1.129 -13.904,-2.625 -28.388,-8.342c-14.483,-5.72 -34.771,-11.625 -45.083,-13.125c-10.313,-1.5 -23.6,-3.65 -29.529,-4.77l-10.784,-2.046l5.909,-30.025c8.383,-42.613 4.75,-124.663 -7.234,-163.359c-18.158,-58.633 -63.345,-118.75 -119.445,-158.908c-26.83,-19.204 -74.505,-42.833 -113.484,-56.242c-38.808,-13.354 -42.1,-16.85 -42.1,-44.7c0,-29.829 8.917,-60.8 21.3,-73.983Z" style="fill:#418abe;"/><path d="M483.333,367.871c12.8,-6.446 33.075,-6.838 48.688,-0.938c28.571,10.792 53.166,49.63 67.412,106.43c8.071,32.187 10.429,46.416 23.65,142.695c8.654,63.021 14.33,76.175 39.921,92.6c17.488,11.221 28.663,22.942 28.663,30.059c-0,0.971 -10.992,8.55 -24.425,16.841c-13.434,8.292 -31.18,22.555 -39.438,31.692c-30.083,33.3 -50.067,89.463 -40.608,114.129c6.196,16.167 13.504,12.179 22.25,-12.141c4.054,-11.267 10.366,-28.621 14.029,-38.563c8.137,-22.083 49.654,-67.388 78.879,-86.087c20.163,-12.896 21.808,-15.288 28.292,-41.088c18.825,-74.958 57.408,-157.983 84.446,-181.721c26.05,-22.871 63.475,-18.7 80.895,9.013c12.621,20.075 8.471,44.708 -17.304,102.654c-29.416,66.125 -42.725,106.654 -53.412,162.666c-15.079,78.992 -37.546,129.442 -73.096,164.155l-22.904,22.362l21.541,33.058c27.271,41.855 75.096,89.609 117.671,117.5c32.017,20.975 89.313,45.98 126.896,55.376l18.3,4.575l-2.95,56.904c-1.625,31.295 -3.796,57.745 -4.821,58.775c-6.154,6.154 -117.45,-34.421 -178.487,-65.071c-69.196,-34.746 -145.167,-96.813 -187.738,-153.379c-22.616,-30.046 -23.412,-31.967 -20.712,-49.975c1.546,-10.3 2.125,-18.713 1.296,-18.7c-0.834,0.012 -12.767,1.908 -26.517,4.216c-66.013,11.067 -123.05,2.088 -168.342,-26.504c-48.562,-30.662 -112.508,-106.742 -146.787,-174.654c-59.384,-117.638 -86.034,-254.383 -55.525,-284.892c12.341,-12.341 21.854,-12.433 39.741,-0.375c21.363,14.396 33.75,36.513 60.017,107.184c24.538,66.008 44.454,109.829 52.054,114.525c2.342,1.45 4.259,11.583 4.259,22.525c-0,10.941 1.133,21.025 2.516,22.412c1.384,1.383 14.725,-7.842 29.642,-20.496c44.458,-37.716 87.562,-61.571 183.467,-101.546c30.416,-12.679 -18.121,-22.395 -50.259,-10.062c-8.204,3.15 -11.783,-8.563 -30.016,-98.192c-19.155,-94.166 -28.625,-128.896 -44.73,-164l-13.112,-28.583l8.121,-15.067c4.466,-8.287 12.808,-17.429 18.537,-20.312Z" style="fill:#418abe;"/><path d="M1503.64,699.533c76.825,-16.045 160.5,57.029 182.287,159.192c29.058,136.275 -62.7,286.617 -175.508,287.567c-73.879,0.621 -131.671,-50.659 -153.813,-136.475c-9.462,-36.679 -8.708,-104.429 1.613,-144.779c21.608,-84.488 80.966,-152.046 145.421,-165.505Zm43.154,117.613c-22.888,11.329 -44.284,36.492 -56,65.858c-13.604,34.096 -13.588,101.971 0.037,131.529c12.121,26.292 23.563,38.721 44.588,48.425c51.504,23.771 110.308,-12.054 129.791,-79.075c9.692,-33.341 8.65,-84.179 -2.32,-113.308c-20.259,-53.767 -69.567,-76.458 -116.096,-53.429Z" style="fill:#fff;"/><path d="M1579.41,876.825c20.8,-22.142 49.759,-7.629 49.759,24.938c-0,37.375 -34.267,57.962 -54.271,32.612c-11.663,-14.779 -9.475,-42.658 4.512,-57.55Z" style="fill:#fff;"/><path d="M2221.14,873.479c6.262,-7.962 12.475,-10.979 22.612,-10.979c18.879,0 31.25,15.671 31.25,39.583c0,34.667 -30.004,51.992 -52.858,30.525c-12.959,-12.175 -13.488,-43.262 -1.004,-59.129Z" style="fill:#fff;"/><path d="M2120.38,697.067c19.95,-8.413 28.884,-9.659 61.1,-8.513c31.446,1.121 41.863,3.354 62.5,13.4c35.329,17.196 71.955,55.171 90.546,93.879c19.375,40.346 24.792,64.309 24.967,110.417c0.392,103.9 -61.754,202.737 -147.471,234.533c-69.887,25.921 -131.512,11.359 -182.479,-43.125c-40.083,-42.85 -57.738,-101.27 -53.35,-176.562c3.95,-67.775 27.75,-126.554 69.925,-172.7c23.287,-25.479 39.429,-36.638 74.262,-51.329Zm79.138,112.85c-54.209,19.371 -85.767,77.796 -82.013,151.837c2.6,51.296 19.884,83.554 54.2,101.15c21.488,11.021 61.613,10.696 85.125,-0.687c62.225,-30.121 89.438,-133.367 53.671,-203.621c-11.958,-23.488 -23.8,-34.771 -48.004,-45.746c-21.475,-9.738 -41.354,-10.663 -62.979,-2.933Z" style="fill:#fff;"/><path d="M2016.67,1441.2c25.845,-5.675 48.058,-7.433 82.208,-6.513c25.738,0.692 48.063,2.525 49.612,4.075c5.867,5.871 -13.974,39.155 -36.487,61.213c-31.862,31.221 -61.979,48.313 -103.729,58.871c-41.679,10.542 -79.492,8.941 -122.517,-5.184c-32.616,-10.708 -34.458,-16.679 -12.616,-40.858c29.066,-32.175 80.275,-57.721 143.529,-71.604Z" style="fill:#ed3837;"/><path d="M1296.87,1565.3c9.388,-4.1 32.127,-3.654 39.914,0.781c17.782,10.134 26.63,29.179 25.324,54.513c-0.796,15.405 -2.335,20.941 -8.474,30.458c-9.643,14.948 -23.773,22.994 -40.383,22.994c-16.644,-0 -28.101,-7.396 -37.643,-24.3c-16.37,-28.997 -5.335,-72.831 21.262,-84.446Z" style="fill:#979fa4;"/><path d="M1324.01,1639.58c-6.808,3.419 -15.089,3.699 -22.421,0.033l-8.412,-6.405l-3.51,-5.333l-2.197,-6.875l0.531,-10.635l4.298,-8.686l7.663,-6.619l5.539,-2.27l8.079,-0.869c-1.215,-0.059 -3.412,-0.001 -5.838,0.596c13.397,-3.299 26.953,4.9 30.251,18.298c2.928,11.891 -3.201,23.906 -13.983,28.765Zm-5.412,1.592l-7.268,0.699c2.755,0.123 5.175,-0.174 7.268,-0.699Zm16.374,-35.405c-1.185,-3 -3.989,-7.359 -11.022,-10.875c4.921,2.46 8.676,6.33 11.022,10.875Z" style="fill:#6b757c;"/><path d="M1287.25,1435c33.633,-9.65 66.806,-5.404 97.989,12.541c35.381,20.359 68.739,68.936 79.61,115.927c5.007,21.644 5.009,72.633 0.002,94.287c-16.863,72.959 -79.319,128.538 -144.443,128.538c-37.782,-0 -70.556,-15.422 -99.419,-46.776c-21.176,-23.004 -30.468,-38.517 -39.628,-66.153c-23,-69.392 -3.552,-152.795 47.401,-203.292c18.822,-18.652 34.937,-28.316 58.488,-35.072Zm22.807,41.748c-6.871,2.783 -14.943,16.669 -18.52,31.861c-2.605,11.058 -3.077,11.47 -14.468,12.676c-25.923,2.742 -40.965,17.953 -46.119,46.643l-2.796,15.565l-13.483,4.654c-13.016,4.493 -26.431,17.095 -26.431,24.827c0,9.556 16.33,23.229 32.951,27.586c5.454,1.431 6.889,4.106 9.499,17.685c6.286,32.715 23.04,50.582 47.432,50.582l10.494,-0l5.606,16.835c8.107,24.352 15.954,31.221 29.263,25.627c5,-2.1 16.275,-27.149 16.31,-36.237c0.023,-5.464 1.336,-6.233 10.762,-6.286c25.145,-0.141 42.688,-18.138 48.104,-49.348l2.903,-16.73l12.078,-3.173c14.453,-3.799 27.232,-15.817 27.232,-25.617c-0,-8.867 -11.457,-19.601 -27.638,-25.895c-11.963,-4.654 -12.261,-5.049 -13.375,-17.732c-2.506,-28.56 -18.566,-45.66 -45.77,-48.737l-13.548,-1.53l-2.906,-13.777c-4.997,-23.71 -15.117,-34.528 -27.58,-29.479Z" style="fill:#979fa4;"/><path d="M1639.58,346.154c192.725,-8.296 503.934,-3.146 739.584,12.242c135.145,8.825 315.104,26.067 328.15,31.442c16.158,6.658 21.85,19.441 21.85,49.058c-0,85.617 -115.721,1311.97 -127.313,1349.19c-1.337,4.304 -8.746,7.833 -19.983,9.516c-21.754,3.263 -62.592,22.146 -80.388,37.171c-7.208,6.079 -14.358,11.058 -15.895,11.058c-1.538,0 -7.205,-5.241 -12.596,-11.65c-15.3,-18.183 -49.45,-34.729 -76.796,-37.208l-24.038,-2.179l1.854,-19.304c4.463,-46.459 -22.866,-86.829 -64.841,-95.784c-28.925,-6.166 -44.275,-5.941 -71.275,1.063c-15.796,4.1 -26.421,4.625 -36.617,1.808c-8.133,-2.246 -68.016,-3.391 -138.029,-2.646c-113.567,1.209 -124.754,1.975 -136.996,9.384c-26.15,15.816 -42.283,50.296 -45.946,98.183c-3.891,50.904 12.592,80.196 53.259,94.638c17.421,6.191 20.566,8.933 20.379,17.8c-0.317,15.25 -10.608,70.612 -13.696,73.704c-3.071,3.071 -212.942,-12.038 -334,-24.042c-110.608,-10.971 -261.792,-30.404 -338.188,-43.475c-124.833,-21.358 -156.179,-35.192 -178.387,-78.733c-11.833,-23.204 -12.688,-28.104 -14.171,-81.25c-6.9,-247.425 60.142,-1123.09 99.346,-1297.61c9.283,-41.32 25.571,-59.291 61.354,-67.691c53.346,-12.521 218.663,-26.738 403.379,-34.688Zm-183.333,126.342c-27.042,8.55 -43.971,18.908 -67.9,41.537c-26.367,24.938 -39.35,47.921 -37.55,66.484c1.842,19 14.55,19.212 44.479,0.737c49.684,-30.666 111.813,-41.179 175.359,-29.675c39.55,7.159 46.029,5.075 46.029,-14.796c-0,-26.216 -22.913,-51.37 -58.1,-63.783c-21.763,-7.679 -78.746,-7.958 -102.317,-0.504Zm36.429,181.917c-53.066,10.462 -114.004,62.112 -146.121,123.85c-27.779,53.395 -36.166,91.954 -35.995,165.487c0.133,57.45 1.083,65.192 11.766,95.792c30.717,88.016 93.684,144.554 167.904,150.762c56.938,4.767 107.734,-16.371 155.817,-64.837c36.383,-36.667 61.592,-81.013 75.387,-132.604c11.509,-43.038 12.65,-120.575 2.351,-159.53c-32.851,-124.212 -129.417,-198.975 -231.109,-178.92Zm-218.105,725.266c-34.495,9.896 -62.75,28.693 -91.391,60.805c-27.605,30.95 -41.679,59.165 -53.477,107.21c-7.731,31.484 -7.713,95.509 0.033,126.551c30.349,121.605 130.662,189.965 235.874,160.736c13.154,-3.652 30.068,-10.027 37.586,-14.163c71.746,-39.466 115.987,-120.699 115.987,-212.972c0,-112.793 -66.678,-207.821 -161.216,-229.763c-23.964,-5.564 -60.907,-4.856 -83.396,1.596Zm846.259,-735.5c-87.912,23.521 -166.675,127.488 -183.204,241.838c-10.446,72.241 -2.317,132.5 25.492,188.983c37.958,77.113 106.337,120.833 188.962,120.833c61.675,0 111.979,-22.233 160.417,-70.9c36.504,-36.675 54.767,-65.808 71.104,-113.429c28.992,-84.504 23.184,-174.921 -16.129,-251.087c-18.396,-35.646 -64.683,-83.829 -95.529,-99.446c-45.746,-23.158 -103.375,-29.563 -151.113,-16.792Zm-516.754,591.471c-5.192,13.658 2.429,29.058 23.563,47.613c15.304,13.437 52.766,33.283 62.983,33.362c3.492,0.029 5.225,7.246 5.262,21.917c0.15,60.275 30.563,145.837 66.575,187.304c22.305,25.683 71.892,58.542 104.93,69.529c117.687,39.142 240.22,-3.887 322.425,-113.229c33.795,-44.954 68.104,-121.683 75.016,-167.767c2.846,-18.987 2.867,-19.008 10.838,-10.45c9.525,10.221 13.254,10.642 20.196,2.279c3.3,-3.975 4.366,-12.658 2.9,-23.595c-6.509,-48.509 -64.605,-72.434 -106.155,-43.713c-47.058,32.525 -182.241,61.1 -289.05,61.1c-102.87,0 -204.35,-24.342 -259.404,-62.217c-22.966,-15.804 -34.646,-16.425 -40.079,-2.133Zm532.054,-779.679c-37.675,10.125 -73.633,43.887 -73.633,69.133c-0,20.421 6.821,22.209 62.1,16.263c78.1,-8.396 139.15,4.375 201.946,42.25c34.75,20.958 45.846,20.646 47.666,-1.338c2.684,-32.475 -42.4,-88.683 -87.741,-109.391c-48.613,-22.2 -106.463,-28.713 -150.338,-16.917Z" style="fill:#979fa4;"/><path d="M3029.98,2990.47c35.246,-6.738 111.134,-0.917 114.867,8.812c2.463,6.413 -6.133,96.871 -10.217,107.505c-1.787,4.658 7.888,5.712 52.525,5.712c64.692,0 63.542,-1.004 58.388,50.992c-4.475,45.166 -7.584,56.8 -16.446,61.541c-4.246,2.275 -30.342,4.134 -57.992,4.134c-27.65,-0 -50.275,0.466 -50.279,1.041c0,0.575 -5.629,42.292 -12.508,92.709c-18.104,132.658 -19.4,159.116 -8.621,176.145c11.679,18.45 25.187,22.7 66.967,21.071l35.416,-1.383l-0.212,42.175c-0.334,66.171 -7.192,71.446 -97.959,75.367c-65.391,2.82 -91.416,-3.442 -118.662,-28.559c-24.117,-22.225 -35.25,-51.65 -35.25,-93.141c-0,-24.959 15.417,-175.446 27.537,-268.821l2.442,-18.813l-19.254,1.534c-11.283,0.895 -21.804,-0.584 -25.408,-3.575c-7.446,-6.18 -7.988,-32.23 -1.463,-70.409c7.029,-41.112 7.854,-42.008 38.842,-42.008l26.571,-0l2.354,-15.625c1.296,-8.592 4.529,-31.563 7.187,-51.042c6.109,-44.787 9.284,-53.091 21.175,-55.362Z" style="fill:#418abe;"/><path d="M2757.34,2936.46c5.504,-6.22 14.199,-7.291 59.179,-7.291c38.408,-0 54.87,1.571 60.637,5.787c7.708,5.634 7.183,11.234 -20.15,215.625c-15.437,115.409 -35.45,267.834 -44.479,338.717c-12.063,94.725 -18.142,130.608 -22.95,135.417c-9.375,9.375 -115.467,9.62 -124.454,0.287c-5.25,-5.454 -4.259,-18.696 7.816,-104.167c7.613,-53.854 20.65,-150.416 28.98,-214.583c8.325,-64.167 17.775,-135.417 20.995,-158.333c3.217,-22.917 10.83,-78.229 16.913,-122.917c7.404,-54.379 13.196,-83.662 17.512,-88.542Z" style="fill:#418abe;"/><path d="M2114.88,3119.05c5.321,-5.321 17.225,-6.534 63.542,-6.484c31.35,0.038 59.667,1.755 62.933,3.821c5.113,3.238 4.942,10.588 -1.246,53.063c-19.008,130.437 -31.77,233.75 -31.75,256.987c0.03,34.896 6.65,56.075 22.475,71.9c40.98,40.979 135.721,21.171 166.038,-34.72c12.896,-23.767 15.304,-36.459 36.35,-191.342c22.633,-166.604 20.362,-155.3 31.783,-158.167c17.621,-4.421 117.534,0.092 122.996,5.558c3.988,3.992 1.346,32.075 -12.358,131.25c-16.909,122.334 -46.271,350.292 -46.409,360.25c-0.037,2.7 -3.012,7.855 -6.612,11.459c-5.296,5.291 -17.117,6.546 -61.667,6.546c-37.316,-0 -56.737,-1.617 -60.121,-5c-6.037,-6.038 -6.516,-27.963 -0.937,-42.646c5.537,-14.563 1.987,-13.484 -18.846,5.716c-37.162,34.255 -85.187,50.455 -150.283,50.696c-70.517,0.259 -96.788,-8.433 -128.725,-42.579c-25.813,-27.591 -36.371,-52.566 -38.559,-91.187c-1.733,-30.696 10.834,-141.813 34.621,-306.042c5.625,-38.846 10.229,-71.054 10.229,-71.579c0,-0.521 2.946,-3.896 6.546,-7.5Z" style="fill:#418abe;"/><path d="M1687.75,3108.49c36.05,-4.946 99.146,-0.996 136.517,8.541c57,14.55 88.704,39.15 110.025,85.388c14.237,30.87 12.746,96.179 -4.684,205.033c-13.162,82.179 -13.837,105.592 -3.25,112.146c2.688,1.666 12.388,4.033 21.555,5.258c13.579,1.817 16.925,4.058 18.066,12.121c2.092,14.783 -7.725,78.221 -13.254,85.637c-9.854,13.234 -81.029,19.421 -117.554,10.225c-21.05,-5.3 -42.408,-26.295 -46.242,-45.454l-2.383,-11.933l-21.65,16.342c-64.921,49.016 -161.808,62.316 -229.483,31.5c-54.042,-24.609 -78.6,-82.725 -64.771,-153.292c14.658,-74.813 65.858,-126.433 146.537,-147.758c48.679,-12.863 139.254,-6.475 183.859,12.97c6.533,2.85 7.291,0.292 7.291,-24.558c0,-55.817 -28.471,-79.929 -99.566,-84.325c-41.417,-2.562 -81.071,5.021 -116.696,22.313c-16.421,7.97 -24.288,9.808 -29.075,6.787c-15.484,-9.767 -13.359,-54.621 4.25,-89.662c14.021,-27.909 57.687,-48.663 120.508,-57.28Zm-3.654,299.946c-34.546,5.029 -59.492,19.709 -70.558,41.521c-26.296,51.829 3.241,87.175 68.92,82.475c33.525,-2.4 75.559,-19.65 90.159,-37.004c8.987,-10.683 19.046,-49.475 19.046,-73.463c-0,-14.466 -54.267,-21.291 -107.567,-13.529Z" style="fill:#418abe;"/><path d="M931.833,2912.47c64.492,-4.35 89.271,-2.405 97.525,7.666c3.542,4.321 11.688,32.963 18.1,63.655c6.417,30.687 30.067,137.358 52.559,237.045c22.496,99.688 43.254,192.084 46.129,205.325c2.929,13.471 7.225,23.446 9.75,22.646c4.85,-1.537 50.962,-106.754 121.821,-277.971c90.837,-219.491 101.562,-243.929 110.191,-251.041c7.575,-6.242 18.038,-7.292 72.7,-7.292c62.817,-0 85.225,3.408 85.225,12.967c0,2.662 -14.837,35.987 -32.966,74.062c-34.813,73.088 -151.621,326.429 -227.746,493.946c-50.421,110.954 -57.108,122.675 -74.858,131.212c-16.655,8.013 -133.063,9.009 -146.625,1.259c-16.467,-9.413 -7.7,20.867 -128.484,-443.792c-59.85,-230.242 -65.241,-253.854 -59.287,-259.808c4.762,-4.763 20.029,-7.459 55.966,-9.879Z" style="fill:#418abe;"/><path d="M3439.43,2262.68c36.967,-4.833 48.13,-4.821 74.642,0.079c34.846,6.442 58.317,17.8 81.396,39.388l20.396,19.079l2.85,-16.85c1.562,-9.267 6.266,-21.075 10.454,-26.238c7.191,-8.879 10.562,-9.383 61.987,-9.325c36.859,0.046 56.009,1.688 59.417,5.096c3.933,3.934 1.6,28.979 -10.658,114.521c-8.63,60.217 -20.125,143.238 -25.546,184.488c-24.196,184.154 -34.154,231.716 -59.959,286.329c-28.879,61.125 -89.241,113.441 -155.6,134.871c-80.266,25.916 -237.608,13.3 -272.779,-21.871c-9.612,-9.613 -10.275,-12.692 -8.396,-38.979c2.117,-29.571 15.93,-64.613 28.413,-72.071c4.492,-2.684 13.608,-0.596 29.85,6.833c86.029,39.35 180.817,34.358 232.4,-12.246c26.037,-23.521 36.158,-48.283 43.879,-107.358c1.463,-11.179 3.742,-23.15 5.067,-26.604c1.329,-3.459 -6.238,2.004 -16.813,12.137c-40.179,38.496 -102.187,60.017 -163.35,56.688c-152.725,-8.313 -230.091,-162.125 -166.512,-331.042c39.242,-104.254 132.266,-184.296 228.862,-196.925Zm-5.275,131.817c-41.254,14.596 -85.404,72.054 -97.037,126.283c-6.217,29 -2.975,77.342 6.433,95.888c19.788,39.012 48.679,55.841 96.029,55.945c40.134,0.084 70.713,-12.075 97.35,-38.712c41.484,-41.483 64.909,-133.95 46.942,-185.3c-7.508,-21.458 -28.038,-44.067 -48.421,-53.329c-20.946,-9.517 -75.404,-9.929 -101.296,-0.775Z" style="fill:#ed3837;"/><path d="M2907.62,2258.65c34.408,-5.05 50.358,-5.033 78.071,0.071c53.441,9.846 95.066,40.35 116.32,85.237c15.43,32.584 18.271,80.805 8.705,147.709c-3.767,26.354 -14.234,103.087 -23.255,170.512c-9.024,67.429 -18.437,124.617 -20.916,127.084c-6.408,6.379 -123.304,5.645 -129.767,-0.817c-3.729,-3.729 -1.237,-31.175 10.584,-116.454c30.937,-223.263 31.237,-232.167 8.791,-258.842c-28.591,-33.983 -101.821,-35.808 -144.521,-3.6c-24.112,18.183 -34.458,40.408 -40.508,87.025c-2.775,21.363 -12.221,94.863 -20.992,163.333c-10.979,85.7 -17.704,125.6 -21.583,128.059c-7.642,4.845 -120.737,4.562 -128.454,-0.321c-5.417,-3.421 -5.292,-10.584 1.029,-59.313c3.954,-30.479 17.533,-136.808 30.175,-236.287c27.796,-218.784 26.667,-211.554 34.025,-217.663c7.654,-6.354 86.308,-9.85 105.508,-4.687l14.584,3.921l-0.709,25.466l-0.708,25.471l23.625,-19.254c28.917,-23.563 68.488,-42.025 99.996,-46.65Z" style="fill:#ed3837;"/><path d="M2464.23,2185.09c16.992,-7.396 57.479,-7.409 75.163,-0.021c39.504,16.508 32.879,65.071 -10.571,77.533c-32.079,9.2 -67.792,3.558 -86.113,-13.604c-18.708,-17.525 -7.316,-51.35 21.521,-63.908Z" style="fill:#ed3837;"/><path d="M2435.42,2303.98c13.529,-2.537 108.816,-0.387 118.279,2.667c6.825,2.2 7.492,-6.025 -15.992,197.521c-9.383,81.354 -19.921,175.104 -23.412,208.333c-3.488,33.229 -8.117,64.683 -10.28,69.9c-3.879,9.358 -4.787,9.467 -67.512,8.333l-63.583,-1.15l-1.325,-13.796c-1.229,-12.808 12.616,-142.175 39.996,-373.67l11.329,-95.796l12.5,-2.342Z" style="fill:#ed3837;"/><path d="M2196.9,2184.14c3.55,-4.275 18.708,-5.242 66.158,-4.217c33.854,0.729 63.354,3.204 65.559,5.496c2.562,2.666 1.995,22.141 -1.58,54.166c-3.066,27.5 -13.3,118.438 -22.733,202.084c-9.433,83.646 -21.592,195.929 -27.017,249.521c-6.875,67.958 -11.55,98.524 -15.446,101.037c-3.075,1.979 -33.712,3.133 -68.087,2.563l-62.5,-1.038l0.567,-30.142l0.562,-30.146l-19.312,17.042c-41.092,36.25 -86.525,51.579 -152.871,51.579c-44.842,0 -46.892,-0.412 -77.742,-15.662c-39.358,-19.454 -69.942,-51.321 -88.946,-92.671c-17.521,-38.129 -22.675,-64.258 -22.675,-114.963c0,-138.162 73.225,-263.15 179.459,-306.316c73.304,-29.784 154.262,-19.946 210.379,25.571l16.925,13.729l7.346,-61.046c4.045,-33.575 9.42,-63.538 11.954,-66.588Zm-171.917,204.584c-50.162,14.175 -90.017,60.121 -106.262,122.5c-14.459,55.512 -4.842,103.054 27.37,135.262c42.834,42.838 111.946,42.621 165.625,-0.516c29.646,-23.825 40.13,-51.717 48.467,-128.971c5.754,-53.342 3.067,-77.563 -10.775,-96.996c-19.008,-26.696 -83.375,-42.879 -124.425,-31.279Z" style="fill:#ed3837;"/><path d="M1413.2,2264.48c39.467,-8.92 119.121,-5.921 151.383,5.709c49.084,17.691 101.009,62.046 123.042,105.104c20.683,40.408 26.975,70.429 26.575,126.787c-0.337,47.159 -1.875,58.75 -11.883,89.584c-18.609,57.329 -37.78,89.754 -75.171,127.137c-52.196,52.184 -100.642,76.046 -172.738,85.084c-34.1,4.279 -82.658,0.754 -114.825,-8.33c-70.608,-19.941 -126.341,-78.712 -145.941,-153.891c-9.963,-38.2 -8.95,-108.538 2.191,-152.084c28.521,-111.508 116.096,-202.204 217.367,-225.1Zm22.933,128.738c-39.933,11.225 -77.158,48.129 -95.104,94.279c-10.55,27.129 -14.925,85.742 -8.25,110.479c7.838,29.038 26.146,52.963 50.859,66.446c39.187,21.388 94.066,15.329 132.087,-14.579c57.304,-45.075 75.067,-165.513 33.313,-225.871c-20.025,-28.95 -70.455,-42.687 -112.905,-30.754Z" style="fill:#ed3837;"/><path d="M881.25,2070.45c41.383,-11.242 142.142,-9.225 195.871,3.921c39.675,9.704 105.241,39.688 112.008,51.221c7.563,12.892 -59.8,113.779 -79.225,118.654c-6.8,1.708 -19.867,-1.754 -39.15,-10.379c-34.946,-15.625 -79.275,-23.154 -118.671,-20.158c-91.571,6.966 -166.075,74.566 -196.116,177.954c-10.692,36.783 -11.1,121.054 -0.755,154.675c16.584,53.883 62.8,100.129 112.267,112.337c54.154,13.367 120.813,4.163 183.071,-25.283c22.858,-10.809 27.313,-11.692 34.713,-6.875c10.683,6.958 22.275,40.891 28.458,83.308l4.775,32.746l-12.934,11.558c-17.341,15.496 -69.479,35.088 -122.55,46.059c-55.329,11.437 -141.254,9.712 -192.595,-3.863c-76.5,-20.229 -143.85,-74.267 -177.25,-142.212c-89.371,-181.825 -12.759,-437.5 161.833,-540.071c34.467,-20.246 62.192,-31.621 106.25,-43.592Z" style="fill:#ed3837;"/><path d="M1952.47,1753.74c6.704,-7.409 14.525,-7.9 124.217,-7.842c64.383,0.037 119.691,1.729 122.908,3.767c8.712,5.516 3.412,62.833 -6.483,70.066c-4.588,3.354 -21.3,5.271 -45.992,5.271c-21.333,0 -38.808,1.404 -38.833,3.125c-0.309,21.158 -42.288,290.575 -45.967,295.008c-5.942,7.159 -47.5,8.292 -64.663,1.767c-13.216,-5.025 -14.591,13.433 12.409,-166.567c10.483,-69.895 19.066,-128.958 19.075,-131.25c0.004,-2.47 -15.375,-4.166 -37.825,-4.166c-32.967,-0 -38.638,-1.071 -44.1,-8.334c-8.154,-10.845 -4.796,-49.737 5.254,-60.845Z" style="fill:#418abe;"/><path d="M2238.14,1748.96c3.041,-5.808 9.346,-7.291 31.029,-7.291c14.967,-0 30.837,1.941 35.271,4.312c10.383,5.559 10.166,16.246 -1.788,88.396c-5.221,31.513 -8.242,57.292 -6.716,57.292c1.524,-0 6.341,-4.017 10.708,-8.921c21.129,-23.754 77.842,-32.571 104.587,-16.263c21.042,12.834 27.475,26.35 29.496,61.992c1.867,32.958 -16.412,173.896 -24.517,189.042c-3.25,6.071 -9.337,7.483 -32.229,7.483c-45.7,0 -44.975,1.825 -32.258,-80.933c12.958,-84.317 13.133,-91.709 2.442,-102.4c-16.642,-16.642 -55.175,-5.542 -68.059,19.608c-3.283,6.404 -10.971,43.517 -17.087,82.475c-6.121,38.958 -12.746,72.458 -14.729,74.45c-1.984,1.988 -16.996,2.854 -33.359,1.933c-34.362,-1.941 -39.05,-5.987 -35.441,-30.55c28.645,-194.816 36.608,-249.108 42.179,-287.5c3.658,-25.208 8.371,-49.116 10.471,-53.125Z" style="fill:#418abe;"/><path d="M2557.65,1871.99c22.184,-11.471 30.846,-13.638 54.167,-13.563c44.837,0.146 73.737,18.479 90.962,57.704c9.817,22.354 9.446,65.496 -0.737,85.954l-8.296,16.667l-147.925,0l0.004,9.583c0.004,14.538 10.592,31.959 22.804,37.521c15.888,7.242 39.484,6.121 69.538,-3.3c14.525,-4.554 27.517,-8.304 28.867,-8.333c4.387,-0.096 12.129,20.862 12.129,32.829c-0,22.992 -37.175,42.742 -85.417,45.375c-39.529,2.158 -61.333,-2.958 -84.662,-19.858c-27.863,-20.184 -36.226,-40.592 -35.88,-87.567c0.35,-47.883 9.734,-75.487 38.667,-113.742c14.721,-19.466 25.717,-28.895 45.779,-39.27Zm31.929,48.654c-12.095,5.004 -25.729,20.937 -33.191,38.791l-6.505,15.567l88.671,0l-2.075,-21.608c-2.979,-31.013 -20.879,-43.513 -46.9,-32.75Z" style="fill:#418abe;"/><g><path d="M3434.16,2394.5c25.892,-9.154 80.35,-8.742 101.296,0.775c20.384,9.262 40.913,31.871 48.421,53.329c17.967,51.35 -5.458,143.817 -46.942,185.3c-26.637,26.637 -57.216,38.796 -97.35,38.712c-47.35,-0.104 -76.241,-16.933 -96.029,-55.945c-9.408,-18.546 -12.65,-66.888 -6.433,-95.888c11.633,-54.229 55.783,-111.687 97.037,-126.283Zm11.25,77.533c-18.612,12.525 -32.608,46.392 -32.779,79.333c-0.112,21.367 1.334,25.742 12.05,36.459c13.988,13.987 27.584,15.45 49.021,5.279c22.167,-10.521 34.442,-32.471 38.363,-68.6c3.65,-33.675 -0.096,-51.429 -12.225,-57.921c-13.538,-7.246 -39.417,-4.654 -54.43,5.45Z"/><path d="M1456.25,472.496c23.571,-7.454 80.554,-7.175 102.317,0.504c35.187,12.412 58.1,37.567 58.1,63.783c-0,19.871 -6.479,21.955 -46.029,14.796c-63.546,-11.504 -125.675,-0.992 -175.359,29.675c-29.929,18.475 -42.637,18.263 -44.479,-0.737c-1.8,-18.563 11.183,-41.546 37.55,-66.484c23.929,-22.629 40.858,-32.987 67.9,-41.537Z"/><path d="M2199.52,809.917c21.625,-7.729 41.504,-6.804 62.979,2.933c24.204,10.975 36.046,22.258 48.004,45.746c35.767,70.254 8.554,173.5 -53.671,203.621c-23.512,11.383 -63.637,11.708 -85.125,0.687c-34.316,-17.596 -51.6,-49.854 -54.2,-101.15c-3.754,-74.042 27.804,-132.467 82.013,-151.837Zm21.617,63.562c-12.484,15.867 -11.955,46.954 1.004,59.129c22.854,21.467 52.858,4.142 52.858,-30.525c-0,-23.912 -12.371,-39.583 -31.25,-39.583c-10.138,0 -16.35,3.017 -22.613,10.979Z"/><path d="M2120.83,644.179c47.738,-12.771 105.367,-6.366 151.113,16.792c30.846,15.617 77.133,63.8 95.529,99.446c39.313,76.166 45.121,166.583 16.129,251.087c-16.337,47.621 -34.6,76.754 -71.104,113.429c-48.438,48.667 -98.742,70.9 -160.417,70.9c-82.625,0 -151.004,-43.72 -188.962,-120.833c-27.808,-56.483 -35.938,-116.742 -25.492,-188.983c16.529,-114.35 95.292,-218.317 183.204,-241.838Zm-0.45,52.888c-34.833,14.691 -50.975,25.85 -74.262,51.329c-42.175,46.146 -65.975,104.925 -69.925,172.7c-4.388,75.292 13.266,133.712 53.35,176.562c50.966,54.484 112.592,69.046 182.479,43.125c85.717,-31.796 147.863,-130.633 147.471,-234.533c-0.175,-46.108 -5.592,-70.071 -24.967,-110.417c-18.591,-38.708 -55.216,-76.683 -90.546,-93.879c-20.637,-10.046 -31.054,-12.279 -62.5,-13.4c-32.216,-1.146 -41.15,0.1 -61.1,8.513Z"/><path d="M2136.13,455.971c43.875,-11.796 101.725,-5.283 150.338,16.916c45.341,20.709 90.425,76.917 87.741,109.392c-1.82,21.984 -12.916,22.296 -47.666,1.338c-62.796,-37.875 -123.846,-50.646 -201.946,-42.25c-55.279,5.946 -62.1,4.158 -62.1,-16.263c-0,-25.246 35.958,-59.008 73.633,-69.133Z"/><path d="M1546.79,817.146c46.529,-23.029 95.837,-0.338 116.096,53.429c10.97,29.129 12.012,79.967 2.32,113.308c-19.483,67.021 -78.287,102.846 -129.791,79.075c-21.025,-9.704 -32.467,-22.133 -44.588,-48.425c-13.625,-29.558 -13.642,-97.433 -0.037,-131.529c11.716,-29.367 33.112,-54.529 56,-65.858Zm32.616,59.679c-13.987,14.892 -16.175,42.771 -4.512,57.55c20.004,25.35 54.271,4.762 54.271,-32.613c-0,-32.566 -28.959,-47.079 -49.759,-24.937Z"/><path d="M1492.68,654.413c101.692,-20.055 198.258,54.708 231.109,178.92c10.3,38.954 9.158,116.492 -2.351,159.529c-13.795,51.592 -39.004,95.938 -75.387,132.605c-48.083,48.466 -98.879,69.604 -155.817,64.837c-74.22,-6.208 -137.187,-62.746 -167.904,-150.762c-10.683,-30.6 -11.633,-38.342 -11.766,-95.792c-0.171,-73.533 8.216,-112.092 35.995,-165.488c32.117,-61.737 93.055,-113.387 146.121,-123.85Zm10.959,45.121c-64.455,13.459 -123.813,81.017 -145.421,165.505c-10.321,40.349 -11.075,108.099 -1.613,144.779c22.142,85.816 79.934,137.096 153.813,136.475c112.808,-0.95 204.566,-151.292 175.508,-287.567c-21.787,-102.163 -105.462,-175.238 -182.287,-159.192Z"/><path d="M1604.08,1235.65c5.434,-14.292 17.113,-13.671 40.079,2.133c55.055,37.875 156.534,62.217 259.405,62.217c106.808,-0 241.991,-28.575 289.05,-61.1c41.55,-28.721 99.645,-4.796 106.154,43.712c1.466,10.938 0.4,19.621 -2.9,23.596c-6.942,8.363 -10.671,7.942 -20.196,-2.279c-7.971,-8.558 -7.992,-8.537 -10.838,10.45c-6.912,46.083 -41.22,122.813 -75.016,167.767c-82.204,109.341 -204.738,152.371 -322.425,113.229c-33.038,-10.988 -82.625,-43.846 -104.929,-69.529c-36.013,-41.467 -66.425,-127.029 -66.575,-187.304c-0.038,-14.671 -1.771,-21.888 -5.263,-21.917c-10.217,-0.079 -47.679,-19.925 -62.983,-33.363c-21.134,-18.554 -28.754,-33.954 -23.563,-47.612Zm412.588,205.55c-63.254,13.883 -114.463,39.429 -143.529,71.604c-21.842,24.179 -20,30.15 12.616,40.858c43.025,14.125 80.838,15.726 122.517,5.184c41.75,-10.559 71.867,-27.65 103.729,-58.871c22.513,-22.058 42.354,-55.342 36.488,-61.213c-1.55,-1.55 -23.875,-3.383 -49.613,-4.075c-34.15,-0.92 -56.362,0.838 -82.208,6.513Z"/><path d="M1436.13,2393.22c42.45,-11.933 92.88,1.804 112.905,30.754c41.754,60.358 23.991,180.796 -33.313,225.871c-38.021,29.908 -92.9,35.967 -132.087,14.579c-24.713,-13.483 -43.021,-37.408 -50.859,-66.446c-6.675,-24.737 -2.3,-83.35 8.25,-110.479c17.946,-46.15 55.171,-83.054 95.104,-94.279Zm0.738,79.779c-14.192,7.708 -27.029,34.617 -32.275,67.654c-6.825,42.963 3.117,59.346 36.017,59.346c17.97,-0 31.854,-11.542 44.875,-37.313c10.47,-20.716 12.875,-61.066 4.795,-80.404c-6.125,-14.662 -7.62,-15.608 -24.446,-15.45c-9.858,0.092 -22.891,2.867 -28.966,6.167Z"/><path d="M1684.1,3408.43c53.3,-7.762 107.567,-0.937 107.567,13.53c-0,23.987 -10.059,62.779 -19.046,73.462c-14.6,17.354 -56.633,34.604 -90.159,37.004c-65.679,4.7 -95.216,-30.646 -68.92,-82.475c11.066,-21.812 36.012,-36.492 70.558,-41.521Z"/><path d="M2589.58,1920.64c26.021,-10.763 43.921,1.737 46.9,32.75l2.075,21.608l-88.671,0l6.505,-15.567c7.462,-17.854 21.095,-33.787 33.191,-38.791Z"/><path d="M2024.98,2388.72c41.05,-11.6 105.417,4.583 124.425,31.279c13.842,19.433 16.529,43.654 10.775,96.996c-8.337,77.254 -18.821,105.146 -48.466,128.971c-53.68,43.137 -122.792,43.354 -165.626,0.516c-32.212,-32.208 -41.829,-79.75 -27.37,-135.262c16.245,-62.379 56.1,-108.325 106.262,-122.5Zm7.646,82.225c-26.513,14.004 -40.958,42.771 -40.958,81.562c-0,28.588 6.416,42.067 22.487,47.259c14.7,4.741 38.954,0.45 54.313,-9.613c11.412,-7.479 18.004,-32.25 21.879,-82.229c2.321,-29.9 1.912,-32.038 -7.371,-38.542c-12.879,-9.021 -31.404,-8.446 -50.35,1.563Z"/><path d="M1739.58,258.171c341.95,-8.479 705.642,7.533 1000,44.029c108.692,13.475 150.905,20.729 216.729,37.238c63.888,16.02 91.88,29.187 118.392,55.704c37.671,37.671 41.417,86.995 21.104,277.775c-4.912,46.141 -29.82,297.016 -39.508,397.916c-3.412,35.521 -6.217,68.334 -6.233,72.917c-0.021,6.275 8.754,12.817 35.516,26.488c170.305,86.983 271.184,268.708 258.23,465.179c-3.217,48.741 -14.888,106.591 -27.055,134.1l-8.595,19.425l22.258,21.216c27.954,26.646 48.596,66.959 51.675,100.93c4.65,51.27 -18.417,106.766 -72.367,174.104c-37.304,46.566 -69.95,77.454 -98.5,93.196c-16.121,8.891 -20.712,9.437 -59.146,7.025c-69.204,-4.338 -70.508,-4.271 -82.308,4.341c-6.15,4.492 -11.146,9.1 -11.1,10.246c0.042,1.146 11.325,7.413 25.067,13.929c42.266,20.029 88.479,76.196 97.391,118.363c3.5,16.55 6.713,16.966 15.546,2.012c22.392,-37.904 85.275,-92.483 134.904,-117.087c70.617,-35.009 178.467,-42 243.417,-15.784l22.917,9.25l20.833,-8.162c16.863,-6.608 31.163,-8.171 75,-8.213c31.963,-0.029 61.825,2.155 72.846,5.325c26.362,7.588 51.462,33.771 60.025,62.613c8.267,27.829 8.362,42.483 0.658,97.004c-3.329,23.558 -11.879,87.833 -19,142.833c-17.537,135.471 -35.775,251.055 -46.308,293.471c-24.904,100.292 -82.925,184.846 -161.896,235.934c-63.846,41.3 -111.779,53.266 -214.904,53.65l-75.242,0.279l8.004,20.833c6.571,17.1 7.6,27.554 5.75,58.333c-5.529,91.83 -36.908,131.517 -109.333,138.28c-30.958,2.891 -27.767,-3.776 -36.542,76.304l-5.254,47.916l24.084,5.071c31.475,6.629 46.329,14.642 59.75,32.238c16.425,21.537 22.783,48.295 22.729,95.646c-0.092,78.47 -19.279,118.704 -65.904,138.183c-29.163,12.187 -87.638,19.55 -136.13,17.141c-91.858,-4.558 -142.679,-32.941 -174.687,-97.575c-5.413,-10.929 -11.196,-26.433 -12.846,-34.454c-5.154,-25.008 -9.392,-28.591 -12.183,-10.296c-12.304,80.642 -23.329,103.675 -58.375,121.967c-20.192,10.538 -23.884,11.004 -88.021,11.125c-66.4,0.121 -67.142,0.021 -91.667,-12.492c-16.096,-8.216 -28.229,-18.02 -34.779,-28.104l-10.058,-15.487l-7.296,11.991c-20.954,34.463 -63.629,48.309 -139.842,45.384c-41.362,-1.588 -53.766,-3.596 -68.021,-11.025l-17.433,-9.088l-40.312,12.925c-103.617,33.217 -211.446,13.421 -267.121,-49.046c-11.609,-13.029 -21.109,-26.12 -21.109,-29.104c0,-2.979 -1.875,-5.416 -4.166,-5.416c-2.292,-0 -4.209,4.22 -4.259,9.375c-0.137,14.104 -14,41.283 -27.508,53.929c-22.421,21 -57.308,33.558 -99.121,35.687c-47.066,2.396 -80.408,-3.533 -113.375,-20.166l-25.512,-12.867l-16.154,8.137c-45.159,22.746 -130.517,31.771 -188.817,19.955c-115.558,-23.413 -180.388,-116.621 -163.304,-234.784c2.804,-19.4 4.5,-35.875 3.762,-36.608c-0.737,-0.738 -14.416,28.079 -30.4,64.037c-92.004,206.971 -91.712,206.717 -239.479,206.934c-80.592,0.121 -81.425,0.029 -102.867,-11.275c-42.479,-22.4 -39.079,-13.35 -117.783,-313.604c-18.621,-71.042 -42.025,-159.167 -52.012,-195.834c-43.171,-158.525 -61.334,-229.379 -63.413,-247.404c-1.996,-17.267 1.242,-32.304 12.713,-59.021c2.22,-5.175 -2.342,-7.3 -23.417,-10.908c-61.463,-10.529 -128.758,-47.621 -174.55,-96.208c-112.113,-118.955 -140.404,-287.163 -78.904,-469.105c52.629,-155.695 174.771,-271.345 327.316,-309.925c42.721,-10.804 51.35,-11.566 127.084,-11.241c74.008,0.312 84.916,1.325 122.383,11.341c48.721,13.025 101.879,37.888 126.717,59.259c38.325,32.971 45.996,76.229 22.112,124.737c-15.7,31.896 -74.171,113.63 -92.046,128.667c-7.083,5.963 -20.57,12.913 -29.975,15.442c-15.741,4.237 -20.437,3.275 -59.187,-12.15c-23.146,-9.213 -51.458,-18.846 -62.913,-21.409c-40.675,-9.095 -93.025,5.588 -126.17,35.388c-63.142,56.771 -79.888,179.7 -31.192,228.983c37.833,38.292 95.071,40.417 174.517,6.471c40.404,-17.262 60.929,-20.021 81.17,-10.921c5.759,2.592 7.009,-2.275 9.184,-35.75c5.787,-89.142 43.7,-166.754 113.246,-231.812c77.241,-72.255 148.195,-98.834 262.57,-98.359c42.25,0.179 65.8,2.284 85.417,7.634c40.492,11.041 91.004,36.637 115.479,58.512c22.375,19.996 63.688,74.758 63.688,84.421c-0,10.046 6.166,5.558 17.916,-13.042c6.417,-10.154 28.53,-34.512 49.142,-54.129c41.125,-39.133 82.363,-62.525 132.942,-75.4c14.896,-3.792 27.754,-7.558 28.575,-8.362c0.821,-0.809 -5.575,-4.863 -14.213,-9.005c-32.496,-15.595 -48.696,-50.537 -43.475,-93.779l2.363,-19.571l-14.75,-2.104c-8.113,-1.154 -31.625,-3.237 -52.25,-4.625c-71.467,-4.808 -309.834,-27.021 -358.659,-33.421c-342.12,-44.85 -433.025,-71.708 -479.475,-141.666c-18.954,-28.546 -29.987,-67.967 -33.2,-118.621c-1.383,-21.771 0.638,-111.483 4.492,-199.363c3.85,-87.879 6.404,-160.266 5.671,-160.858c-0.729,-0.592 -17.267,-5.296 -36.746,-10.454c-67.554,-17.892 -164.292,-61.004 -220.596,-98.313c-62.471,-41.391 -137.325,-109.329 -169.196,-153.566l-16.458,-22.842l-23.362,2.396c-32.767,3.362 -75.734,-5.075 -109.971,-21.592c-57.234,-27.612 -128.229,-94.729 -174.084,-164.575c-42.962,-65.433 -93.379,-185.858 -109.329,-261.141c-23.05,-108.779 15.884,-188.438 92.254,-188.767l21.342,-0.092l2.721,-17.012c5.408,-33.821 32.325,-73.15 62.929,-91.946c9.079,-5.579 20.671,-7.683 42.379,-7.692c29.379,-0.016 29.917,-0.212 32.459,-11.77c3.55,-16.176 24.387,-40.388 45.262,-52.6c23.021,-13.471 64.775,-19.988 95.75,-14.946c50.404,8.204 96.525,47.241 122.8,103.933c15.313,33.05 28.029,92.313 32.55,151.717c1.425,18.737 3.192,37.816 3.929,42.4c0.734,4.583 1.534,10.208 1.779,12.5c0.246,2.291 4.475,-5.209 9.396,-16.667c22,-51.229 62.621,-101.858 93.929,-117.071c25.005,-12.15 71.063,-12.879 101.213,-1.608c33.35,12.475 63.487,44.637 73.233,78.154c11.779,40.525 6.471,74.633 -21.391,137.363c-30.367,68.362 -42.042,103.55 -54.746,164.979c-14.954,72.316 -30.484,112.466 -57.375,148.366c-5.913,7.896 -10.75,16.555 -10.75,19.25c-0,17.492 62.758,74.58 106.187,96.592c19.159,9.713 74.538,30.225 81.592,30.225c1.646,0 4.242,-19.221 5.775,-42.708c4.312,-66.063 22.125,-276.571 33.758,-398.959c25.396,-267.108 47.546,-344.087 107.109,-372.262c51.833,-24.525 179.104,-45.113 338.495,-54.767c20.625,-1.25 53.438,-3.429 72.917,-4.85c19.479,-1.421 93.542,-4.021 164.583,-5.783Zm-858.333,1812.28c-44.058,11.971 -71.783,23.346 -106.25,43.592c-174.592,102.571 -251.204,358.246 -161.833,540.071c33.4,67.946 100.75,121.983 177.25,142.212c51.341,13.575 137.266,15.3 192.596,3.863c53.07,-10.971 105.208,-30.563 122.55,-46.059l12.933,-11.558l-4.775,-32.746c-6.183,-42.416 -17.775,-76.35 -28.458,-83.308c-7.4,-4.817 -11.855,-3.933 -34.713,6.875c-62.258,29.446 -128.917,38.65 -183.071,25.283c-49.466,-12.208 -95.683,-58.454 -112.266,-112.337c-10.346,-33.621 -9.938,-117.892 0.754,-154.675c30.041,-103.388 104.546,-170.988 196.116,-177.954c39.396,-2.996 83.725,4.533 118.671,20.158c19.284,8.625 32.35,12.087 39.15,10.379c19.425,-4.875 86.788,-105.762 79.225,-118.654c-6.766,-11.533 -72.333,-41.517 -112.008,-51.221c-53.729,-13.146 -154.488,-15.162 -195.871,-3.921Zm1315.65,113.684c-2.533,3.05 -7.908,33.012 -11.954,66.587l-7.346,61.046l-16.925,-13.729c-56.117,-45.517 -137.075,-55.354 -210.379,-25.571c-106.234,43.167 -179.459,168.154 -179.459,306.317c0,50.704 5.155,76.833 22.675,114.962c19.005,41.35 49.588,73.217 88.946,92.671c30.85,15.25 32.9,15.662 77.742,15.662c66.346,0 111.779,-15.329 152.871,-51.579l19.312,-17.041l-0.562,30.145l-0.567,30.142l62.5,1.038c34.375,0.57 65.013,-0.584 68.088,-2.563c3.895,-2.512 8.57,-33.079 15.445,-101.037c5.425,-53.592 17.584,-165.875 27.017,-249.521c9.433,-83.646 19.667,-174.584 22.733,-202.084c3.575,-32.025 4.142,-51.5 1.58,-54.166c-2.205,-2.292 -31.705,-4.767 -65.559,-5.496c-47.45,-1.025 -62.608,-0.058 -66.158,4.217Zm360.758,-312.15c-20.062,10.375 -31.058,19.804 -45.779,39.27c-28.933,38.255 -38.317,65.859 -38.667,113.742c-0.345,46.975 8.017,67.383 35.88,87.567c23.329,16.9 45.133,22.016 84.662,19.858c48.242,-2.633 85.417,-22.383 85.417,-45.375c-0,-11.967 -7.742,-32.925 -12.129,-32.829c-1.35,0.029 -14.342,3.779 -28.867,8.333c-30.054,9.421 -53.65,10.542 -69.538,3.3c-12.212,-5.562 -22.8,-22.983 -22.804,-37.521l-0.004,-9.583l147.925,0l8.296,-16.667c10.183,-20.458 10.554,-63.6 0.737,-85.954c-17.225,-39.225 -46.125,-57.558 -90.962,-57.704c-23.321,-0.075 -31.983,2.092 -54.167,13.563Zm450.359,-415.475c-0.175,2.145 -0.855,6.716 -1.517,10.154c-0.658,3.437 -2.538,17.5 -4.175,31.25c-4.492,37.721 -30.929,223.254 -34.004,238.629c-1.479,7.4 -1.871,13.454 -0.871,13.454c1.004,0 9.204,-3.475 18.229,-7.725c9.025,-4.25 26.721,-11.212 39.325,-15.475c12.604,-4.262 23.608,-8.196 24.45,-8.742c6.842,-4.416 18.254,-56.295 20.217,-91.895c2.762,-50.034 -4.875,-89.384 -24.6,-126.746c-11.954,-22.642 -36.396,-50.946 -37.054,-42.904Zm-1055.54,297.225c-10.05,11.108 -13.408,50 -5.254,60.845c5.462,7.263 11.133,8.334 44.1,8.334c22.45,-0 37.829,1.696 37.825,4.166c-0.009,2.292 -8.592,61.355 -19.075,131.25c-27,180 -25.625,161.542 -12.409,166.567c17.163,6.525 58.721,5.392 64.663,-1.767c3.679,-4.433 45.658,-273.85 45.967,-295.008c0.025,-1.721 17.5,-3.125 38.833,-3.125c24.692,0 41.404,-1.917 45.992,-5.271c9.895,-7.233 15.195,-64.55 6.483,-70.066c-3.217,-2.038 -58.525,-3.73 -122.908,-3.767c-109.692,-0.058 -117.513,0.433 -124.217,7.842Zm-247.813,982.854c-24.962,38.625 -71.358,79.154 -112.341,98.141l-19.742,9.15l15.621,16.192c16.671,17.283 28.471,45.275 28.471,67.538c-0,17.32 -17.225,71.204 -33.1,103.545c-6.725,13.696 -11.575,25.555 -10.784,26.346c0.792,0.796 7.013,-1.437 13.821,-4.958c29.563,-15.288 73.667,-24.063 132.484,-26.358c65.67,-2.563 99.35,1.566 147.845,18.125c65.696,22.425 111.405,64.691 139.259,128.77c7.837,18.03 15.1,30.055 16.141,26.725c1.038,-3.333 4.034,-22.933 6.659,-43.558c6.962,-54.762 11.321,-67.467 30.129,-87.871c23.508,-25.508 43.846,-30.879 116.875,-30.879c70.442,0 88.992,4.221 113.533,25.825c14.613,12.863 20.284,21.733 25.617,40.071c6.767,23.275 6.608,25.304 -13.225,170.937c-14.446,106.055 -18.871,149.3 -15.783,154.234c6.25,9.991 29.525,11.125 39.729,1.933c12.8,-11.525 15.341,-21.621 26.271,-104.25c14.579,-110.233 30.412,-213.387 35.541,-231.571c6.546,-23.196 25.996,-43.016 50.063,-51.008c16.746,-5.563 33.971,-6.6 90.429,-5.454c78.171,1.583 88.312,4.462 112.217,31.812c9.625,11.013 13.816,13.517 15.158,9.054c1.021,-3.391 5.904,-35.229 10.854,-70.75c10.875,-78.012 16.888,-97.941 35.783,-118.57c7.967,-8.696 14.484,-16.23 14.484,-16.738c-0,-0.508 -28.163,-2.008 -62.584,-3.333c-57.408,-2.204 -64.195,-3.309 -82.162,-13.35l-19.583,-10.946l-23.046,11.679c-22.567,11.433 -24.509,11.675 -94.238,11.675l-71.196,0l-21.787,-13.542c-11.988,-7.45 -22.479,-13.541 -23.321,-13.541c-0.842,-0 -11.333,6.091 -23.312,13.541l-21.784,13.542l-73.329,0c-67.708,0 -74.404,-0.683 -87.379,-8.896c-14.042,-8.891 -14.063,-8.891 -32.271,-0.837c-43.492,19.237 -125.325,25.612 -176.508,13.75c-35.375,-8.2 -77.554,-24.988 -95.834,-38.142c-26.162,-18.829 -62.379,-61.112 -76.825,-89.7l-14.145,-27.987l-12.705,19.654Zm-16.904,371.896c-62.821,8.616 -106.487,29.37 -120.508,57.279c-17.608,35.041 -19.733,79.896 -4.25,89.662c4.787,3.021 12.654,1.184 29.075,-6.787c35.625,-17.292 75.279,-24.875 116.696,-22.313c71.096,4.396 99.566,28.509 99.566,84.325c0,24.85 -0.758,27.409 -7.291,24.559c-44.604,-19.446 -135.179,-25.834 -183.859,-12.971c-80.679,21.325 -131.879,72.946 -146.537,147.758c-13.829,70.567 10.729,128.683 64.771,153.292c67.675,30.816 164.562,17.516 229.483,-31.5l21.65,-16.342l2.383,11.933c3.834,19.159 25.192,40.155 46.242,45.455c36.525,9.195 107.7,3.008 117.554,-10.225c5.529,-7.417 15.346,-70.855 13.254,-85.638c-1.141,-8.062 -4.487,-10.304 -18.066,-12.121c-9.167,-1.225 -18.867,-3.591 -21.554,-5.258c-10.588,-6.554 -9.913,-29.967 3.25,-112.146c17.429,-108.854 18.92,-174.162 4.683,-205.033c-21.321,-46.238 -53.025,-70.838 -110.025,-85.388c-37.371,-9.537 -100.467,-13.487 -136.517,-8.541Zm550.388,-1359.53c-2.1,4.009 -6.813,27.917 -10.471,53.125c-5.571,38.392 -13.533,92.684 -42.179,287.5c-3.609,24.563 1.079,28.609 35.441,30.55c16.363,0.921 31.375,0.055 33.359,-1.933c1.983,-1.992 8.608,-35.492 14.729,-74.45c6.117,-38.958 13.804,-76.071 17.087,-82.475c12.884,-25.15 51.417,-36.25 68.059,-19.608c10.691,10.691 10.516,18.083 -2.442,102.4c-12.717,82.758 -13.442,80.933 32.258,80.933c22.892,0 28.98,-1.412 32.23,-7.483c8.104,-15.146 26.383,-156.084 24.516,-189.042c-2.021,-35.642 -8.454,-49.158 -29.496,-61.992c-26.745,-16.308 -83.458,-7.491 -104.587,16.263c-4.367,4.904 -9.183,8.921 -10.708,8.921c-1.525,-0 1.495,-25.779 6.716,-57.292c11.954,-72.15 12.171,-82.837 1.788,-88.396c-4.434,-2.371 -20.304,-4.312 -35.271,-4.312c-21.683,-0 -27.988,1.483 -31.029,7.291Zm519.196,1187.5c-4.317,4.88 -10.109,34.163 -17.513,88.542c-6.083,44.688 -13.696,100 -16.912,122.917c-3.221,22.916 -12.671,94.166 -20.996,158.333c-8.329,64.167 -21.367,160.729 -28.979,214.583c-12.075,85.471 -13.067,98.713 -7.817,104.167c8.987,9.333 115.079,9.088 124.454,-0.287c4.808,-4.809 10.888,-40.692 22.95,-135.417c9.029,-70.883 29.042,-223.308 44.479,-338.717c27.334,-204.391 27.859,-209.991 20.15,-215.625c-5.766,-4.216 -22.229,-5.787 -60.637,-5.787c-44.979,-0 -53.675,1.071 -59.179,7.291Zm-293.109,-751.37c-28.837,12.558 -40.229,46.383 -21.521,63.908c18.321,17.162 54.034,22.804 86.113,13.604c43.45,-12.462 50.075,-61.025 10.571,-77.533c-17.684,-7.388 -58.171,-7.375 -75.163,0.021Zm-1051.03,79.395c-101.271,22.896 -188.846,113.592 -217.367,225.1c-11.141,43.546 -12.154,113.884 -2.191,152.084c19.6,75.179 75.333,133.95 145.941,153.891c32.167,9.084 80.725,12.609 114.825,8.33c72.096,-9.038 120.542,-32.9 172.738,-85.084c37.392,-37.383 56.562,-69.808 75.171,-127.137c10.008,-30.834 11.546,-42.425 11.883,-89.584c0.4,-56.358 -5.892,-86.379 -26.575,-126.787c-22.033,-43.058 -73.958,-87.413 -123.042,-105.104c-32.262,-11.63 -111.916,-14.629 -151.383,-5.709Zm-481.367,647.984c-35.937,2.421 -51.204,5.116 -55.966,9.879c-5.954,5.954 -0.563,29.566 59.287,259.808c120.784,464.659 112.017,434.379 128.484,443.792c13.562,7.75 129.97,6.754 146.625,-1.258c17.75,-8.538 24.437,-20.259 74.858,-131.213c76.125,-167.517 192.933,-420.858 227.746,-493.946c18.129,-38.075 32.966,-71.4 32.966,-74.062c0,-9.559 -22.408,-12.967 -85.225,-12.967c-54.662,0 -65.125,1.05 -72.7,7.292c-8.629,7.112 -19.354,31.55 -110.191,251.041c-70.859,171.217 -116.971,276.434 -121.821,277.971c-2.525,0.8 -6.821,-9.175 -9.75,-22.646c-2.875,-13.241 -23.633,-105.637 -46.129,-205.325c-22.492,-99.687 -46.142,-206.358 -52.559,-237.045c-6.412,-30.692 -14.558,-59.334 -18.1,-63.655c-8.254,-10.07 -33.033,-12.016 -97.525,-7.666Zm240.459,-115.625c-13.5,16.875 -40.325,35.687 -63.959,44.858c-12.604,4.892 -24.537,10.479 -26.52,12.413c-2.009,1.958 1.879,10.595 8.766,19.491c6.809,8.788 14.504,21.604 17.1,28.479c4.767,12.613 26.567,109.038 53.184,235.234c7.954,37.708 15.258,69.358 16.229,70.329c2.125,2.125 3.908,-2.038 32.729,-76.396c33.358,-86.058 97.771,-235.846 106.879,-248.533l7.921,-11.029l-11.271,-4.142c-6.196,-2.279 -20.642,-7.454 -32.1,-11.496c-25.804,-9.104 -59.058,-29.954 -83.037,-52.054l-18.213,-16.788l-7.708,9.634Zm467.291,-2450.69c-184.716,7.95 -350.033,22.167 -403.379,34.688c-35.783,8.4 -52.071,26.371 -61.354,67.691c-39.204,174.517 -106.246,1050.18 -99.346,1297.61c1.484,53.146 2.338,58.046 14.171,81.25c22.208,43.541 53.554,57.375 178.388,78.733c76.395,13.071 227.579,32.504 338.187,43.475c121.058,12.004 330.929,27.113 334,24.042c3.088,-3.092 13.379,-58.454 13.696,-73.704c0.187,-8.867 -2.958,-11.609 -20.379,-17.8c-40.667,-14.442 -57.15,-43.734 -53.259,-94.638c3.663,-47.887 19.796,-82.367 45.946,-98.183c12.242,-7.409 23.429,-8.175 136.996,-9.384c70.013,-0.745 129.896,0.4 138.029,2.646c10.196,2.817 20.821,2.292 36.617,-1.808c27,-7.004 42.35,-7.229 71.275,-1.063c41.975,8.955 69.304,49.325 64.842,95.784l-1.855,19.304l24.038,2.179c27.346,2.479 61.496,19.025 76.796,37.208c5.391,6.409 11.058,11.65 12.596,11.65c1.537,0 8.687,-4.979 15.895,-11.058c17.796,-15.025 58.634,-33.908 80.388,-37.171c11.237,-1.683 18.646,-5.212 19.983,-9.516c11.592,-37.221 127.313,-1263.58 127.313,-1349.19c-0,-29.617 -5.692,-42.4 -21.85,-49.058c-13.046,-5.375 -193.004,-22.617 -328.15,-31.442c-235.65,-15.388 -546.859,-20.538 -739.584,-12.242Zm1390.4,2644.32c-11.891,2.271 -15.066,10.575 -21.175,55.362c-2.658,19.48 -5.891,42.45 -7.187,51.042l-2.354,15.625l-26.571,0c-30.988,0 -31.813,0.896 -38.842,42.008c-6.525,38.18 -5.983,64.23 1.463,70.409c3.604,2.991 14.125,4.471 25.408,3.575l19.254,-1.534l-2.441,18.813c-12.121,93.375 -27.538,243.862 -27.538,268.821c0,41.491 11.133,70.916 35.25,93.141c27.246,25.117 53.271,31.38 118.663,28.559c90.766,-3.921 97.625,-9.196 97.958,-75.367l0.212,-42.175l-35.416,1.383c-41.779,1.63 -55.288,-2.62 -66.967,-21.07c-10.779,-17.03 -9.483,-43.488 8.621,-176.146c6.879,-50.417 12.508,-92.134 12.508,-92.709c0.004,-0.575 22.629,-1.041 50.279,-1.041c27.65,-0 53.746,-1.859 57.992,-4.134c8.863,-4.741 11.971,-16.375 16.446,-61.541c5.154,-51.996 6.304,-50.992 -58.388,-50.992c-44.637,0 -54.312,-1.054 -52.525,-5.712c4.084,-10.634 12.68,-101.092 10.217,-107.505c-3.733,-9.729 -79.621,-15.55 -114.867,-8.812Zm-122.362,-731.821c-31.508,4.625 -71.079,23.088 -99.996,46.65l-23.625,19.254l0.708,-25.471l0.709,-25.466l-14.584,-3.921c-19.2,-5.163 -97.854,-1.667 -105.508,4.687c-7.358,6.109 -6.229,-1.12 -34.025,217.663c-12.642,99.479 -26.221,205.808 -30.175,236.287c-6.321,48.73 -6.446,55.892 -1.029,59.313c7.717,4.883 120.812,5.167 128.454,0.321c3.879,-2.459 10.604,-42.359 21.583,-128.059c8.771,-68.47 18.217,-141.97 20.992,-163.333c6.05,-46.617 16.396,-68.842 40.508,-87.025c42.7,-32.208 115.93,-30.383 144.521,3.6c22.446,26.675 22.146,35.579 -8.791,258.842c-11.821,85.279 -14.313,112.725 -10.584,116.454c6.463,6.462 123.359,7.196 129.767,0.817c2.479,-2.467 11.892,-59.655 20.917,-127.084c9.02,-67.425 19.487,-144.158 23.254,-170.512c9.566,-66.904 6.725,-115.125 -8.704,-147.709c-21.255,-44.887 -62.88,-75.391 -116.321,-85.237c-27.713,-5.104 -43.663,-5.121 -78.071,-0.071Zm-27.988,-1065.4c-12.383,13.183 -21.3,44.154 -21.3,73.983c0,27.85 3.292,31.346 42.1,44.7c38.98,13.409 86.655,37.038 113.484,56.242c56.1,40.158 101.287,100.275 119.446,158.908c11.983,38.696 15.616,120.746 7.233,163.359l-5.908,30.025l10.783,2.046c5.929,1.12 19.217,3.27 29.529,4.77c10.313,1.5 30.6,7.405 45.083,13.125c14.484,5.717 27.259,9.471 28.388,8.342c4.692,-4.687 14.092,-49.221 18.633,-88.237c6.096,-52.417 2.467,-123.259 -8.491,-165.696c-32.68,-126.521 -128.488,-229.304 -265.067,-284.367c-35.025,-14.117 -81.638,-27.117 -97.246,-27.117c-4.042,0 -11.542,4.463 -16.667,9.917Zm-2396.3,-825.379c-5.729,2.883 -14.07,12.025 -18.537,20.312l-8.121,15.067l13.113,28.583c16.104,35.105 25.575,69.834 44.729,164c18.233,89.63 21.812,101.342 30.016,98.192c32.138,-12.333 80.675,-2.617 50.259,10.063c-95.904,39.975 -139.009,63.829 -183.467,101.545c-14.917,12.655 -28.258,21.88 -29.642,20.496c-1.383,-1.387 -2.516,-11.471 -2.516,-22.412c-0,-10.942 -1.917,-21.075 -4.259,-22.525c-7.6,-4.696 -27.516,-48.517 -52.054,-114.525c-26.266,-70.671 -38.654,-92.788 -60.016,-107.184c-17.888,-12.058 -27.4,-11.966 -39.742,0.375c-30.508,30.509 -3.858,167.255 55.525,284.892c34.279,67.913 98.225,143.992 146.787,174.654c45.292,28.592 102.33,37.571 168.342,26.504c13.75,-2.308 25.683,-4.204 26.517,-4.216c0.829,-0.013 0.25,8.4 -1.296,18.7c-2.7,18.008 -1.904,19.929 20.712,49.975c42.571,56.566 118.542,118.633 187.738,153.379c61.037,30.65 172.333,71.225 178.487,65.071c1.025,-1.029 3.196,-27.479 4.821,-58.775l2.95,-56.904l-18.3,-4.575c-37.583,-9.396 -94.879,-34.4 -126.896,-55.375c-42.575,-27.892 -90.4,-75.646 -117.67,-117.5l-21.542,-33.059l22.904,-22.362c35.55,-34.713 58.017,-85.163 73.096,-164.154c10.687,-56.013 23.996,-96.542 53.412,-162.667c25.775,-57.946 29.925,-82.579 17.305,-102.654c-17.421,-27.713 -54.846,-31.884 -80.896,-9.013c-27.038,23.738 -65.621,106.763 -84.446,181.721c-6.483,25.8 -8.129,28.192 -28.292,41.088c-29.225,18.7 -70.741,64.004 -78.879,86.087c-3.662,9.942 -9.975,27.296 -14.029,38.563c-8.746,24.32 -16.054,28.308 -22.25,12.141c-9.458,-24.666 10.525,-80.829 40.608,-114.129c8.259,-9.137 26.004,-23.4 39.438,-31.692c13.433,-8.291 24.425,-15.87 24.425,-16.841c-0,-7.117 -11.175,-18.838 -28.663,-30.059c-25.591,-16.425 -31.266,-29.579 -39.921,-92.6c-13.22,-96.279 -15.579,-110.508 -23.65,-142.695c-14.245,-56.8 -38.841,-95.638 -67.412,-106.43c-15.613,-5.9 -35.888,-5.508 -48.688,0.938Zm2318.98,62.996c-8.83,114.296 -13.75,170.871 -38.088,437.883c-31.092,341.05 -51.804,551.508 -78.733,800c-5.713,52.708 -11.209,104.329 -12.217,114.713l-1.833,18.879l22.816,11.946c26.317,13.779 47.842,36.879 63.205,67.829l10.77,21.704l25.146,-13.371c29.05,-15.442 70.742,-54.404 74.496,-69.617c8.004,-32.445 57.296,-384.358 56.271,-401.725l-1.229,-20.762l-50,-19.813c-57.346,-22.729 -69.746,-33.695 -77.559,-68.612c-6.245,-27.908 0.655,-94.779 13.25,-128.446c21.159,-56.55 63.725,-75.954 128.696,-58.662c12.5,3.325 22.95,5.645 23.229,5.158c3.163,-5.571 64.359,-644.788 62.313,-650.888c-9.071,-27.07 -11.908,-30.97 -26.85,-36.95c-19.2,-7.683 -72.704,-20.37 -140.413,-33.304l-50.666,-9.675l-2.604,33.713Zm637.12,1831.81c-96.595,12.629 -189.62,92.671 -228.862,196.925c-63.579,168.917 13.787,322.729 166.512,331.042c61.163,3.329 123.171,-18.192 163.35,-56.688c10.575,-10.133 18.142,-15.595 16.813,-12.137c-1.325,3.454 -3.604,15.425 -5.067,26.604c-7.721,59.075 -17.841,83.838 -43.879,107.358c-51.583,46.605 -146.371,51.596 -232.4,12.246c-16.242,-7.429 -25.358,-9.516 -29.85,-6.833c-12.483,7.458 -26.296,42.5 -28.412,72.071c-1.88,26.287 -1.217,29.366 8.395,38.979c35.171,35.171 192.513,47.787 272.78,21.871c66.358,-21.429 126.72,-73.746 155.6,-134.871c25.804,-54.613 35.762,-102.175 59.958,-286.329c5.421,-41.25 16.917,-124.271 25.546,-184.488c12.258,-85.541 14.591,-110.587 10.658,-114.521c-3.408,-3.408 -22.558,-5.05 -59.417,-5.095c-51.425,-0.059 -54.795,0.445 -61.987,9.325c-4.188,5.162 -8.892,16.97 -10.454,26.237l-2.85,16.85l-20.396,-19.079c-23.079,-21.588 -46.55,-32.946 -81.396,-39.388c-26.512,-4.9 -37.675,-4.912 -74.642,-0.079Zm-3090.47,-1816.51c-14.141,8.237 -20.979,28.475 -18.075,53.525c3.975,34.333 70.075,252.475 79.455,262.221c4.562,4.737 9.825,2.358 32.258,-14.584c14.746,-11.137 31.817,-23.996 37.933,-28.579l11.125,-8.333l-20.675,-75.517c-36.471,-133.208 -44.679,-155.479 -64.696,-175.525c-14.825,-14.846 -20.304,-17.687 -33.858,-17.583c-8.896,0.071 -19.458,2.037 -23.467,4.375Zm2521.15,2012.24c-8.721,5.192 -14.183,22.38 -19.85,62.425c-33.987,240.334 -38.683,269.363 -46.5,287.534c-9.021,20.975 -23.521,36.937 -42.096,46.346c-10.095,5.116 -6.791,5.558 31.975,4.291c107.359,-3.504 154.942,20.567 166.509,84.242l2.937,16.162l13.25,-12.57c26.146,-24.8 36.521,-27.646 107.221,-29.4l64.804,-1.609l0.975,-14.462c2.225,-33.092 29.342,-85.504 47.159,-91.159c10.308,-3.27 9.691,-6.887 -3.209,-18.858c-5.987,-5.554 -16.741,-20.412 -23.904,-33.017l-13.017,-22.916l-2.787,19.454c-7.883,55.092 -24.5,87.079 -53.733,103.462c-17.963,10.067 -21.184,10.417 -95.671,10.417c-86.5,0 -97.792,-2.983 -123.913,-32.729c-24.379,-27.767 -26.55,-53.929 -12.337,-148.521c18.458,-122.858 28.316,-201.083 27.141,-215.358c-1.4,-17.025 -10.77,-22.184 -24.954,-13.734Zm-434.687,-154.429l-12.5,2.342l-11.329,95.796c-27.38,231.496 -41.225,360.862 -39.996,373.671l1.325,13.795l63.583,1.15c62.725,1.134 63.633,1.025 67.513,-8.333c2.162,-5.217 6.791,-36.671 10.279,-69.9c3.491,-33.229 14.029,-126.979 23.412,-208.333c23.484,-203.546 22.817,-195.321 15.992,-197.521c-9.463,-3.054 -104.75,-5.204 -118.279,-2.667Zm-320.538,815.067c-3.6,3.604 -6.546,6.979 -6.546,7.5c0,0.525 -4.604,32.733 -10.229,71.579c-23.787,164.229 -36.354,275.346 -34.621,306.042c2.188,38.621 12.746,63.596 38.559,91.187c31.937,34.146 58.208,42.838 128.725,42.579c65.096,-0.241 113.121,-16.441 150.283,-50.695c20.833,-19.2 24.383,-20.28 18.846,-5.717c-5.579,14.683 -5.1,36.608 0.937,42.646c3.384,3.383 22.805,5 60.121,5c44.55,-0 56.371,-1.254 61.667,-6.546c3.6,-3.604 6.575,-8.758 6.612,-11.458c0.138,-9.959 29.5,-237.917 46.409,-360.25c13.704,-99.175 16.346,-127.259 12.358,-131.25c-5.462,-5.467 -105.375,-9.98 -122.996,-5.559c-11.421,2.867 -9.15,-8.437 -31.783,158.167c-21.046,154.883 -23.454,167.575 -36.35,191.342c-30.317,55.891 -125.058,75.7 -166.038,34.72c-15.825,-15.825 -22.445,-37.004 -22.475,-71.9c-0.02,-23.237 12.742,-126.55 31.75,-256.987c6.188,-42.475 6.359,-49.825 1.246,-53.063c-3.266,-2.066 -31.583,-3.783 -62.933,-3.82c-46.317,-0.05 -58.221,1.162 -63.542,6.483Zm680.534,-1160.01c-14.667,3.909 -15.125,4.667 -20.209,33.096c-3.646,20.413 -9.508,35.5 -19.646,50.563c-13.008,19.337 -14.179,23.4 -11.77,40.904c5.579,40.562 -12.742,72.358 -54.163,94c-12.617,6.596 -22.942,13.196 -22.95,14.675c-0.004,1.479 29.521,3.408 65.617,4.287c40.416,0.988 69.062,3.525 74.579,6.609c7.35,4.112 13.317,3.412 33.333,-3.913c19.079,-6.983 36.067,-9.221 78.159,-10.296c29.579,-0.758 54.633,-2.229 55.679,-3.275c4.866,-4.87 -27.184,-18.295 -49.771,-20.85c-32.275,-3.654 -70.038,-15.416 -86.029,-26.804c-6.888,-4.908 -17.375,-18.65 -23.3,-30.541c-14.634,-29.371 -14.692,-77.588 -0.167,-143.946c2.246,-10.275 2.25,-10.275 -19.362,-4.509Zm-1340.45,1342.12l-24.575,56.588c-1.35,3.112 13.633,-10.65 33.295,-30.584l35.755,-36.237l-8.055,-14.334c-4.425,-7.887 -8.05,-17.091 -8.05,-20.458c0,-14.779 -7.716,-2.529 -28.37,45.025Zm1599.2,-1507.36c-38.959,10.704 -82.225,34.454 -105.892,58.12c-49.421,49.421 -81.4,128.325 -81.546,201.217c-0.05,24.704 1.454,31.725 8.271,38.542c9.758,9.758 34.088,11.212 41.346,2.471c2.675,-3.225 10.267,-27.13 16.871,-53.125c14.004,-55.13 22.771,-76.355 50.996,-123.45c23.87,-39.825 36.075,-50.213 51.012,-43.409c16.842,7.675 17.129,19.763 1.083,45.971c-30.483,49.796 -42.483,81.646 -48.333,128.283c-6.842,54.513 6.963,84.925 38.546,84.925c22.121,0 27.983,-7.516 34.325,-44.037c7.975,-45.913 27.554,-91.879 60.308,-141.575c31.267,-47.438 40.288,-53.325 56.646,-36.967c11.883,11.884 10.792,19.075 -7.237,47.671c-6.534,10.367 -19.771,35.679 -29.413,56.25c-13.958,29.783 -17.917,43.425 -19.429,66.917c-1.813,28.266 -1.408,29.891 9.587,38.541c25.084,19.73 54.796,6.663 104.634,-46.02c56.3,-59.509 78.516,-100.484 78.596,-144.946c0.054,-32.617 -11.05,-54.471 -42.763,-84.134c-23.304,-21.8 -41.196,-31.833 -80.137,-44.945c-35.846,-12.067 -104.946,-15.234 -137.471,-6.3Z"/><g><path d="M1310.05,1476.75c12.463,-5.049 22.583,5.769 27.58,29.479l2.906,13.777l13.548,1.53c27.204,3.077 43.264,20.177 45.77,48.737c1.114,12.683 1.412,13.078 13.375,17.732c16.181,6.294 27.638,17.028 27.638,25.895c-0,9.8 -12.779,21.818 -27.232,25.617l-12.078,3.173l-2.903,16.73c-5.416,31.21 -22.959,49.207 -48.104,49.348c-9.426,0.053 -10.739,0.822 -10.762,6.286c-0.035,9.088 -11.31,34.137 -16.31,36.237c-13.309,5.594 -21.156,-1.275 -29.263,-25.627l-5.606,-16.835l-10.494,-0c-24.392,-0 -41.146,-17.867 -47.432,-50.582c-2.61,-13.579 -4.045,-16.254 -9.499,-17.685c-16.621,-4.357 -32.951,-18.03 -32.951,-27.586c0,-7.732 13.415,-20.334 26.431,-24.827l13.483,-4.654l2.796,-15.565c5.154,-28.69 20.196,-43.901 46.119,-46.643c11.391,-1.206 11.863,-1.618 14.468,-12.676c3.577,-15.192 11.649,-29.078 18.52,-31.861Zm-13.182,88.554c-26.597,11.615 -37.632,55.449 -21.262,84.446c9.542,16.904 20.999,24.3 37.643,24.3c16.61,-0 30.74,-8.046 40.383,-22.994c6.139,-9.517 7.678,-15.053 8.474,-30.458c1.306,-25.334 -7.542,-44.379 -25.324,-54.513c-7.787,-4.435 -30.526,-4.881 -39.914,-0.781Z"/><path d="M1274.57,1379.68c22.489,-6.452 59.432,-7.16 83.396,-1.596c94.538,21.942 161.216,116.97 161.216,229.763c0,92.273 -44.241,173.506 -115.987,212.972c-7.518,4.136 -24.432,10.511 -37.586,14.163c-105.212,29.229 -205.525,-39.131 -235.874,-160.736c-7.746,-31.042 -7.764,-95.067 -0.033,-126.551c11.798,-48.045 25.872,-76.26 53.477,-107.21c28.641,-32.112 56.896,-50.909 91.391,-60.805Zm12.672,55.322c-23.551,6.756 -39.666,16.42 -58.488,35.072c-50.953,50.497 -70.401,133.9 -47.401,203.292c9.16,27.636 18.452,43.149 39.628,66.153c28.863,31.354 61.637,46.776 99.419,46.776c65.124,-0 127.58,-55.579 144.443,-128.538c5.007,-21.654 5.005,-72.643 -0.002,-94.287c-10.871,-46.991 -44.229,-95.568 -79.61,-115.927c-31.183,-17.945 -64.356,-22.191 -97.989,-12.541Z"/></g></g></svg>