<?xml version="1.0" encoding="UTF-8" standalone="no"?><!DOCTYPE svg PUBLIC "-//W3C//DTD SVG 1.1//EN" "http://www.w3.org/Graphics/SVG/1.1/DTD/svg11.dtd"><svg width="100%" height="100%" viewBox="0 0 4267 4267" version="1.1" xmlns="http://www.w3.org/2000/svg" xmlns:xlink="http://www.w3.org/1999/xlink" xml:space="preserve" xmlns:serif="http://www.serif.com/" style="fill-rule:evenodd;clip-rule:evenodd;stroke-linejoin:round;stroke-miterlimit:2;"><path d="M854.142,2016.14c16.071,-5.271 63.108,-1.542 78.062,6.191c33.542,17.346 46.771,44.592 46.808,96.417c0.013,20.625 -1.433,39.796 -3.216,42.608c-2.304,3.625 -23.804,5.438 -74.163,6.25l-70.92,1.142l3.554,13.7c7.104,27.388 40.041,36.692 81.966,23.15c11.75,-3.792 22.525,-5.733 23.946,-4.308c1.421,1.421 2.808,13.354 3.079,26.516l0.492,23.93l-18.7,10.408c-25.708,14.308 -80.85,15.112 -106.583,1.554c-21.9,-11.537 -45.175,-37.45 -52.05,-57.946c-8.679,-25.871 -6.671,-78.796 4.041,-106.596c14.554,-37.758 48.559,-71.491 83.684,-83.016Zm9.362,60.212c-10.696,5.942 -19.837,17.838 -25.846,33.646l-4.116,10.833l83.125,0l-0,-14.771c-0,-27.804 -28.209,-43.566 -53.163,-29.708Z" style="fill:#418abe;"/><path d="M1409.37,2052.43c19.547,-23.972 46.494,-39.952 75.958,-43.834c41.829,-5.513 74.788,1.213 101.775,20.758c22.396,16.224 37.39,41.469 44.801,69.73c13.747,52.421 1.405,115.218 -38.18,150.062c-46.375,40.825 -133.642,40.25 -175.075,-1.146c-26.15,-26.133 -36.45,-51.775 -38.517,-95.921c-1.454,-31.016 -0.225,-41.57 7.109,-61.029c5.408,-14.351 12.953,-27.366 22.129,-38.62Zm129.494,30.885c-0.916,-0.793 -1.861,-1.532 -2.836,-2.215c-6.901,-4.834 -23.519,-6.774 -36.859,-5.603c-7.253,0.637 -13.537,2.195 -16.762,4.707c-15.32,11.942 -24.041,33.892 -24.058,60.55c-0.029,45.03 18.583,71.742 49.983,71.742c31.325,-0 50,-25.75 50,-68.954c0,-28.137 -6.886,-49.325 -19.468,-60.227Z" style="fill:#ed3837;"/><path d="M2375.8,2194.7c-8.532,-33.951 -5.724,-89.517 6.921,-117.616c15.116,-33.587 41.808,-57.129 73.533,-64.854c27.321,-6.65 58.383,-1.712 77.321,12.288c11.358,8.4 11.4,8.4 13.567,0.112c1.987,-7.591 5.17,-8.204 36.891,-7.096l34.721,1.217l0,133.333c0,21.607 -0.003,39.72 -0.052,55.001c-0.25,77.827 -1.686,82.182 -9.902,100.366c-28.129,62.246 -109.629,87.833 -189.904,59.617c-37.125,-13.046 -38.288,-15.08 -27.363,-47.9c5.034,-15.125 10.946,-27.5 13.142,-27.5c2.196,-0 11.396,3.775 20.446,8.391c20.754,10.588 59.35,14.754 81.404,8.784c22.358,-6.046 34.275,-19.505 38.821,-43.821l3.716,-19.909l-13.07,12.605c-17.034,16.429 -31.25,21.47 -60.217,21.358c-44.321,-0.171 -78.979,-26.829 -96.958,-74.579c-1.129,-2.998 -2.134,-6.282 -3.017,-9.797Zm95.558,5.32c2.876,2.21 6.056,4.16 9.546,5.864c14.808,7.225 17.858,7.421 32.908,2.084c4.167,-1.478 7.85,-3.17 11.087,-5.168c16.51,-10.188 21.445,-28.335 20.122,-66.687c-1.225,-35.625 -1.7,-37.191 -14.875,-48.958c-17.067,-15.246 -40.15,-16.508 -57.167,-3.121c-15.571,12.246 -22.975,31.796 -22.967,60.625c0.007,26.36 6.806,44.188 21.346,55.361Z" style="fill:#ed3837;"/><path d="M2093.75,2018.75l30.142,-1.221c31.883,-1.296 49.146,4.054 45.312,14.042c-3,7.817 1.3,7.521 10.4,-0.717c4.038,-3.654 14.5,-9.2 23.246,-12.316c53.308,-19.013 108.571,8.216 123.933,61.07c5.4,18.575 6.509,39.542 5.6,106.146l-1.133,82.996l-75,0l-2.083,-84.271c-1.996,-80.75 -2.479,-84.666 -11.575,-93.75c-12.709,-12.691 -41.371,-13.041 -57.913,-0.704l-11.762,8.775l-4.167,169.95l-75,0l0,-250Z" style="fill:#ed3837;"/><path d="M1988.73,1921.28c19.104,-5.525 22.75,-5.354 36.354,1.679c24.596,12.721 28.313,40.955 8.059,61.209c-11.604,11.604 -14.513,12.516 -33.938,10.65c-25.133,-2.417 -36.466,-13.746 -36.612,-36.596c-0.117,-18.825 9.246,-32.059 26.137,-36.942Z" style="fill:#ed3837;"/><path d="M1962.5,2021.16l36.458,-1.204c20.054,-0.662 37.892,-0.146 39.646,1.15c1.754,1.296 2.692,57.546 2.083,125l-1.104,122.646l-29.079,1.254c-15.996,0.688 -33.337,0.184 -38.542,-1.121l-9.462,-2.375l0,-245.35Z" style="fill:#ed3837;"/><path d="M1671.02,2105.74c10.359,-50.415 40.711,-84.401 85.555,-92.904c24.859,-4.716 52.688,0.267 69.463,12.438l11.458,8.312l0,-53.595c0,-29.48 1.317,-54.917 2.929,-56.525c1.608,-1.613 18.954,-2.392 38.542,-1.738l35.612,1.192l0,345.833l-70.833,0l0.162,-11.458c0.175,-12.146 -4.05,-15.296 -7.712,-5.75c-3.621,9.437 -44.821,27.625 -62.575,27.625c-60.613,-0 -102.383,-47.059 -106.192,-119.638c-1.02,-19.446 0.239,-37.479 3.591,-53.792Zm166.476,-9.162l-12.821,-10.787c-17.287,-14.546 -40.296,-14.642 -57.417,-0.234c-9.898,8.329 -16.115,19.018 -19.044,33.334c-1.938,9.476 -2.435,20.54 -1.605,33.562c1.87,29.421 10.783,45.742 30.158,55.238c15.483,7.591 38.296,2.804 50.767,-10.655c9.225,-9.954 9.962,-14.079 9.962,-55.604l0,-44.854Z" style="fill:#ed3837;"/><path d="M1156.12,1966.56c18.368,-17.948 40.88,-31.573 66.793,-40.131c10.262,-3.391 31.075,-5.05 54.166,-4.312c30.063,0.958 42.25,3.383 61.459,12.225c15.583,7.175 23.958,13.533 23.958,18.187c0,12.567 -14.142,52.529 -19.287,54.504c-2.73,1.046 -10.755,-1.095 -17.838,-4.758c-26.53,-13.718 -54.618,-15.15 -78.712,-6.244c-23.176,8.565 -42.657,26.696 -53.505,52.657c-10.033,24.016 -11.775,63.304 -3.991,90.079c17.162,59.037 74.904,85.25 135.333,61.429c24.138,-9.513 26.538,-7.979 34.025,21.75c3.983,15.833 3.896,21.046 -0.458,26.292c-15.967,19.237 -72.388,33.487 -114.684,28.958c-61.72,-6.608 -114.354,-52.021 -132.6,-114.413c-9.754,-33.362 -8.796,-94.079 1.996,-126.112c9.289,-27.575 24.025,-51.234 43.345,-70.111Z" style="fill:#ed3837;"/><path d="M3744.6,1952.62c1.613,-1.617 18.017,-2.396 36.458,-1.737l33.525,1.195l1.209,34.375l1.212,34.375l66.679,0l-2.433,64.584l-32.292,-0.209l-32.291,-0.204l-0,54.488c-0,59.012 3.229,69.779 22.383,74.583c5.542,1.392 18.213,-0.342 28.158,-3.85c21.813,-7.696 26.1,-4.083 30.575,25.75c3.638,24.258 -3.487,32.742 -33.054,39.358c-35.108,7.855 -73.325,3.634 -91.316,-10.087c-26.917,-20.534 -29.467,-29.571 -31.034,-110.038l-1.4,-71.875l-36.812,0l-0,-62.5l37.5,0l-0,-32.637c-0,-17.954 1.321,-33.958 2.933,-35.571Z" style="fill:#418abe;"/><path d="M3594.6,1923.46c1.608,-1.613 18.954,-2.392 38.542,-1.738l35.612,1.192l2.175,347.916l-34.629,0c-21.379,0 -36.542,-1.912 -39.629,-5c-3.721,-3.72 -5,-47.716 -5,-172.22c-0,-91.976 1.316,-168.542 2.929,-170.151Z" style="fill:#418abe;"/><path d="M3304.94,2117.88l-1.309,-101.55l36.725,1.209l36.729,1.208l2.084,83.333c2.254,90.246 4.029,97.563 25.858,106.604c14.088,5.838 35.2,2.171 49.142,-8.533c10.371,-7.962 10.425,-8.358 12.5,-92.617l2.083,-84.62l38.604,-1.2l38.604,-1.196l-1.104,124.112l-1.104,124.117l-35.417,-0c-33.554,-0 -35.487,-0.492 -36.75,-9.375c-1.633,-11.525 -5.566,-11.833 -15.195,-1.192c-12.425,13.729 -40.863,22.204 -67.921,20.246c-33.154,-2.396 -54.413,-14.254 -69.717,-38.883l-12.5,-20.113l-1.312,-101.55Z" style="fill:#418abe;"/><path d="M3111.39,2017.03c22.158,-5.221 67,-5.279 85.595,-0.116c20.988,5.829 41.634,24.62 53.575,48.758c9.346,18.892 9.767,23.696 9.809,111.408l0.046,91.667l-35.417,0c-34.033,0 -35.471,-0.383 -36.808,-9.821l-1.388,-9.821l-11.112,10.296c-32.534,30.15 -101.196,24.996 -125.717,-9.441c-20.487,-28.771 -18.067,-76.059 5.254,-102.621c21.296,-24.25 41.288,-32.021 87.604,-34.042c39.255,-1.713 40.659,-2.104 38.18,-10.667c-1.413,-4.883 -6.625,-12.379 -11.584,-16.654c-11.708,-10.096 -50.816,-7.583 -79.512,5.113c-10.996,4.862 -21.584,7.854 -23.534,6.65c-1.95,-1.205 -6.779,-12.45 -10.733,-24.988c-6.967,-22.108 -6.942,-22.987 0.875,-29.121c13.675,-10.725 38.425,-22.725 54.867,-26.6Zm42.154,145.054c-27.342,2.938 -41.046,12.925 -41.046,29.93c0,18.296 10.725,25.933 32.908,23.433c24.413,-2.75 37.925,-17.246 37.925,-40.683c0,-9.038 -1.404,-16.159 -3.125,-15.821c-1.72,0.337 -13.716,1.75 -26.662,3.141Z" style="fill:#418abe;"/><path d="M2729.17,1929.61c-0,-8.334 2.083,-8.78 40.971,-8.78l40.975,0l40.275,128.229c22.154,70.53 40.279,130.842 40.279,134.03c-0,12.845 5.441,-2.813 37.641,-108.38c18.48,-60.57 36.805,-119.504 40.725,-130.962l7.13,-20.833l40.587,-1.192c27.971,-0.821 40.583,0.263 40.583,3.492c0,5.925 -103.945,328.483 -109.029,338.325c-3.275,6.346 -10.425,7.291 -55.191,7.291c-36.167,0 -52.651,-1.545 -55.546,-5.208c-2.267,-2.862 -8.917,-20.208 -14.775,-38.542c-5.863,-18.333 -29.55,-90.787 -52.642,-161.012c-23.092,-70.221 -41.983,-131.629 -41.983,-136.458Z" style="fill:#418abe;"/><path d="M294.604,1918.03c1.688,-4.4 25.063,-5.525 114.775,-5.525l112.659,0l-2.355,31.113c-1.295,17.108 -3.55,33.045 -5.012,35.416c-1.529,2.471 -19.421,4.304 -42,4.304c-21.638,0 -39.338,1.655 -39.338,3.675c0,11.484 -33.85,272.955 -35.729,275.996c-2.887,4.675 -67.225,4.829 -70.104,0.171c-1.188,-1.921 5.229,-61.454 14.262,-132.292c9.03,-70.841 16.921,-133.416 17.538,-139.058c1.062,-9.775 0.171,-10.204 -18.9,-9.046c-11.008,0.667 -27.613,-0.071 -36.896,-1.641l-16.879,-2.85l2.929,-27.371c1.613,-15.054 3.883,-29.854 5.05,-32.892Z" style="fill:#418abe;"/><path d="M543.854,1921.88c1.996,-8.754 4.325,-9.375 35.146,-9.375c18.154,0 34.071,1.717 35.367,3.817c2.104,3.4 -6.813,80.396 -12.692,109.6l-2.283,11.337l19.754,-11.041c15.042,-8.409 25.796,-11.109 45.096,-11.33c31.154,-0.354 50.475,9.717 63.812,33.267c11.784,20.8 11.734,38.838 -0.358,139.35l-9.275,77.083l-32.775,1.229c-18.025,0.676 -34.254,-0.262 -36.063,-2.083c-1.812,-1.821 0.33,-32.375 4.759,-67.896c4.429,-35.52 8.079,-72.875 8.108,-83.004c0.058,-21.571 -8.771,-33.671 -24.554,-33.646c-14.088,0.021 -36.942,14.1 -42.229,26.017c-2.288,5.158 -8.375,43.133 -13.525,84.383l-9.367,75l-32.867,1.23c-18.079,0.675 -34.3,-0.263 -36.054,-2.084c-2.704,-2.808 33.771,-314.504 40,-341.854Z" style="fill:#418abe;"/><g><path d="M284.663,1893.61c-13.084,9.295 -24.371,69.645 -16.988,90.829c5.396,15.466 14.692,19.725 43.063,19.725l23.783,-0l-2.667,23.958c-1.466,13.179 -7.35,57.708 -13.075,98.958c-16,115.28 -17.267,139.696 -7.829,151.08c6.825,8.233 12.492,9.604 45.3,10.958c43.075,1.775 63.008,-3.933 66.542,-19.054c1.241,-5.309 7.883,-56.525 14.758,-113.817c6.875,-57.292 13.688,-114.012 15.133,-126.042l2.63,-21.875l26.512,0c20.396,0 26.508,1.396 26.508,6.05c0,3.33 -6.554,57.234 -14.562,119.792c-8.008,62.558 -14.571,118.546 -14.583,124.412c-0.013,5.871 3.804,14.78 8.475,19.792c7.691,8.259 12.612,9.121 51.987,9.121c40.6,0 43.904,-0.629 49.679,-9.446c3.675,-5.608 9.688,-38.204 14.792,-80.208c9.992,-82.217 10.396,-83.904 21.608,-89.904c16.209,-8.675 17.167,0.204 8.004,74.112c-10.716,86.4 -10.754,81.8 0.775,95.204c8.992,10.45 11.709,11.084 49.65,11.613c33.684,0.471 41.505,-0.679 48.638,-7.138c8.154,-7.375 15.871,-37.858 13.575,-53.608c-1.725,-11.842 2.892,-8.4 11.575,8.617c11.616,22.771 37.375,44.354 63.362,53.091c44.659,15.021 106.013,6.08 133.317,-19.429c13.133,-12.271 13.2,-12.537 10.983,-44.862l-2.229,-32.521l13.684,-4.946c9.033,-3.267 15.604,-9.508 19.35,-18.387c7.387,-17.5 7.291,-87.313 -0.146,-108.775c-7.204,-20.775 -30.625,-46.638 -52.234,-57.671c-21.25,-10.854 -65.091,-14.35 -93.729,-7.484c-24.441,5.867 -64.558,33.713 -77.387,53.721c-4.584,7.15 -9.363,13.004 -10.621,13.009c-1.258,0.008 -4.696,-6.642 -7.638,-14.775c-13.137,-36.334 -56,-59.33 -101.083,-54.225c-24.212,2.737 -24.637,2.608 -22.433,-6.809c6.308,-26.975 9.65,-67.6 6.287,-76.45c-7.046,-18.525 -21.275,-23.733 -60.425,-22.116c-24.283,1 -36.762,3.279 -39.154,7.15c-2.962,4.795 -3.804,4.795 -5.396,-0c-1.525,-4.58 -24.837,-5.913 -120.296,-6.892c-101.571,-1.042 -119.7,-0.296 -127.496,5.242m2428.41,12.854c-4.9,6.229 -8.908,15.7 -8.908,21.054c-0,5.35 20.779,74.004 46.179,152.562c25.4,78.559 49.921,154.784 54.496,169.392c4.571,14.608 12.766,31.013 18.212,36.458c9.509,9.509 12.279,9.9 70.138,9.9l60.233,0l10.15,-12.062c5.583,-6.633 16.175,-31.479 23.542,-55.208c31.933,-102.888 50.383,-151.53 50.383,-132.85c0,3.141 3.142,9.183 6.979,13.425c6.592,7.283 6.254,8.462 -6.075,21.179c-35.441,36.566 -34.708,106.933 1.492,143.133c29.571,29.567 73.083,37.946 116.979,22.517c17.754,-6.242 25.321,-7.142 31.633,-3.759c4.705,2.517 23.592,3.813 43.592,2.992c32.654,-1.342 36.037,-2.325 45.354,-13.154c8.246,-9.588 9.609,-14.575 7.525,-27.6c-3.629,-22.696 3.692,-23.858 14.188,-2.258c5.012,10.32 16.479,23.891 26.033,30.812c30.258,21.921 85.25,26.892 116.821,10.567c10.437,-5.396 15.462,-5.896 23.337,-2.304c12.455,5.675 67.834,6.004 82.338,0.487c5.908,-2.246 12.8,-8.604 15.317,-14.129l4.579,-10.05l11.696,13.092c11.641,13.029 11.883,13.087 53.587,13.087c62.354,0 60.538,2.988 62.158,-102.187l1.288,-83.23l24.512,0l0.092,61.459c0.104,70.733 4.204,84.812 31.979,109.854c29.829,26.892 92.634,32.287 136.404,11.712c27.159,-12.766 33.188,-23.312 30.467,-53.316c-4.2,-46.3 -23.2,-62.475 -59.367,-50.538c-8.325,2.746 -15.775,4.338 -16.558,3.538c-0.779,-0.804 -2.062,-19.742 -2.846,-42.088l-1.421,-40.625l24.146,0c20.088,0.004 25.871,-1.716 34.375,-10.225c9.067,-9.062 10.229,-13.829 10.229,-41.871c0,-49.466 -8.72,-60.212 -48.958,-60.341l-17.708,-0.059l-0,-18.958c-0,-21.492 -8.867,-41.829 -19.746,-45.279c-4.038,-1.279 -23.788,-2.633 -43.896,-3.008c-33.042,-0.617 -37.554,0.25 -46.875,9.008c-8.687,8.158 -10.317,13.521 -10.317,33.962c0,18.18 -1.483,24.275 -5.908,24.275c-3.25,0 -8.875,1.138 -12.5,2.53c-5.679,2.179 -6.592,-2.171 -6.592,-31.384c0,-42.291 -6.704,-59.975 -25.175,-66.416c-16.579,-5.78 -55.325,-6.155 -74.279,-0.721c-22.762,6.529 -25.266,13.275 -25.412,68.475l-0.134,49.566l-10.216,-11.025c-9.663,-10.425 -12.363,-11.025 -49.659,-11.025c-21.695,0 -42.479,1.167 -46.187,2.588c-15.704,6.025 -18.938,23.225 -18.938,100.725c0,66.942 -0.779,75.267 -7.62,81.458c-10.242,9.271 -24.446,8.717 -29.734,-1.162c-2.521,-4.713 -4.321,-39.779 -4.333,-84.375c-0.021,-73.767 -0.346,-76.725 -9.779,-88.513c-9.709,-12.133 -9.975,-12.191 -52.742,-11.704c-55.062,0.629 -60.562,4.742 -59.987,44.871c0.212,14.821 -0.846,26.946 -2.355,26.946c-1.508,-0 -5.766,-6.346 -9.462,-14.1c-11.05,-23.167 -30.917,-42.584 -54.167,-52.934c-31.25,-13.916 -84.883,-13.479 -127.166,1.042c-25.263,8.675 -29.95,9.304 -28.38,3.817c1.034,-3.617 6.938,-23.088 13.117,-43.267c17.238,-56.296 9.433,-65.438 -55.787,-65.333c-45.138,0.07 -53.892,2.391 -60.705,16.095c-2.987,6.013 -17.412,51.65 -32.054,101.417c-14.641,49.771 -28.046,89.063 -29.787,87.321c-1.742,-1.742 -15.609,-43.4 -30.809,-92.571c-19.37,-62.654 -30.625,-92.521 -37.612,-99.821c-9.3,-9.712 -13.158,-10.508 -57.229,-11.804c-47.163,-1.383 -47.279,-1.362 -56.167,9.938m-2418.47,11.558c-1.166,3.037 -3.437,17.837 -5.05,32.892l-2.929,27.37l16.879,2.85c9.284,1.571 25.888,2.309 36.896,1.642c19.071,-1.158 19.963,-0.729 18.9,9.046c-0.617,5.642 -8.508,68.217 -17.537,139.058c-9.034,70.838 -15.45,130.371 -14.263,132.292c2.879,4.658 67.217,4.504 70.104,-0.171c1.879,-3.042 35.729,-264.512 35.729,-275.996c0,-2.021 17.7,-3.675 39.338,-3.675c22.579,0 40.471,-1.833 42,-4.304c1.462,-2.371 3.717,-18.308 5.012,-35.417l2.355,-31.112l-112.659,-0c-89.712,-0 -113.087,1.125 -114.775,5.525m249.25,3.85c-6.229,27.35 -42.704,339.046 -40,341.854c1.754,1.821 17.975,2.758 36.054,2.083l32.867,-1.229l9.367,-75c5.15,-41.25 11.237,-79.225 13.525,-84.383c5.287,-11.917 28.141,-25.996 42.229,-26.017c15.783,-0.025 24.612,12.075 24.554,33.646c-0.029,10.129 -3.679,47.483 -8.108,83.004c-4.429,35.521 -6.571,66.075 -4.759,67.896c1.809,1.821 18.038,2.758 36.063,2.083l32.775,-1.229l9.275,-77.083c12.092,-100.513 12.142,-118.55 0.358,-139.35c-13.337,-23.55 -32.658,-33.621 -63.812,-33.267c-19.3,0.221 -30.054,2.921 -45.096,11.329l-19.754,11.042l2.283,-11.337c5.879,-29.205 14.796,-106.2 12.692,-109.6c-1.296,-2.1 -17.213,-3.817 -35.367,-3.817c-30.821,-0 -33.15,0.621 -35.146,9.375m2185.31,7.737c-0,4.83 18.891,66.238 41.983,136.459c23.092,70.225 46.779,142.679 52.642,161.012c5.858,18.334 12.508,35.679 14.775,38.542c2.896,3.662 19.379,5.208 55.546,5.208c44.766,0 51.916,-0.946 55.191,-7.291c5.084,-9.842 109.029,-332.4 109.029,-338.325c0,-3.23 -12.612,-4.313 -40.583,-3.492l-40.587,1.192l-7.13,20.833c-3.92,11.458 -22.245,70.392 -40.725,130.962c-32.2,105.567 -37.641,121.225 -37.641,108.38c-0,-3.188 -18.125,-63.5 -40.279,-134.03l-40.275,-128.229l-40.975,0c-38.888,0 -40.971,0.446 -40.971,8.779m865.429,-6.15c-1.613,1.609 -2.929,78.175 -2.929,170.15c-0,124.505 1.279,168.5 5,172.221c3.087,3.088 18.25,5 39.629,5l34.629,0l-2.175,-347.916l-35.612,-1.192c-19.588,-0.654 -36.934,0.125 -38.542,1.737m150.004,29.163c-1.612,1.612 -2.933,17.617 -2.933,35.571l-0,32.637l-37.5,0l-0,62.5l36.812,0l1.4,71.875c1.567,80.467 4.117,89.504 31.034,110.038c17.991,13.721 56.208,17.941 91.316,10.087c29.567,-6.616 36.692,-15.1 33.054,-39.358c-4.475,-29.833 -8.762,-33.446 -30.575,-25.75c-9.945,3.508 -22.616,5.242 -28.158,3.85c-19.154,-4.804 -22.383,-15.571 -22.383,-74.583l-0,-54.488l32.291,0.204l32.292,0.209l2.433,-64.584l-66.679,0l-1.212,-34.375l-1.209,-34.375l-33.525,-1.196c-18.441,-0.658 -34.845,0.121 -36.458,1.738m-2890.46,63.517c-35.125,11.525 -69.129,45.258 -83.684,83.016c-10.712,27.8 -12.72,80.725 -4.041,106.596c6.875,20.496 30.15,46.408 52.05,57.946c25.733,13.558 80.875,12.754 106.583,-1.554l18.7,-10.409l-0.492,-23.929c-0.27,-13.162 -1.658,-25.096 -3.079,-26.516c-1.421,-1.425 -12.196,0.516 -23.946,4.308c-41.925,13.542 -74.862,4.237 -81.966,-23.15l-3.554,-13.7l70.92,-1.142c50.359,-0.812 71.859,-2.625 74.163,-6.25c1.783,-2.812 3.229,-21.983 3.217,-42.608c-0.038,-51.825 -13.267,-79.071 -46.809,-96.417c-14.954,-7.733 -61.991,-11.462 -78.062,-6.191m2257.25,0.891c-16.442,3.875 -41.192,15.875 -54.867,26.6c-7.817,6.134 -7.842,7.013 -0.875,29.121c3.954,12.538 8.783,23.783 10.733,24.988c1.95,1.204 12.538,-1.788 23.534,-6.65c28.696,-12.696 67.804,-15.209 79.512,-5.113c4.959,4.275 10.171,11.771 11.584,16.654c2.479,8.563 1.075,8.954 -38.18,10.667c-46.316,2.021 -66.308,9.792 -87.604,34.042c-23.321,26.562 -25.741,73.85 -5.254,102.62c24.521,34.438 93.183,39.592 125.717,9.442l11.112,-10.296l1.388,9.821c1.337,9.438 2.775,9.821 36.808,9.821l35.417,-0l-0.046,-91.667c-0.042,-87.712 -0.463,-92.516 -9.809,-111.408c-11.941,-24.138 -32.587,-42.929 -53.574,-48.758c-18.596,-5.163 -63.438,-5.105 -85.596,0.116m193.546,100.85l1.312,101.55l12.5,20.113c15.304,24.629 36.563,36.487 69.717,38.883c27.058,1.958 55.496,-6.517 67.921,-20.246c9.629,-10.641 13.562,-10.333 15.195,1.192c1.263,8.883 3.196,9.375 36.75,9.375l35.417,-0l1.104,-124.117l1.104,-124.112l-38.604,1.196l-38.604,1.2l-2.083,84.621c-2.075,84.258 -2.129,84.654 -12.5,92.616c-13.942,10.704 -35.054,14.371 -49.142,8.534c-21.829,-9.042 -23.604,-16.359 -25.858,-106.605l-2.084,-83.333l-36.729,-1.208l-36.725,-1.209l1.309,101.55m-2441.43,-41.529c-10.696,5.942 -19.837,17.838 -25.846,33.646l-4.116,10.833l83.125,0l-0,-14.771c-0,-27.804 -28.209,-43.566 -53.163,-29.708m2290.04,85.734c-27.342,2.937 -41.046,12.925 -41.046,29.929c0,18.296 10.725,25.933 32.908,23.433c24.413,-2.75 37.925,-17.246 37.925,-40.683c0,-9.038 -1.404,-16.159 -3.125,-15.821c-1.72,0.337 -13.716,1.75 -26.662,3.142"/><path d="M2524.89,2202.8c-18.54,-0.945 -36.368,-1.87 -53.541,-2.78c-14.54,-11.173 -21.339,-29.001 -21.346,-55.361c-0.008,-28.829 7.396,-48.379 22.967,-60.625c17.017,-13.387 40.1,-12.125 57.167,3.121c13.175,11.767 13.65,13.334 14.875,48.959c1.323,38.351 -3.612,56.498 -20.122,66.686Zm-38.678,-98.516c-22.025,17.321 -17.217,68.534 7.491,79.792c9.209,4.192 12.009,3.725 18.896,-3.162c6.35,-6.351 8.267,-14.692 8.913,-38.85c0.741,-27.575 -0.163,-31.563 -8.721,-38.496c-11.954,-9.679 -13.417,-9.638 -26.579,0.716Z"/><path d="M2471.35,2200.02c17.173,0.91 35.001,1.835 53.541,2.78c-3.237,1.998 -6.92,3.69 -11.087,5.168c-15.05,5.337 -18.1,5.141 -32.908,-2.084c-3.49,-1.704 -6.67,-3.654 -9.546,-5.864Z"/><path d="M1837.5,2133.99c-6.851,-1.146 -13.82,-2.316 -20.915,-3.511c-0.363,-19.324 -2.128,-23.219 -9.181,-28.156c-11.387,-7.979 -11.75,-7.983 -23.025,-0.083c-5.739,4.019 -10.16,11.59 -12.732,20.635c-7.66,-1.302 -15.467,-2.63 -23.429,-3.985c2.929,-14.316 9.146,-25.005 19.045,-33.334c17.12,-14.408 40.129,-14.312 57.416,0.234l12.821,10.787l0,37.413Z"/><path d="M2170.93,2179.8l1.986,-81.005l11.762,-8.775c16.542,-12.337 45.204,-11.987 57.913,0.704c9.095,9.084 9.579,13 11.575,93.75l0.055,2.233c-7.121,-0.529 -14.119,-1.062 -21.004,-1.601c-0.25,-33.912 -1.278,-62.798 -2.476,-67.265c-3.154,-11.771 -14.267,-15.313 -28.179,-8.971l-10.896,4.963l-0,67.835c-7.009,-0.613 -13.916,-1.236 -20.736,-1.868Z"/><path d="M1748.22,2118.89c7.962,1.355 15.769,2.683 23.429,3.985c-2.873,10.102 -3.439,22.043 -0.96,32.923c4.063,17.8 10.075,25.25 23.667,29.316c16.238,4.855 22.313,-6.991 22.313,-43.508c-0,-4.197 -0.022,-7.879 -0.082,-11.127c7.095,1.195 14.064,2.365 20.915,3.511l0,7.441c0,41.525 -0.737,45.65 -9.963,55.604c-12.47,13.459 -35.283,18.246 -50.766,10.655c-19.375,-9.496 -28.288,-25.817 -30.158,-55.238c-0.83,-13.022 -0.333,-24.086 1.605,-33.562Z"/><path d="M1538.87,2083.32c-13.573,-2.421 -26.799,-5.038 -39.695,-7.818c13.34,-1.171 29.958,0.769 36.859,5.603c0.975,0.683 1.92,1.422 2.836,2.215Z"/><path d="M1499.17,2075.5c12.896,2.78 26.122,5.397 39.695,7.818c12.582,10.902 19.468,32.09 19.468,60.227c0,43.204 -18.675,68.954 -50,68.954c-31.4,-0 -50.012,-26.713 -49.983,-71.742c0.017,-26.658 8.737,-48.608 24.058,-60.55c3.225,-2.512 9.509,-4.07 16.762,-4.707Zm-9.349,33.762c-9.913,14.149 -8.654,53.524 2.15,67.258c19.275,24.504 45.529,5.608 45.529,-32.771c-0,-15.737 -2.4,-24.842 -8.638,-32.771c-11.025,-14.021 -29.845,-14.85 -39.041,-1.716Z"/><path d="M1129.97,1960.82c8.557,1.55 17.265,3.481 26.151,5.74c-19.32,18.877 -34.056,42.536 -43.345,70.111c-10.792,32.033 -11.75,92.75 -1.996,126.112c18.246,62.392 70.88,107.805 132.6,114.413c42.296,4.529 98.717,-9.721 114.684,-28.958c4.354,-5.246 4.441,-10.459 0.458,-26.292c-7.487,-29.729 -9.887,-31.263 -34.025,-21.75c-60.429,23.821 -118.171,-2.392 -135.333,-61.429c-7.784,-26.775 -6.042,-66.063 3.991,-90.079c10.848,-25.961 30.329,-44.092 53.505,-52.657c30.236,11.067 62.776,23.432 98.331,35.682c-6.743,0.408 -16.089,-2.188 -34.431,-8.88c-27.863,-10.162 -33.609,-10.987 -47.463,-6.837c-21.862,6.55 -44.537,30.404 -50.171,52.783c-18.979,75.363 26.459,131.275 91.238,112.288c12.604,-3.696 29.008,-7.713 36.458,-8.934c12.446,-2.033 13.542,-3.462 13.542,-17.658c-0,-24.208 8.229,-62.679 17.733,-82.9c3.778,-8.036 9.51,-16.845 16.369,-25.587c6.924,2.174 13.956,4.325 21.102,6.446c-9.176,11.254 -16.721,24.269 -22.129,38.62c-7.334,19.459 -8.563,30.013 -7.109,61.029c2.067,44.146 12.367,69.788 38.517,95.921c41.433,41.396 128.7,41.971 175.075,1.146c39.585,-34.844 51.927,-97.641 38.18,-150.062c13.421,2.277 26.452,4.493 39.119,6.649c-3.352,16.313 -4.611,34.346 -3.591,53.792c3.809,72.579 45.58,119.638 106.192,119.638c17.754,-0 58.954,-18.188 62.575,-27.625c3.663,-9.546 7.888,-6.396 7.712,5.75l-0.162,11.458l70.833,0l0,-122.118c16.51,2.637 32.42,5.121 47.917,7.47l0,112.406l9.463,2.375c5.204,1.305 22.545,1.809 38.541,1.121l29.079,-1.254l0.933,-103.547c17.762,2.342 35.395,4.527 53.234,6.588l0,96.959l75,0l2.181,-88.945c6.82,0.632 13.727,1.255 20.736,1.868l-0,12.285c-0,102.934 1.837,99.792 -58.296,99.792l-42.371,0l-12.204,-13.65l-12.208,-13.654l-4.588,10.067c-6.737,14.791 -20.754,19.32 -59.792,19.32c-31.47,0 -36.162,-1.062 -47.72,-10.787l-12.821,-10.788l-12.821,10.788c-11.45,9.637 -16.375,10.787 -46.104,10.787c-18.309,0 -36.954,-1.962 -41.434,-4.358c-6.179,-3.308 -14.17,-2.162 -33.112,4.742c-18.925,6.904 -30.383,8.546 -47.346,6.796c-46.487,-4.8 -88.937,-35.646 -102.746,-74.667c-6.212,-17.55 -9.312,-17.092 -18.746,2.787c-10.666,22.48 -34.645,44.113 -64.129,57.863c-24.608,11.471 -31.441,12.75 -69.054,12.908c-38.867,0.167 -43.637,-0.754 -69.317,-13.391c-16.775,-8.255 -32.075,-19.463 -39.054,-28.617l-11.479,-15.046l-5.525,13.146c-12.225,29.075 -91.525,51.812 -148.1,42.471c-109.975,-18.163 -173.433,-124.621 -147.433,-247.325c7.474,-35.266 23.21,-66.908 44.706,-92.322Z"/><path d="M1344.99,2031.71c-35.555,-12.25 -68.095,-24.615 -98.331,-35.682c24.094,-8.906 52.182,-7.474 78.712,6.244c7.083,3.663 15.108,5.804 17.837,4.758c5.146,-1.975 19.288,-41.937 19.288,-54.504c0,-4.654 -8.375,-11.012 -23.958,-18.187c-19.209,-8.842 -31.396,-11.267 -61.459,-12.225c-23.091,-0.738 -43.904,0.92 -54.166,4.312c-25.913,8.558 -48.425,22.183 -66.793,40.131c-8.886,-2.259 -17.594,-4.19 -26.151,-5.74c26.807,-31.693 62.573,-53.698 102.444,-60.962c50.179,-9.141 116.946,4.721 140.333,29.134c10.758,11.229 11.579,14.233 9.429,34.366c-3.075,28.742 -17.6,60.875 -30.087,66.563c-2.223,1.013 -4.462,1.632 -7.098,1.792Z"/><path d="M2233.22,2185.11c6.885,0.539 13.883,1.072 21.004,1.601l2.028,82.038l75,0l1.047,-76.704c13.988,0.884 28.467,1.766 43.499,2.653c0.883,3.515 1.888,6.799 3.017,9.797c17.979,47.75 52.637,74.408 96.958,74.579c28.967,0.113 43.183,-4.929 60.217,-21.358l13.07,-12.604l-3.716,19.908c-4.546,24.317 -16.463,37.775 -38.821,43.821c-22.054,5.971 -60.65,1.804 -81.404,-8.784c-9.05,-4.616 -18.25,-8.391 -20.446,-8.391c-2.196,-0 -8.108,12.375 -13.142,27.5c-10.925,32.821 -9.762,34.854 27.363,47.9c80.275,28.216 161.775,2.629 189.904,-59.617c8.216,-18.184 9.652,-22.539 9.902,-100.366c2.468,-0.069 6.149,-0.166 11.767,-0.296c-5.618,0.13 -9.299,0.227 -11.767,0.296c0.049,-15.281 0.052,-33.394 0.052,-55.001l0,-133.333l-34.721,-1.217c-31.721,-1.108 -34.904,-0.495 -36.891,7.096c-2.167,8.288 -2.209,8.288 -13.567,-0.112c-18.938,-14 -50,-18.938 -77.321,-12.288c-31.725,7.725 -58.417,31.267 -73.533,64.854c-12.645,28.099 -15.453,83.665 -6.921,117.616c-15.032,-0.887 -29.511,-1.769 -43.499,-2.653l0.086,-6.292c0.909,-66.604 -0.2,-87.571 -5.6,-106.146c-15.362,-52.854 -70.625,-80.083 -123.933,-61.07c-8.746,3.116 -19.208,8.662 -23.246,12.316c-9.1,8.238 -13.4,8.534 -10.4,0.717c3.834,-9.988 -13.429,-15.338 -45.312,-14.042l-30.142,1.221l0,153.041c-17.839,-2.061 -35.472,-4.246 -53.234,-6.588l0.171,-19.099c0.609,-67.454 -0.329,-123.704 -2.083,-125c-1.754,-1.296 -19.592,-1.812 -39.646,-1.15l-36.458,1.204l-0,132.944c-15.497,-2.349 -31.407,-4.833 -47.917,-7.47l0,-223.715l-35.612,-1.192c-19.588,-0.654 -36.934,0.125 -38.542,1.738c-1.612,1.608 -2.929,27.045 -2.929,56.525l-0,53.595l-11.458,-8.312c-16.775,-12.171 -44.605,-17.154 -69.463,-12.438c-44.844,8.503 -75.196,42.489 -85.555,92.904c-12.667,-2.156 -25.698,-4.372 -39.119,-6.649c-7.411,-28.261 -22.405,-53.506 -44.801,-69.73c-26.987,-19.545 -59.946,-26.27 -101.775,-20.758c-29.464,3.882 -56.411,19.862 -75.958,43.834c-7.146,-2.121 -14.178,-4.272 -21.102,-6.446c16.817,-21.433 40.404,-42.455 58.564,-50.65c18.604,-8.396 28.529,-9.888 65.667,-9.871c37.5,0.012 46.571,1.412 63.5,9.796c28.121,13.929 51.133,36.45 65.242,63.85l12.204,23.695l11.246,-22.983c13.208,-26.996 32.804,-47.779 57.295,-60.767c14.521,-7.7 24.33,-9.345 56.134,-9.404l38.537,-0.071l0.004,-36.645c0.005,-33.355 0.925,-37.571 10.234,-46.875c9.316,-9.321 13.475,-10.225 46.875,-10.167c41.279,0.067 54.741,4.887 63.258,22.65l5.779,12.054l8.196,-11.25c11.758,-16.146 28.704,-23.521 53.996,-23.5c28.929,0.021 47.175,11.088 57.771,35.046c8.617,19.479 7.666,36.333 -3.279,58.075c-4.829,9.592 -5.017,14.212 -0.979,23.958c5.845,14.117 10.708,15.388 14.395,3.763c5.734,-18.059 13.217,-20.859 55.721,-20.859c22.296,0 42.454,1.917 44.8,4.263c2.904,2.904 9.096,2.242 19.45,-2.083c8.917,-3.725 27.804,-6.346 45.754,-6.346c54.475,-0 92.359,27.554 111.609,81.187l4.462,12.434l12.346,-25.726c14.625,-30.466 41.763,-56.104 69.342,-65.499c22.516,-7.671 62.204,-8.592 78.962,-1.83c6.879,2.775 31.579,4.396 59.729,3.921c46.967,-0.8 48.221,-0.579 58.334,10.184l10.333,11l0,272.245l-10.937,22.917c-15.875,33.254 -37.659,56.104 -67.363,70.658c-45.838,22.459 -89.204,25.459 -144.617,9.996c-58.808,-16.404 -69.229,-39.512 -45.116,-100.046l9.7,-24.358l-31.409,-62.5l2.717,32.058c2.688,31.721 2.583,32.192 -10.017,44.792c-12.345,12.346 -13.895,12.733 -50.875,12.733c-36.6,0 -38.633,-0.491 -50.32,-12.179l-12.18,-12.179l-0.058,-72.196c-0.004,-4.784 -0.023,-9.523 -0.057,-14.168Zm-244.489,-263.832c-16.892,4.884 -26.254,18.117 -26.137,36.942c0.145,22.85 11.479,34.179 36.612,36.596c19.425,1.866 22.333,0.954 33.938,-10.65c20.254,-20.254 16.537,-48.488 -8.059,-61.209c-13.604,-7.033 -17.25,-7.204 -36.354,-1.679Z"/></g></svg>